<?xml version="1.0" encoding="UTF-8"?>
<svg xmlns="http://www.w3.org/2000/svg" version="1.1" viewBox="0 0 256 256">
  <defs>
    <style>
      .cls-1 {
        fill: #05fdff;
      }

      .cls-2 {
        fill: #f20574;
      }

      .cls-3 {
        fill: #00262f;
      }
    </style>
  </defs>
  <!-- Generator: Adobe Illustrator 28.6.0, SVG Export Plug-In . SVG Version: 1.2.0 Build 709)  -->
  <g>
    <g id="Capa_1">
      <rect class="cls-3" width="256" height="256" rx="50" ry="50"/>
      <g>
        <path class="cls-1" d="M209.09,171.54c-1.46-7.54-4.99-14.69-10.29-20.29-9.31-9.84-23.82-14.57-37.19-12.06l.06,23.05c8.94-3.08,19.91,2.26,22.91,11.15,3,8.89-2.52,19.69-11.54,22.56-3.57,1.14-7.4,1.13-11.15,1.12-20.48-.06-40.97-.13-61.45-.19-3.93-.01-7.96-.04-11.66-1.35-3.64-1.29-6.81-3.83-8.85-7.08-3.45-5.5-3.48-12.38-3.41-18.85.1-9.13.21-18.26.31-27.39,0-.87,0-1.8-.45-2.55-.53-.87-1.55-1.3-2.49-1.7-2.02-.86-3.98-1.85-5.87-2.96-1.9-1.11-3.73-2.34-5.47-3.68-1.75-1.34-3.41-2.78-4.97-4.33-1.56-1.54-3.03-3.18-4.38-4.91-.17-.22-.34-.43-.5-.65-.04-.05-.16-.27-.23-.25-.05.02-.02.41-.02.47,0,.67,0,1.33,0,2,0,1.33-.01,2.67-.02,4-.01,2.67-.02,5.33-.03,8-.01,2.67-.02,5.33-.03,8-.01,2.67-.02,5.33-.03,8-.01,2.67-.02,5.33-.03,8-.01,2.67-.02,5.33-.03,8,0,.83,0,1.65,0,2.48-.03,6.72-.04,13.54,1.68,20.04,4.1,15.46,18.39,27.41,34.3,30.11,5.03.85,10.15.88,15.25.9,16.33.07,32.65.14,48.98.21,10.21.04,20.69.04,30.25-3.51,12.74-4.73,22.84-15.96,26.04-29.07,1.37-5.64,1.45-11.55.34-17.25Z"/>
        <path class="cls-1" d="M210.18,80.23c0-1.26-.2-2.53-.13-3.78.17-3.22-.21-6.36-1.18-9.43-2.54-8.05-7.78-14.01-14.85-18.5-7.99-5.07-16.84-7.14-26.24-7.14-26.08,0-52.15-.02-78.23,0-9.43,0-17.83,3.02-25,9.06-8.01,6.75-12.18,15.37-12.18,25.87,0,4.19-.05,8.38.02,12.57.03,1.72.21,3.45.51,5.15,1.54,8.69,6.15,15.57,13.21,20.74,9.2,6.74,19.56,10.42,31.11,10.49,1.12,0,2.25,0,3.53,0v-22.25c-2.52.45-4.83.41-7.17.06-10.99-1.65-18.33-12.47-15.65-23.13,2.15-8.57,10.22-14.81,19.19-14.81,22.38,0,44.76,0,67.14,0,1.2,0,2.42.08,3.61.23,10.36,1.29,17.87,9.73,17.88,20.07,0,12.17,0,24.35,0,36.52v2.22c10.04,4.09,17.99,10.56,24.01,19.38l.44-.13v-2.12c0-20.35,0-40.71,0-61.06Z"/>
        <rect class="cls-2" x="137.74" y="71.18" width="23.89" height="119.64" rx="3.87" ry="3.87"/>
        <path class="cls-2" d="M100.72,104.3v-13.19c0-1.19.97-2.15,2.17-2.15h19.62c1.2,0,2.17.96,2.17,2.15v97.56c0,1.19-.97,2.15-2.17,2.15h-19.62c-1.2,0-2.17-.96-2.17-2.15v-84.37"/>
      </g>
    </g>
  </g>
</svg>