<?xml version="1.0" encoding="UTF-8"?>
<svg xmlns="http://www.w3.org/2000/svg" version="1.1" viewBox="0 0 1214 1000">
  <defs>
    <style>
      .cls-1 {
        fill: #26474e;
      }

      .cls-2 {
        fill: #cacaca;
      }

      .cls-3 {
        fill: #252525;
      }

      .cls-4 {
        fill: #ccd4d5;
      }

      .cls-5 {
        fill: #f20a77;
      }

      .cls-6 {
        fill: #9a9a9a;
      }

      .cls-7 {
        fill: #1f4048;
      }

      .cls-8 {
        stroke: #191919;
      }

      .cls-8, .cls-9, .cls-10, .cls-11, .cls-12, .cls-13, .cls-14, .cls-15 {
        fill: none;
      }

      .cls-8, .cls-9, .cls-10, .cls-13, .cls-14 {
        stroke-linecap: round;
        stroke-linejoin: round;
      }

      .cls-8, .cls-10, .cls-13 {
        stroke-width: 2.29px;
      }

      .cls-16 {
        fill: #191718;
      }

      .cls-9 {
        stroke: #191718;
      }

      .cls-9, .cls-14 {
        stroke-width: 2.39px;
      }

      .cls-17 {
        fill: #05fdff;
      }

      .cls-18 {
        fill: #fff;
      }

      .cls-19 {
        fill: #6b8186;
      }

      .cls-10 {
        stroke: #00262f;
      }

      .cls-20 {
        fill: #c4cdcf;
      }

      .cls-21 {
        fill: #fcc1dc;
      }

      .cls-22 {
        fill: #f20574;
      }

      .cls-23 {
        fill: #8a8a8a;
      }

      .cls-11 {
        stroke-width: 10px;
      }

      .cls-11, .cls-12, .cls-15 {
        stroke-miterlimit: 10;
      }

      .cls-11, .cls-13, .cls-14 {
        stroke: #f20574;
      }

      .cls-12 {
        stroke: #163e4f;
        stroke-width: .95px;
      }

      .cls-24 {
        fill: #c8c8c8;
      }

      .cls-25 {
        fill: #454545;
      }

      .cls-26 {
        fill: #b5c0c3;
      }

      .cls-27 {
        fill: #f4358e;
      }

      .cls-28 {
        fill: #73888d;
      }

      .cls-29 {
        fill: #cc7672;
      }

      .cls-30 {
        fill: #b50457;
      }

      .cls-31 {
        fill: #595959;
      }

      .cls-32 {
        fill: #1b1b1b;
      }

      .cls-33 {
        fill: #191919;
      }

      .cls-34 {
        fill: #fcad9a;
      }

      .cls-35 {
        fill: #00262f;
      }

      .cls-36 {
        fill: #feeef5;
      }

      .cls-37 {
        fill: #c1c1c1;
      }

      .cls-15 {
        stroke: #1b1b1b;
        stroke-width: 3.36px;
      }

      .cls-38 {
        fill: #4d676d;
      }

      .cls-39 {
        fill: #4a656b;
      }

      .cls-40 {
        fill: #a3b1b4;
      }
    </style>
  </defs>
  <!-- Generator: Adobe Illustrator 28.6.0, SVG Export Plug-In . SVG Version: 1.2.0 Build 709)  -->
  <g>
    <g id="Capa_1">
      <g>
        <path class="cls-39" d="M250.82,131.17L16.15,112.22c-.9-.07-1.7.67-1.78,1.65L0,291.99c-.08.99.59,1.84,1.49,1.92l53.04,4.28,32.28,54.04c.94,1.58,3.35,1.03,3.53-.8l4.78-49.96,91.74,7.41c28.13,2.27,52.94-20.75,55.41-51.41l10.03-124.38c.08-.99-.59-1.84-1.49-1.92h0Z"/>
        <polygon class="cls-18" points="218.84 164.64 72.66 152.84 73.15 146.74 219.33 158.54 218.84 164.64 218.84 164.64"/>
        <polygon class="cls-18" points="215.09 211.1 40.75 197.03 41.24 190.93 215.58 205.01 215.09 211.1 215.09 211.1"/>
        <polygon class="cls-18" points="211.34 257.56 37 243.49 37.49 237.4 211.83 251.47 211.34 257.56 211.34 257.56"/>
        <path class="cls-27" d="M129.74,366.33c-2.99,9,1.34,18.59,5.14,26.78,3.37,7.27,4.55,12.05-4.02,14.02-4.82,1.11-13.39,3.17-17.62-.53-3.2-2.8-1.4-11.45.16-14.88,1.19-2.62,4.34-3.96,5.46-6.61.46-1.09.53-2.31.54-3.5.07-4.85-.6-9.71-1.98-14.36-.94-3.16-2.2-6.26-2.49-9.54-.41-4.76,2.95-10.3,4.72-14.67,3.29-8.13,14.73-19.04,24.31-12.66,2.18,1.45,3.45,3.91,4.51,6.31.63,1.43,1.24,2.93,1.26,4.49.07,6.24-5.62,7.3-9.56,10.27-4.85,3.67-8.53,9.14-10.44,14.88h0Z"/>
        <path class="cls-2" d="M147.96,401.43c-8.31-1.96-14.81-8.94-17.93-16.89-3.12-7.95-3.29-16.77-2.42-25.27,2.87-28.28,38.04-26.47,49.95-4.79,10.38,18.89-5.43,52.64-29.59,46.95h0Z"/>
        <path class="cls-27" d="M175.05,367.8c.36,4.42-1.96,9.34.47,13.05,1.08,1.65,2.9,2.64,4.43,3.89,4.19,3.4,6.36,9.12,5.48,14.45,8.85-.34,17.7-.68,26.55-1.02,1.34-.05,2.73-.12,3.88-.81,2.44-1.48,2.57-4.91,2.41-7.76-.31-5.61-.77-11.63-4.26-16.03-1.62-2.04-3.8-3.59-5.41-5.64-7.76-9.85-.17-27.13-9.62-35.37-4.22-3.68-10.33-3.95-15.5-6.09-9.01-3.73-14.93-13.07-24.17-16.21-17.44-5.93-34.33,15.35-24,30.89,8.43,12.68,38.3,8.86,39.73,26.67h0Z"/>
        <polygon class="cls-27" points="249.79 636.77 228.91 769.03 224.35 864.76 208.86 869.32 187.9 778.15 168.55 615.38 249.79 636.77 249.79 636.77"/>
        <polygon class="cls-27" points="208.86 872.05 207.04 882.08 210.68 901.23 223.44 900.32 226.17 872.05 224.35 867.5 208.86 872.05 208.86 872.05"/>
        <polygon class="cls-27" points="113.94 666.41 148.31 901.69 163.94 901.69 173.8 773.36 195.18 645.02 113.94 666.41 113.94 666.41"/>
        <polygon class="cls-27" points="148.6 898.97 128.49 911.63 130.86 921.29 167.51 914.05 164.7 900.1 148.6 898.97 148.6 898.97"/>
        <path class="cls-24" d="M185.98,402.02c.35.08.69.15,1.03.23,16.37,3.85,31.67,27.37,40.49,41.2,12.47,19.58,20.73,41.43,29.3,62.89,25.45,63.77,54.43,124.66,84.89,186.19,10.17,20.55-89.34,23.48-99.2,24.13-35.06,2.33-70.19,3.41-105.33,3.25-2.89-.01-5.79,0-8.7.03-13.26.09-26.67.18-39.43-2.79-3.36-.78-40.85-12.75-38.24-17.36,7.5-13.27,20.85-28.3,21.95-43.11,1.24-16.74,3.89-33.35,6.52-49.92,5.11-32.2,9.16-64.55,13.94-96.8,2.55-17.2,4.45-34.5,7.64-51.6,1.57-8.41,2.23-17.27,5.08-25.39,3.28-9.35,9.48-12.68,17.08-18.81,2.61-2.1,5.23-4.22,8.18-5.81,15.55-8.37,37.6-10.12,54.81-6.34"/>
        <polygon class="cls-2" points="241.02 293.9 234.33 277.07 227.01 279.62 229.05 292.16 225.03 291.76 232.51 305.46 240.48 303.84 241.02 293.9 241.02 293.9"/>
        <polygon class="cls-24" points="170.58 404.8 238.55 382.36 228.43 301.67 244.39 299.25 277.45 391.87 225.26 459.51 170.58 404.8 170.58 404.8"/>
        <polygon class="cls-2" points="63.39 345.02 66.53 327.18 74.21 328.19 74.76 340.88 78.62 339.67 74.07 354.61 65.94 354.64 63.39 345.02 63.39 345.02"/>
        <polyline class="cls-24" points="132.31 413.01 83.1 413.01 77.3 350.07 61.19 350.95 41.18 440.36 108.62 497.8 132.31 413.01"/>
        <polygon class="cls-23" points="177.61 575.29 160.53 569.27 162.79 561.85 175.39 563.39 174.83 559.38 188.82 566.32 187.51 574.34 177.61 575.29 177.61 575.29"/>
        <path class="cls-18" d="M314.04,517.85c-.92.4-1.82.9-2.7,1.53-6.11,4.31-11.4,12.55-16.44,18.07-9.68,10.6-19.36,21.2-29.04,31.8l-80.99-6.87-1.77,16.05,93.83,29.32c12.9-9.01,25.81-18.02,38.71-27.03,8.3-5.8,18.06-11.08,25.58-17.86,9.55-8.62,7.32-22.83-.26-33.26-6.34-8.73-17.47-15.85-26.9-11.75h0Z"/>
        <polygon class="cls-27" points="843.11 647.32 840.38 745.51 816.19 911.08 797.59 911.08 785.84 758.31 763.83 628.18 843.11 647.32 843.11 647.32"/>
        <polygon class="cls-7" points="797.7 918.93 817.81 928.99 827.87 918.93 816.36 909.17 797.98 911.1 797.7 918.93 797.7 918.93"/>
        <polygon class="cls-27" points="719.78 626.22 719.41 700.51 742.49 920.2 761.08 920.2 781.67 774.33 798.28 614.66 719.78 626.22 719.78 626.22"/>
        <polygon class="cls-7" points="760.98 928.05 740.86 938.11 730.81 928.05 742.84 918.85 761.22 918.85 760.98 928.05 760.98 928.05"/>
        <polygon class="cls-31" points="403.33 884.5 401.38 896.71 423.84 912.82 437.99 902.56 427.74 888.4 405.28 872.29 403.33 884.5 403.33 884.5"/>
        <polygon class="cls-33" points="423.81 509.78 417.89 546.86 441.67 715.46 402.68 880.36 426.11 889.07 514.55 695.41 522.24 635.1 518.95 509.06 423.81 509.78 423.81 509.78"/>
        <polygon class="cls-33" points="575.18 523.62 577 681.45 547.27 884.95 524.42 884.95 509.98 697.18 478.7 509.41 575.18 523.62 575.18 523.62"/>
        <polygon class="cls-31" points="524.55 894.59 549.27 906.96 561.63 894.59 549.27 882.23 524.55 882.23 524.55 894.59 524.55 894.59"/>
        <polygon class="cls-5" points="414.87 967.83 417.13 977.37 400.32 991.42 388.53 984.14 395.8 972.35 412.61 958.29 414.87 967.83 414.87 967.83"/>
        <polygon class="cls-40" points="375.67 670.9 382.53 699.87 373.65 834.53 414.17 962.59 396.16 970.85 314.86 822.98 305.23 775.76 300.42 675.94 375.67 670.9 375.67 670.9"/>
        <polygon class="cls-40" points="256.83 690.76 264.68 815.62 300.14 974.73 318.21 973.38 318.58 824.11 332.26 673.84 256.83 690.76 256.83 690.76"/>
        <polygon class="cls-5" points="318.67 981.01 299.86 992.24 289.37 983.2 298.41 972.69 317.95 971.23 318.67 981.01 318.67 981.01"/>
        <polygon class="cls-5" points="627.33 979.53 627.15 987.28 610.82 994.69 602.92 986.77 611.18 979.18 627.51 971.77 627.33 979.53 627.33 979.53"/>
        <polygon class="cls-25" points="658.12 746.01 636.25 767.67 622.51 870.9 628.23 977.05 612.14 979.78 578 850.32 580.13 812.24 597.03 734.84 658.12 746.01 658.12 746.01"/>
        <polygon class="cls-25" points="527.53 755.49 534 854.29 563.24 980.2 578.14 979.13 578.45 861.01 589.73 742.11 527.53 755.49 527.53 755.49"/>
        <polygon class="cls-5" points="578.36 981.76 578.52 985.17 563.01 994.06 554.36 986.89 561.82 978.59 577.93 977.44 578.36 981.76 578.36 981.76"/>
        <path class="cls-2" d="M503.39,339.61c-7.11.52-14.21,1.05-21.31,1.57-1.04-5.59-1.64-11.26-1.78-16.94-6.18-1.03-13.44-2.93-15.51-8.85-.65-1.86-.66-3.88-.66-5.85,0-8.16-.02-16.32-.03-24.48,0-2.82,0-5.73,1.09-8.34,1.9-4.57,6.65-7.26,11.31-8.93,11.89-4.26,25.71-3.93,36.62,2.45,2.9,1.7,5.64,3.87,7.29,6.8,2.56,4.51,2.19,10.04,1.76,15.21-.4,4.77-.81,9.54-1.21,14.31-.46,5.49-1.42,11.79-6.13,14.64-2.5,1.51-5.72,1.76-7.88,3.73-3.81,3.47-2.12,9.74-3.56,14.69h0Z"/>
        <path class="cls-22" d="M560.42,248.29c.86-2.19,1.83-4.32,2.97-6.37,2.47-4.42,5.77-8.42,7.55-13.17,1.78-4.74,1.66-10.73-2.07-14.17-2.4-2.22-5.8-2.94-9.05-3.32-10.7-1.23-21.73.48-31.56,4.89-9.36,4.2-17.41,9.86-27.91,7.89-9.87-1.85-16.32.73-25.4,5.87-9.83,5.56-23.74,8.9-32.31,15.83-3.58,2.9-6.14,6.89-7.94,11.13-6.24,14.68-3.13,32.87,7.64,44.63,2.42,2.64,5.16,4.96,8,7.13,5.88,4.5,12.94,10.1,20.09,10.9-.9-6.11-9.78-24.34-5.97-30.15,6.04-9.21,23.28-9.36,32.82-9.02,10.4.38,20.58,5.93,30.8,5.72,7.35-.15,15.87-5.25,21.32-10.02,6.72-5.88,7.9-19.81,11.04-27.8h0Z"/>
        <polygon class="cls-2" points="609.04 288.6 612.17 276.41 606.37 266.95 607.75 264.7 610.59 266.29 608.02 257.05 611.2 249.96 621.33 247.9 630.9 252.67 631.87 262.96 626.75 274.13 623.2 291 609.04 288.6 609.04 288.6"/>
        <polygon class="cls-26" points="604.26 275.61 593.39 354.38 502.18 335.33 534.8 406.44 625.24 397.04 628.08 281.49 604.26 275.61 604.26 275.61"/>
        <polygon class="cls-2" points="394.04 280.31 391.68 267.87 398.11 258.74 396.87 256.4 393.92 257.81 397.09 248.71 394.36 241.38 384.32 238.66 374.41 242.84 372.77 253.1 377.19 264.64 379.68 281.81 394.04 280.31 394.04 280.31"/>
        <polygon class="cls-26" points="398.31 272.27 404.93 345.51 473.82 342.9 445.87 412.92 366.16 382.62 372.61 268.17 398.31 272.27 398.31 272.27"/>
        <path class="cls-26" d="M402.81,554.75c-.31,14.4.14,33.81,5.67,34.52,1.04.13,2.03-.38,2.94-.87,9.56-5.22,16.33-12.57,25.75-17.62,9.88-5.29,21.18-8.1,32.26-10.07,16.57-3.03,33.51-4.91,50.39-5.2,18.33-.32,54.02,3.29,54.02,3.29,10.3-1.73,20.15-5.28,30.02-8.58,16.96-5.66,34.28-10.64,50.19-18.57,5.11-2.54,19.19-10.06,14.16-16.86-3.81-5.15-16.76-8.6-22.59-11.76-13.03-7.07-25.56-15.14-36.59-24.83-15.68-13.77-27.25-30.66-34.49-49.69-3.66-9.6-6.29-19.53-8.47-29.52-1.18-5.41-2.21-10.85-3.18-16.3-.55-3.09-.54-14.8-2.8-16.74-22.92-19.7-29.66-36.96-57.41-32.66-63.32,9.81-58.83,12.62-72.96,43.66-5.68,12.48-13.38,46-15.55,59.42-2.63,16.25-5.07,32.54-6.96,48.88-2.11,18.24-3.57,36.56-3.87,54.92-.03,2.04-.36,7.75-.51,14.59h0Z"/>
        <path class="cls-19" d="M814.85,404.8l-62.35-6.91s-27.85,4.14-49.73,80.76c-21.88,76.61-16.4,232.49-16.4,232.49,0,0,157.48-22.49,182.25-27.35l-17.32-141.32-36.45-137.67h0Z"/>
        <path class="cls-18" d="M364.97,511.25c11.46,3.94,21.29,11.17,27.24,24.84,5.18,11.91,6.38,25.24,7.5,38.28,3.21,37.33,2.6,78.01,13.62,114.12,4.79,15.7,9.67,25.13,7.29,42.58-.65,4.76-15.37,48.36-15.29,48.42-14.6-11.14-32.94-17.28-51.3-17.19-16.47.08-126.97,24.81-137.83,7-2.37-3.88,19.63-54.51,21.85-62.01,7.28-24.64,14.56-49.29,21.91-73.9,8.13-27.33,16.35-54.77,28.52-80.56,4.12-8.72,8.69-17.23,13.67-25.49,3.15-5.21,9.79-20.36,15.65-22.56,4.84-1.81,15.54,1.47,20.85,1.87,8.9.68,17.85,1.69,26.33,4.61h0Z"/>
        <path class="cls-23" d="M374.12,459.55c-9.17-24.41-45.58-31.6-52.84-2.52-2.18,8.74-3.33,17.96-1.27,26.73,2.06,8.77,7.79,17.03,16.17,20.32l.14.05c-.23,2.3-.46,4.61-.69,6.92-.05.49-.09,1.04.21,1.44.33.46.96.56,1.53.62,2.75.3,5.5.6,8.25.9,1.36.15,2.78.29,4.07-.18,2.82-1.03,3.87-4.5,3.88-7.51,0-.72-.03-1.44-.07-2.17,15.97-6.19,26.6-28.65,20.61-44.61h0Z"/>
        <path class="cls-33" d="M320.85,421.09c-6.68,0-11.31,7.17-16.85,11.4-4.61,3.52-10.19,5.1-15.05,8.17-4.86,3.07-9.26,8.62-8.48,14.64-5.68-1.96-11.81-3.93-17.55-1.91-5.74,2.02-10.18,9.89-6.96,15.35,2.88,4.9,9.85,5.11,12.88,9.9,4.78,7.58-3.02,21.61,4.38,26.01,1.78,1.06,3.98,1.05,5.74,2.15,2.18,1.37,3.22,4.11,4.46,6.51,5.6,10.86,18.24,16.63,29.41,13.4,6.59-4.37,11.22-12.07,12.58-20.3,1.64-9.92-3.91-12.47-6.08-21.22-2.37-9.57-.82-20.31,4.17-28.76,3.25-5.5,8.31-10.57,14.23-12.04,2.41-.6,1.94,1.56,4.41-.74,1.06-.99,2.21-4.3,2.33-5.82-7.36-4.32-14.83-16.75-23.62-16.75h0Z"/>
        <path class="cls-33" d="M393.45,423.16c3.51.44,7.16-.24,10.58.69,5.14,1.4,5.59,6.46,7.61,10.61,2.23,4.6,5.39,10.74,9.12,14.02,2.69,2.36,6.13,3.43,9.23,5.1,3.1,1.67,6.12,4.37,6.62,8.13.47,3.57-1.45,7.12-1.27,10.73.36,5.37,1.68,7.94.85,13.61-.43,2.92-.93,6.02-2.75,8.24-2.39,2.92-6.34,3.46-9.88,3.4-3.54-.06-7.26-.49-10.5,1.16-7.03,3.59-4.53,10.86-5.57,17.43-1.58,9.99-11.81,17.2-20.78,15.07-7.6-1.81-12.99-9.53-13.89-17.8-.45-4.14.62-8.23.13-12.37-.48-3.99-3.53-9.17-.4-12.86.76-.9,1.83-1.47,2.49-2.46.53-.8.74-1.81.83-2.79.28-3.4-.98-6.88-3.29-9.11-1.66-1.6-3.85-2.63-5.03-4.68-1.35-2.35-1.01-5.39-1.25-8.18-.59-6.74-5.21-12.74-11.16-14.5-3.92-1.15-7.37-1.67-10.95-3.78-.55-.32-8.79-5.68-8.77-4.26-.03-2.47,1.07-4.8,2.21-6.96,1.88-3.55,4.03-7.05,7.07-9.45,9.81-7.78,12.46,6.52,20.79,3.35,2.01-.77,3.29-2.9,4.99-4.32,3.21-2.67,7.66-2.55,11.51-1.48,3.85,1.07,7.51,2.96,11.47,3.46h0Z"/>
        <path class="cls-37" d="M806.69,332.19c-14.2-4.7-28.87-9.1-43.71-7.71-3.25.3-6.79,1.06-8.8,3.64-.77,1-1.26,2.19-1.7,3.37-5.08,13.28-11.8,33.04-4.11,46.54,1.47,2.57,3.57,4.71,5.88,6.52,3.1,2.41,6.62,4.19,10.32,5.32-1.13,3.32-2.56,6.53-4.28,9.58,7.22,1.01,14.43,2.02,21.63,3.04.59-4.15,1.18-8.29,1.77-12.44,1.96-.57,3.89-1.31,5.72-2.26,7.08-3.69,12.13-9.87,15.43-17.03,3.59-7.8,8.26-15.08,11.64-23.05,1.22-2.91,2.3-6.25,1-9.13-1.38-3.06-4.91-4.41-8.09-5.48-.9-.3-1.8-.6-2.7-.9h0Z"/>
        <path class="cls-3" d="M757.51,335.04c7.65-3.88,18.64-4.77,25.35-3.59,20.26,3.57,26.21,19.35,25.37,38.24,6.37-6.58,17.84-14.49,19.43-23.63,1.29-7.48,1.31-17.86-2.25-24.8-3.32-6.49-13.07-10.87-18.71-15.02-5.32-3.91-10.64-7.81-15.95-11.72-1.1-.81-2.24-1.64-3.57-2.01-1.56-.44-3.22-.2-4.83.04-13.73,2.09-27.46,4.17-41.19,6.26-2.64.4-5.66,1.07-6.87,3.45-.73,1.45-.56,3.17-.38,4.78.8,7.1,2.99,14.5,2.99,21.61.41,4.17.69,25.38,8.18,23.7,2.48-3.26,3.24-7.51,5.27-11.06,1.51-2.63,4.06-4.69,7.17-6.27h0Z"/>
        <polygon class="cls-2" points="860.62 605.9 860.88 627.66 851.58 628.18 848.11 613.31 843.83 615.6 845.87 596.95 855.47 595.11 860.62 605.9 860.62 605.9"/>
        <path class="cls-19" d="M796.97,429.97c-.05,13.77,6.62,29.05,9.8,40.59,3.59,12.99,7.27,25.97,10.78,38.99l24.89,92.31,18.74,5.03-2.86-107.66c-4.06-25.12-4.78-53.77-18-76.14-3.74-6.33-8.48-12.41-15.06-15.68-6.59-3.27-15.34-3.02-20.52,2.2-5.71,5.76-7.75,12.84-7.77,20.38h0Z"/>
        <polygon class="cls-5" points="873.37 981.61 872.42 991.46 852.49 1000 843.95 989.5 856.03 978.86 873.45 976.92 873.37 981.61 873.37 981.61"/>
        <polygon class="cls-19" points="889.05 781.02 873.7 977.53 854.49 980.15 838.61 812.65 825.46 759.51 889.05 781.02 889.05 781.02"/>
        <polygon class="cls-19" points="949.73 848.81 912.23 963.8 894.57 961.46 907.81 845.17 889.58 781.35 956.11 773.14 949.73 848.81 949.73 848.81"/>
        <polygon class="cls-5" points="893.63 969.29 911.4 981.84 922.28 973.09 914.07 961.8 894.95 959.26 893.63 969.29 893.63 969.29"/>
        <path class="cls-2" d="M980.75,459.37c.74-3.06,1.47-6.12,2.21-9.17-1.49-2.34-2.97-4.68-4.45-7.03.34-.57.67-1.13,1.01-1.7.72.39,1.43.77,2.14,1.16-.67-2.3-1.34-4.59-2.02-6.89.76-1.78,1.53-3.57,2.3-5.36,2.53-.55,5.05-1.1,7.58-1.65,2.41,1.16,4.81,2.31,7.22,3.47.28,2.55.57,5.17.84,7.67-1.12,3.21-2.63,5.11-3.66,8.62-1.04,3.52-1.6,8.66-2.53,12.49-3.53-.49-7.09-1.08-10.62-1.61h0Z"/>
        <path class="cls-21" d="M977.01,449.68c-4.51,12.28-9.18,24.53-12.73,37.12-2.21,7.8-1.26,26.87-12.75,24.29-12.96-2.91-25.92-5.82-38.88-8.73-2.24-.5-4.53-1.01-6.83-.85-13.29.92-11.78,18.3-10.49,27.6.74,5.35,1.71,10.67,2.88,15.94.65,2.93,1.45,6.01,3.58,8.14,2.53,2.54,6.38,3.16,9.95,3.55,14.91,1.62,30.01,1.48,44.9-.37,7.85-.98,15.65-2.41,23.33-4.36,8.2-2.08,8.06-3.65,8.37-11.84,1.08-28.86,6.32-57.46,6.6-86.36-5.97-1.38-11.95-2.76-17.92-4.14h0Z"/>
        <path class="cls-36" d="M501.6,566.99c-20.43,36.61-20.81,79.25-14.02,119.45,6.79,40.2,2.19,82.51,14.71,119.22,44.87,5.42,101.91,7.81,147.17,6.17,11.02-37.22,14.02-79.11,17.77-117.38,3.75-38.28,7.97-73.28-8.76-108.88-9.77-20.79-36.44-75.81-66.28-79.26-36.88-4.26-76.77,35.9-90.59,60.67h0Z"/>
        <path class="cls-2" d="M588.55,430.05c-15.97-4.08-29.83,2.61-35.98,18-8.95,22.4,4.46,47.87,21.32,54.35.23,2.5.46,5,.69,7.5.05.51.11,1.06.45,1.45.31.34.77.47,1.21.58,4.64,1.12,9.66.59,13.96-1.49-.79-2.48-1.29-5.04-1.52-7.63,6.53-2.31,12.79-8.22,17.76-18.91,9.73-20.95,7.83-47.28-17.89-53.85h0Z"/>
        <path class="cls-35" d="M557.99,488.85c-13.52,1.7-16.16-12.56-16.71-22.89-.78-14.59-2.49-26.16,9.04-37.71,15.66-15.7,42.76-17.25,58.79-1.07,5.48,5.53,8.05,13.32,9.4,21,2.25,12.88,1.3,26.94-6,37.78-4.38,6.51-13.72,12.46-12.99.82.54-8.62,8.39-15.28,6.43-24.52-.35-1.65-1.07-3.3-2.4-4.33-2.85-2.22-7.15-.82-10.44-2.31-6.51-2.94-8.87-14.84-18.47-10-4.86,2.45-15.17,15.09-17.21,20.15-2.2,5.46-.62,11.65,1.29,17.21,1.4,4.07.77,5.66-.75,5.85h0Z"/>
        <path class="cls-35" d="M536.6,532.85c0,7.62.64,15.28-.4,22.83-.82,5.98-2.68,11.78-3.46,17.77-1.29,9.89.46,20.15,4.97,29.05,7.06-14.81,12.05-30.61,14.79-46.79,2.67-15.75,3.2-31.77,3.72-47.74.23-6.9-.43-36.7-10.57-17.76-6.84,12.79-9.06,28.31-9.05,42.63h0Z"/>
        <path class="cls-35" d="M620.45,549.84c-1.02-7.55-2.66-15.06-2.63-22.68.02-6.04,1.09-12.03,1.07-18.07-.03-9.97-3.13-19.91-8.78-28.13-5.03,15.62-7.89,31.94-8.45,48.34-.55,15.96,1.04,31.92,2.64,47.81.69,6.87,5.29,36.32,12.83,16.19,5.09-13.58,5.23-29.26,3.32-43.46h0Z"/>
        <path class="cls-21" d="M915.61,504.34l-51.39-24.51s-33.03,37.7-59.38,110.96c-26.34,73.27-7.29,213.34-7.29,213.34,0,0,156.87,3.12,181.35,0l-38.17-197.55-25.12-102.26h0Z"/>
        <path class="cls-31" d="M829.44,171.43c-8.64,9.03-21.11,14.24-34.53,13.17-13.34-1.06-24.77-8.1-31.88-18.28-41.52,15.23-55.3,69.5-60.49,134.52l165.12,13.19c5.21-65.24,1.17-121.1-38.23-142.6h0Z"/>
        <path class="cls-31" d="M851.12,122.76c-2.24,28.15-26.88,49.15-55.01,46.9-28.13-2.25-49.13-26.89-46.87-55.04,2.24-28.15,26.87-49.15,55.01-46.9,28.13,2.25,49.12,26.89,46.87,55.04h0Z"/>
        <path class="cls-18" d="M902.78,208.8c-1.31,16.45-15.7,28.72-32.15,27.41-16.44-1.31-28.71-15.71-27.39-32.17,1.31-16.45,15.7-28.72,32.15-27.41,16.44,1.31,28.71,15.71,27.39,32.17h0Z"/>
        <polygon class="cls-35" points="890.13 203.38 877.85 202.4 878.93 188.77 869.96 188.05 868.87 201.68 856.58 200.7 855.89 209.47 868.17 210.45 867.08 224.08 876.06 224.8 877.15 211.17 889.44 212.15 890.13 203.38 890.13 203.38"/>
        <polygon class="cls-28" points="273.23 634.01 252.88 659.36 132.32 565.27 152.68 539.93 273.23 634.01 273.23 634.01"/>
        <path class="cls-35" d="M302.37,677.13l-.23.29c-6.42,7.99-16.54,10.64-22.61,5.9l-69.81-53.63,23.48-30.56,69.82,54.96c6.07,4.73,5.78,15.05-.64,23.05h0Z"/>
        <path class="cls-27" d="M165.41,444.14c42.62,33.26,49.75,94.38,15.91,136.51-33.84,42.13-95.82,49.31-138.44,16.05C.25,563.43-6.87,502.31,26.97,460.18c33.84-42.13,95.82-49.31,138.44-16.05"/>
        <path class="cls-26" d="M156.85,454.8c36.67,28.61,42.8,81.19,13.69,117.43-29.11,36.24-82.43,42.42-119.1,13.8-36.67-28.62-42.8-81.19-13.69-117.43,29.11-36.24,82.43-42.42,119.1-13.8"/>
        <path class="cls-20" d="M38.37,515.31c-3.26,0-6.67-2.36-6.26-6.5.29-2.88.7-5.76,1.38-8.58,6.98-29.16,31.89-52.04,62.43-55.05,2.39-.24,4.78-.35,7.15-.35,28.29,0,54.28,16.5,65.93,42.39,1.99,4.42-1.86,7.75-5.68,7.75-2.13,0-4.25-1.03-5.36-3.49-9.62-21.37-31.46-35.01-54.68-35.01-3.27,0-6.56.27-9.85.83-26.75,4.52-46.96,26.59-49.59,53.13-.33,3.35-2.84,4.88-5.46,4.88"/>
        <path class="cls-4" d="M169.35,518.49c-1.69,0-3.39-.54-4.82-1.66-3.37-2.63-3.94-7.47-1.26-10.81,1.54-1.92,3.83-2.93,6.13-2.93,1.69,0,3.39.54,4.82,1.66,3.37,2.63,3.94,7.47,1.26,10.8-1.54,1.92-3.83,2.93-6.13,2.93"/>
        <path class="cls-31" d="M210.84,628.72l22.34-29.08c.77-1,.65-2.41-.28-3.26l-.3-.28c-1.08-.99-2.79-.83-3.67.34l-22.08,29.33c-.83,1.1-.58,2.65.55,3.44l.04.03c1.09.76,2.6.53,3.41-.52h0Z"/>
        <path class="cls-38" d="M186.24,529.98c-2.37,19.96-11.95,38.52-27.04,52.08-14.9,13.38-34.37,20.95-54.45,21.55-20.53.62-40.81-6.72-56.41-19.73-15.19-12.68-25.26-30.77-28.37-50.13-3.22-20.07,1.48-41.07,12.75-58.08,10.85-16.39,27.69-28.7,46.72-34.22,19.86-5.76,41.44-3.88,60.07,4.86,17.94,8.42,32.27,23.41,40.28,41.27,5.95,13.27,8.05,27.98,6.45,42.39-.32,2.85,4.16,3.34,4.48.49,2.23-20.02-2.58-40.05-13.53-56.99-10.69-16.54-27.29-29.1-46.12-35.32-19.53-6.45-41.04-5.8-60.25,1.54-18.46,7.05-34.24,20.51-44.23,37.34-10.44,17.58-14.24,38.55-10.88,58.61,3.25,19.38,13.45,37.13,28.15,50.27,15.11,13.51,35.03,21.24,55.37,22.08,20.17.83,40.16-5.44,56.38-17.28,19.59-14.29,32.28-36.46,35.11-60.24.34-2.85-4.14-3.34-4.48-.49h0Z"/>
        <path class="cls-1" d="M1172.92,465.42c-16.38,0-30.54,9.64-37.14,23.55l-88.73-12.04c-.7-16.12-7.87-30.58-18.97-40.84l50.16-72.54c5.87,2.5,12.33,3.88,19.11,3.88,27,0,48.97-21.98,48.97-49s-21.97-49-48.97-49-48.98,21.98-48.98,49c0,11.56,4.03,22.2,10.75,30.59l-51.63,74.66c-6.1-2.14-12.65-3.31-19.49-3.31-32.59,0-59.11,26.53-59.11,59.14s26.52,59.14,59.11,59.14c24.88,0,46.22-15.46,54.92-37.27l89.52,12.14c3.35,19.33,20.22,34.08,40.48,34.08,22.65,0,41.08-18.44,41.08-41.1s-18.43-41.1-41.08-41.1h0Z"/>
        <path class="cls-22" d="M585.89,485.23l42.68,86.53c.47.95,1.38,1.61,2.43,1.76l95.44,13.88c2.64.38,3.7,3.63,1.79,5.5l-69.06,67.35c-.76.74-1.11,1.81-.93,2.85l16.31,95.1c.45,2.63-2.31,4.64-4.68,3.4l-85.36-44.9c-.94-.49-2.06-.49-3,0l-85.36,44.9c-2.36,1.24-5.13-.76-4.67-3.4l16.3-95.1c.18-1.05-.17-2.11-.93-2.85l-69.06-67.35c-1.91-1.86-.86-5.11,1.78-5.5l95.44-13.88c1.05-.15,1.96-.81,2.42-1.76l42.68-86.53c1.18-2.4,4.6-2.4,5.78,0h0Z"/>
        <path class="cls-17" d="M443.05,107.94h44.19c-1.59,14.29-3.18,28.59-4.78,42.89-14.72,0-29.44.02-44.16.03,1.58-14.3,3.17-28.61,4.75-42.92h0ZM597.91,74.19c.16-1.39-1.28-2.55-2.55-2.55-22.51.02-45.02.03-67.53.05,2.5-22.61,5-45.23,7.51-67.84.15-1.37-1.27-2.57-2.55-2.55-10.49.18-20.98.37-31.46.55-1.51.03-2.4,1.15-2.55,2.55-2.5,22.44-5,44.88-7.5,67.31-14.74,0-29.48.02-44.22.03,2.55-23.06,5.11-46.12,7.66-69.18.15-1.37-1.28-2.57-2.55-2.55-10.49.18-20.98.37-31.46.55-1.51.03-2.4,1.15-2.55,2.55-2.55,22.89-5.1,45.77-7.64,68.66-22.22.01-44.44.03-66.67.05-1.53,0-2.37,1.17-2.55,2.55-1.39,10.34-2.77,20.69-4.16,31.03-.19,1.38,1.3,2.55,2.55,2.55h66.8c-1.59,14.31-3.19,28.63-4.78,42.94-22.48.02-44.95.03-67.43.05-1.53,0-2.37,1.17-2.55,2.55-1.39,10.34-2.77,20.69-4.16,31.03-.19,1.38,1.3,2.55,2.55,2.55h67.56c-2.51,22.56-5.03,45.12-7.54,67.68-.15,1.39,1.28,2.55,2.55,2.55,10.52.04,21.04.08,31.56.11,1.51,0,2.4-1.17,2.55-2.55,2.5-22.6,5-45.2,7.5-67.79h44.14c-2.56,22.99-5.12,45.98-7.68,68.97-.16,1.39,1.28,2.55,2.55,2.55,10.52.04,21.04.08,31.56.11,1.51,0,2.4-1.17,2.55-2.55,2.55-23.03,5.1-46.05,7.65-69.08h67.21c1.51,0,2.4-1.17,2.55-2.55,1.17-10.4,2.35-20.8,3.52-31.2.16-1.39-1.28-2.55-2.55-2.55-22.24.02-44.48.03-66.71.05,1.58-14.29,3.16-28.57,4.74-42.86h68.02c1.34,0,2.13-.85,2.37-1.86.08-.21.15-.44.18-.69,1.17-10.4,2.35-20.8,3.52-31.2h0Z"/>
        <polygon class="cls-2" points="652.07 575.24 642.26 577.66 634.7 572.92 632.89 574.01 634.14 576.3 626.75 574.17 621.02 576.66 619.29 584.79 623.04 592.52 631.29 593.39 640.31 589.36 653.89 586.64 652.07 575.24 652.07 575.24"/>
        <path class="cls-36" d="M641.62,574.67c11.22-1.22,21.16-5.18,32.44-6.46,2.02-.23,4.12-.4,6.05.24,4.1,1.36,6.2,5.88,7.18,10.09,3.99,17.13-14.94,13.1-25.34,12.37-1.45-.1-21.01-1.55-21.03-1.1l.71-15.13h0Z"/>
        <polygon class="cls-2" points="507.92 584.04 513.47 592.49 522.23 594.17 522.81 596.21 520.34 597.03 527.21 600.5 529.7 606.23 525.44 613.37 517.43 616.47 510.8 611.48 506.93 602.4 498.84 591.15 507.92 584.04 507.92 584.04"/>
        <path class="cls-36" d="M515.97,590.75c-7.38-8.53-11.97-18.21-19.36-26.82-1.33-1.55-2.74-3.1-4.6-3.95-3.93-1.79-8.54.09-12.12,2.5-14.58,9.83,2.03,19.77,10.14,26.32,1.13.91,16.44,13.18,16.16,13.52l9.78-11.57h0Z"/>
        <path class="cls-2" d="M991.05,509.5c4.84-1.67,14.5-11.21,14.84-16.72.76-12.73-11.95-1.72-17.2,1.1-.44-2.14-.78-4.22-1.6-6.19-.75-1.81-13.65,11.33-14.22,13.79-1.36,5.9,1.93,7.9,5.02,12.61,4.33-1.63,8.77-3.08,13.16-4.59h0Z"/>
        <path class="cls-21" d="M848.48,558.98c12.56,16.18,31.03,30.26,41.93,40.42,3.72,3.46,7.93,7.12,13.01,7.22,4.79.1,8.99-3.01,12.75-5.97,33.07-25.93,53.69-57.36,79.16-90.24l-22.61-3.94-63.02,48.84c-11.67-4.59-14.36-22.21-18.55-32.66-2.19-5.45-4.42-10.99-8.17-15.51-5.61-6.77-14.58-10.69-23.35-9.94-8.76.75-17.03,6.25-20.88,14.16-8.14,16.71-1.62,33.02,9.71,47.62h0Z"/>
        <path class="cls-6" d="M885.08,420.59c8.07,4.28,16.3,14.95,15.5,24.65-.38,4.67-3.07,8.23-3.29,13.24-.45,9.88-15.73,19.81-6.83,29.6,4.57,5.04,11.91,6.21,18.65,7.08.82.11,1.68.21,2.45-.09,1.27-.49,1.92-1.96,1.93-3.32,0-1.36-.47-2.66-.85-3.97-3.92-13.66,3.03-29.25,4.19-43.02,1.15-13.74-1.68-28.69-12.7-37.98-7.63,2.09-14.18,5.73-18.1,12.6l-.94,1.21h0Z"/>
        <path class="cls-2" d="M890.29,485.32c8.35-3.27,14.79-11.56,17.81-20.37,3.02-8.81,3.04-18.11,2.02-26.92-3.38-29.31-38.84-22.28-50.49,2.24-10.16,21.37,6.37,54.55,30.66,45.04h0Z"/>
        <path class="cls-6" d="M868.41,485.77c-6.1-13.9-2.8-42.97,8.55-52.98,3.94-3.47,8.45-4.11,13.46-4.14,3.44-.03,3.56,1.28,6.48-.54,2.24-1.4,4.19-5.6,4.72-8.07.91-4.16-.73-8.57-3.45-11.84-15.95-19.17-38.49-2.78-50.6,11.86-9.99,12.07-18.32,25.92-22.15,41.24-3.57,14.32-4.76,35.37-3.25,50.01,1.43,13.87,9.43,27.31,6.54,40.94-2.62,12.39-13.42,21.03-22.79,29.56-9.37,8.53-18.59,19.95-16.45,32.44,1.31,7.71,6.99,14.22,13.88,17.91,6.9,3.69,14.89,4.85,22.71,4.84,6.27,0,12.62-.72,18.73.62,6.11,1.34,12.17,5.33,13.71,11.39.86,3.35.58,7.56,3.47,9.45,1.35.89,3.07.96,4.69,1.01,4.95.14,10.57.01,13.9-3.66,5.15-5.69,2.14-17.1,9.09-20.33,2.04-.95,4.39-.8,6.61-1.18,11.36-1.92,15.72-17.05,11.83-27.9-3.88-10.85-12.9-18.91-19.72-28.2-13.32-18.14-22.33-42.37-14.13-63.84,1.19-3.13,2.62-6.28,2.69-9.63.12-6.4-4.64-11.67-7.72-17.29-.29-.52-.56-1.08-.81-1.66h0Z"/>
        <polygon class="cls-23" points="195.35 611.21 177.62 607.56 178.84 599.91 191.54 599.72 190.44 595.83 205.24 600.81 205.04 608.93 195.35 611.21 195.35 611.21"/>
        <path class="cls-18" d="M323.51,537c-7.54,4.94-12.81,14.65-19.16,23.86-7.46,10.81-14.92,21.62-22.38,32.42l-81.18,4.16.42,16.14,96.93,16.34c13.04-12.04,26.08-24.08,39.12-36.12,7.19-6.64,17.12-13.31,22.92-21.23,8.53-11.65-.16-29.98-12.73-35.65-10.54-4.75-17.96-3.84-23.94.07h0Z"/>
        <polygon class="cls-37" points="699.84 291.63 708.77 271.43 716.55 274.51 713.13 289.57 717.58 289.09 708.08 305.53 699.5 303.57 699.84 291.63 699.84 291.63"/>
        <polygon class="cls-19" points="749.25 407.54 696.4 387.48 712.92 300.99 695.65 298.06 650.67 409.22 717.35 487.77 749.25 407.54 749.25 407.54"/>
      </g>
      <g>
        <rect class="cls-18" x="2063.59" y="129.45" width="760.81" height="477.89"/>
        <g>
          <g>
            <polyline class="cls-15" points="2035.15 122.73 2035.15 626.66 2831.35 626.66"/>
            <g>
              <rect class="cls-12" x="2063.59" y="129.45" width="760.81" height="477.89"/>
              <line class="cls-12" x1="2063.59" y1="527.7" x2="2824.39" y2="527.7"/>
              <line class="cls-12" x1="2063.59" y1="448.05" x2="2824.39" y2="448.05"/>
              <line class="cls-12" x1="2063.59" y1="368.4" x2="2824.39" y2="368.4"/>
              <line class="cls-12" x1="2063.59" y1="288.75" x2="2824.39" y2="288.75"/>
              <line class="cls-12" x1="2063.59" y1="209.1" x2="2824.39" y2="209.1"/>
              <line class="cls-12" x1="2697.59" y1="129.45" x2="2697.59" y2="607.35"/>
              <line class="cls-12" x1="2570.79" y1="129.45" x2="2570.79" y2="607.35"/>
              <line class="cls-12" x1="2443.99" y1="129.45" x2="2443.99" y2="607.35"/>
              <line class="cls-12" x1="2317.19" y1="129.45" x2="2317.19" y2="607.35"/>
              <line class="cls-12" x1="2190.39" y1="129.45" x2="2190.39" y2="607.35"/>
            </g>
          </g>
          <g>
            <polyline class="cls-11" points="2063.64 486.3 2191.01 367.78 2247.61 424.39 2316.6 367.78 2353.74 396.09 2444.84 289.07 2482.87 324.45 2609.35 243.08 2696.91 343.02 2752.49 288.83"/>
            <polygon class="cls-22" points="2803.05 239.54 2760.19 338.1 2748.71 292.51 2703.44 279.89 2803.05 239.54"/>
          </g>
        </g>
      </g>
      <g>
        <rect class="cls-18" x="4143.85" y="129.45" width="760.81" height="477.89" transform="translate(9048.5 736.8) rotate(-180)"/>
        <g>
          <g>
            <polyline class="cls-15" points="4933.1 122.73 4933.1 626.66 4136.89 626.66"/>
            <g>
              <rect class="cls-12" x="4143.85" y="129.45" width="760.81" height="477.89"/>
              <line class="cls-12" x1="4904.66" y1="527.7" x2="4143.85" y2="527.7"/>
              <line class="cls-12" x1="4904.66" y1="448.05" x2="4143.85" y2="448.05"/>
              <line class="cls-12" x1="4904.66" y1="368.4" x2="4143.85" y2="368.4"/>
              <line class="cls-12" x1="4904.66" y1="288.75" x2="4143.85" y2="288.75"/>
              <line class="cls-12" x1="4904.66" y1="209.1" x2="4143.85" y2="209.1"/>
              <line class="cls-12" x1="4270.65" y1="129.45" x2="4270.65" y2="607.35"/>
              <line class="cls-12" x1="4397.45" y1="129.45" x2="4397.45" y2="607.35"/>
              <line class="cls-12" x1="4524.25" y1="129.45" x2="4524.25" y2="607.35"/>
              <line class="cls-12" x1="4651.05" y1="129.45" x2="4651.05" y2="607.35"/>
              <line class="cls-12" x1="4777.85" y1="129.45" x2="4777.85" y2="607.35"/>
            </g>
          </g>
          <g>
            <polyline class="cls-11" points="4904.6 486.3 4777.24 367.78 4720.63 424.39 4651.65 367.78 4614.5 396.09 4523.4 289.07 4485.37 324.45 4358.89 243.08 4271.33 343.02 4215.75 288.83"/>
            <polygon class="cls-22" points="4165.2 239.54 4264.81 279.88 4219.53 292.51 4208.06 338.09 4165.2 239.54"/>
          </g>
        </g>
      </g>
      <g>
        <g>
          <path class="cls-22" d="M1885.35,326.69s-52.6,5.84-91.56,95.45c-30.68,70.56-50.49,166.48-57.52,204.08-4.41,23.55,6.59,47.9,28.07,58.53,22.1,10.93,59.97,15.8,124.91.38l15.58-89.61-64.28-1.95,31.17-89.61s79.87-128.57,13.64-177.27Z"/>
          <path class="cls-34" d="M1764.34,684.74c22.1,10.93,59.97,15.8,124.91.38l15.58-89.61-64.28-1.95s-38.72,19.56-99.39,7.91c-2.01,9.73-3.64,18.15-4.88,24.74-4.41,23.55,6.59,47.9,28.07,58.52Z"/>
          <path class="cls-30" d="M1841.52,577.04c-4.45-1.25-9.19-.61-13.77.06-26.45,3.86-53.36,8.19-79.76,3.99-4.85-.77-10.11-1.77-14.44.56-4.33,2.32-5.87,9.67-1.47,11.86-4.68-.74-7.42,6.2-4.84,10.18,2.57,3.98,7.73,5.28,12.43,5.91,5.14.69,10.33.97,15.51,1.23,23.09,1.16,46.76,1.78,69.35-3.9,6.99-1.76,19.12-3.94,23.64-10.38,4.97-7.07,1.68-17.16-6.65-19.51Z"/>
          <path class="cls-9" d="M1741.9,587.37c20.2,2.39,40.71,2.18,60.86-.62"/>
          <path class="cls-9" d="M1766.17,597.58c23.48-.58,46.87-4.44,69.29-11.42"/>
        </g>
        <g>
          <path class="cls-33" d="M1845.2,764.99s-70.86,118.83-65.12,229.87l13.49,495.9h140.6l33.6-501.74,135.13,502.35h126.54l-98.88-724.42-285.36-1.95Z"/>
          <path class="cls-14" d="M1874.77,953.28s63.37,55.06,192.19,31.17"/>
          <path class="cls-14" d="M2009.08,860.4l78.71,3.55s7.69,81.08-40.24,82.86c-47.94,1.78-38.47-86.41-38.47-86.41Z"/>
          <path class="cls-14" d="M1836.91,840.62l56.26,9.23s-2.43,77.36-37.08,75.46c-34.65-1.89-19.18-84.7-19.18-84.7Z"/>
          <path class="cls-14" d="M1834.97,848.5s30.83,11.81,57.73,11.15"/>
          <path class="cls-14" d="M2007.5,870.14s46.58,7.22,80.69,5.25"/>
          <line class="cls-14" x1="2115.74" y1="798.64" x2="2213.97" y2="1484.03"/>
          <line class="cls-14" x1="1951.08" y1="985.6" x2="1917.19" y2="1483.02"/>
        </g>
        <g>
          <path class="cls-22" d="M2038.03,322.11c-42.85-10.12-90.8-17.17-134.54-8.33-22.15,4.47-43.88,15.19-57.16,33.48-43.04,59.24,2.5,162.19,11.49,225.82,8.84,62.6,7.99,129.73-23.1,184.78-6.26,11.08-13.7,24.99-6.47,35.45,4.77,6.89,13.97,8.79,22.26,10.02,89.26,13.29,180.3,14.55,269.89,3.73,4.23-.51,8.92-1.3,11.5-4.69,2.02-2.64,2.21-6.2,2.29-9.52,2.18-97.5-30.49-194.89-16.21-291.37,3.5-23.61,9.78-46.84,11.44-70.65,1.66-23.81-1.84-49.06-16.02-68.26-17.3-23.44-47.03-33.75-75.38-40.45Z"/>
          <path class="cls-9" d="M1851.97,723.25s30.04-110.91-16.17-263.41"/>
          <path class="cls-9" d="M1829.78,472.31c7.49,18.53,12.96,37.88,16.28,57.59"/>
          <path class="cls-9" d="M2104.92,773.62c-55.63,12.78-113.23,16.93-170.12,12.26"/>
          <path class="cls-9" d="M2009.36,777.8c-31.81,1.29-63.69.83-95.46-1.36"/>
        </g>
        <path class="cls-34" d="M2139.11,193.11c-7.88,3.61-16.69,5.15-25.32,4.43,1.2,14.46,2.41,29.01,1.17,43.47-1.06,12.38-4.15,25.07-12.03,34.68-8.01,9.77-20.23,15.34-32.64,17.7-12.41,2.36-25.16,1.8-37.78,1.24-22.83-1.02-46.35-2.2-67.01-11.98-18.59-8.8-33.83-24.49-42.08-43.34-5.98-13.66-8.31-28.6-10.39-43.36-2.95-21.06-5.48-42.58-1.51-63.47,4.16-21.91,15.34-42.02,29.4-59.33,17.9-22.03,41.42-40.42,68.86-47.69,25.18-6.67,52.86-3.4,75.79,8.96,25.41,13.69,23.94,43.55,29.17,68.46,1.62,7.7,23.94,90.42,24.36,90.23Z"/>
        <path class="cls-32" d="M2141.29,72.56c.51,7.33-1.92,14.6-5.47,21.03-14.91,27.04-51.77,39.41-79.97,26.83,2.42,5.76,4.88,11.7,4.99,17.95.11,6.25-2.68,12.97-8.31,15.69-6.51,3.14-14.12.14-21.29-.73-13.91-1.68-28.82,6.27-33.98,19.29-5.16,13.03,1.07,29.85,13.98,35.28,11.31,4.75,26.57,1.72,34.22,11.32,2.39,3,3.54,6.81,4.05,10.61,1.54,11.54-2.95,20.63-10.76,28.42-1.31,1.3-24.39,18.57-25.18,12.28,1.57,12.5,13.38,22.42,13.16,35.01-.15,8.3-5.78,15.73-12.79,20.18-7,4.45-15.26,6.43-23.37,8.18-2.59.56-5.29,1.15-7.4,2.75-3.78,2.86-4.72,8.18-4.46,12.92.26,4.74,1.41,9.5.62,14.18-2.06,12.18-15.56,18.29-27.23,22.34-6.54,2.27-13.58,4.56-20.25,2.7-5.76-1.61-11.59-6.22-17.03-3.73-2.25,1.03-3.81,3.1-5.76,4.63-8.46,6.63-20.7,1.48-30.07-3.79-9.37-5.27-21.64-10.39-30.07-3.71-6.11,4.85-7.1,13.91-12.38,19.65-4.06,4.4-10.23,6.32-16.21,6.64-10.26.55-20.47-3.59-27.99-10.5-8.17-7.5-7.81-14.18-10.98-23.5-5.52-16.23-28.66-25.48-25.44-45.07,2.86-17.42,28.53-27.45,24.94-44.73-1.73-8.36-9.98-13.62-14.07-21.12-3.95-7.24-3.57-16.63.94-23.53,7.19-11,22.75-14.53,29.12-26.02,10.14-18.29-9.18-44.11,3.2-60.98,6.57-8.95,18.95-10.6,29.81-12.85,10.87-2.25,23.26-7.8,24.91-18.77,1.42-9.41-5.94-19.52-1.65-28.01,6.74-13.34,31.33-4.41,39.55-16.89,3.27-4.97,2.45-11.47,3.51-17.32,1.96-10.89,11.54-23.39,19.21-31.11,10.49-10.55,26.01-16.61,40.6-13.67,7.64,1.54,14.79,5.4,22.57,5.84,3.59.21,7.18-.33,10.74-.86,6.65-1,13.4-2.03,19.5-4.84,3.9-1.8,7.43-4.29,11.18-6.38,8.13-4.53,16.31-5.79,25.23-7.69,7.88-1.68,15.8,1.47,22.45,5.88,10.76,7.14,14.31,20.8,24.52,27.61,8.18,5.46,19.26,4.12,28.21,9.36,10.62,6.21,20.01,16.43,20.9,29.26Z"/>
        <path class="cls-16" d="M2099.78,158.82c.32,4.94-1.6,9.09-4.28,9.26-2.68.17-5.1-3.7-5.42-8.64-.32-4.94,1.6-9.09,4.28-9.26,2.68-.17,5.1,3.7,5.42,8.64Z"/>
        <g>
          <path class="cls-22" d="M2086.03,490.27s-52.45-106.25-4.03-135.83c48.42-29.59,161.39,197.7,161.39,197.7l164.08-134.49s33.62,8.07,37.66,51.11c0,0-138.52,169.46-154.66,185.59-16.14,16.14-69.93,45.73-111.63-8.07-41.69-53.8-92.8-156.01-92.8-156.01Z"/>
          <path class="cls-34" d="M2290.46,654.34c16.14-16.14,154.66-185.6,154.66-185.6-4.03-43.04-37.66-51.11-37.66-51.11l-164.08,134.49s-38.03,50.41-87.26,61.82c7.64,11.73,15.32,22.8,22.71,32.33,41.69,53.8,95.49,24.21,111.63,8.07Z"/>
          <path class="cls-30" d="M2236.31,534.73c-1.12-3.58-5.79-4.96-9.37-3.85-3.58,1.11-6.32,3.94-8.97,6.6-18.71,18.78-41.11,33.86-65.54,44.14-5.54,2.33-11.46,4.61-15.24,9.28-3.78,4.67-4.26,12.64.71,16.03,1.44.98,3.35,1.68,3.83,3.35.48,1.64-.73,3.31-.74,5.03,0,2.34,2.3,4.15,4.62,4.43,2.32.28,4.61-.56,6.79-1.39,18.43-6.99,36.99-14.05,53.73-24.44,14.96-9.28,27.98-21.62,37.89-36.2,3.34-4.91,6.57-10.01,5.94-16.38-.58-5.86-8.95-15.77-13.67-6.61Z"/>
          <path class="cls-9" d="M2113.25,542.04l-72.97-101.64s-22.59-34.75,5.21-59.94"/>
          <path class="cls-9" d="M2050.68,469.09c12.01,14.75,21.47,31.57,27.86,49.48"/>
          <path class="cls-9" d="M2154.98,595.96c13.82-7.15,27.41-14.72,40.76-22.71"/>
          <path class="cls-9" d="M2173.23,597.7c17.23-8.72,33.55-19.25,48.59-31.37"/>
          <g>
            <path class="cls-34" d="M2405.12,379.57c2.1-5.77,7.36-9.7,12.35-13.28,5.57-4,11.14-8,16.7-12,15.74-11.31,31.8-22.77,50.17-28.93,3.33-1.12,7.25-1.98,10.14.02,3.56,2.46,3.38,8.09.86,11.61-2.51,3.52-6.59,5.49-10.39,7.55-3.8,2.06-7.72,4.58-9.39,8.56-2.96,7.03,2.21,14.53,6.02,21.14,5.08,8.82,8.06,18.84,8.62,29,.5,9.19-1.35,19.24-8.16,25.43-6.95,6.32-17.48,7.29-24.63,13.38-5.66,4.82-8.42,12.2-10.27,19.4-.94,3.68-1.87,7.68-4.78,10.11-3.02,2.52-7.54,2.61-11.18,1.11-3.64-1.5-6.55-4.34-9.14-7.31-10.08-11.58-17.61-27.3-18.62-42.78-.36-5.56.51-11.18.52-16.75.02-8.28-1.72-18.34,1.17-26.26Z"/>
            <path class="cls-9" d="M2477.44,350.11c-8.97,9.95-18.3,19.58-27.96,28.87"/>
            <path class="cls-9" d="M2480.3,374.7c-6.02,5.93-12.8,11.09-20.11,15.32"/>
            <path class="cls-9" d="M2486.07,390.4c-4.78,5.17-10.43,9.53-16.63,12.86"/>
            <path class="cls-9" d="M2489.05,416.07c-6.29,3.19-12.71,6.09-19.25,8.71"/>
            <path class="cls-9" d="M2472.37,416.7c-2.04,8.3-6.44,16.02-12.54,22.01"/>
          </g>
        </g>
        <g>
          <path class="cls-18" d="M1777.62,535.22c1.84,3.68,3.68,7.36,5.52,11.03,2.56,5.12,10.23.62,7.68-4.49-1.84-3.68-3.68-7.36-5.52-11.03-2.56-5.12-10.23-.62-7.68,4.49h0Z"/>
          <path class="cls-18" d="M1809.21,521.02c-.05,3.73.82,7.17,2.4,10.53,1.03,2.17,4.14,2.73,6.08,1.59,2.22-1.3,2.62-3.9,1.59-6.08-.91-1.91-1.22-3.94-1.19-6.04.08-5.72-8.81-5.72-8.89,0h0Z"/>
          <path class="cls-18" d="M1815.92,445.85c2.47-1.5,4.94-3.01,7.41-4.51,4.88-2.97.42-10.66-4.49-7.68-2.47,1.5-4.94,3.01-7.41,4.51-4.88,2.97-.42,10.67,4.49,7.68h0Z"/>
          <path class="cls-18" d="M1879.43,439.35c3.98,2.45,7.97,4.9,11.95,7.36,4.89,3.01,9.36-4.68,4.49-7.68-3.98-2.45-7.97-4.9-11.95-7.36-4.89-3.01-9.36,4.68-4.49,7.68h0Z"/>
          <path class="cls-18" d="M1875.83,486.42c3.69,4.59,7.38,9.18,11.06,13.77,1.51,1.87,4.72,1.57,6.29,0,1.85-1.85,1.51-4.41,0-6.29-3.69-4.59-7.38-9.18-11.06-13.77-1.51-1.87-4.72-1.57-6.29,0-1.85,1.85-1.51,4.41,0,6.29h0Z"/>
          <path class="cls-18" d="M1934.41,508.81c-3.1,7.96-6.19,15.91-9.29,23.87-2.08,5.33,6.52,7.65,8.57,2.36,3.1-7.96,6.19-15.91,9.29-23.87,2.08-5.33-6.52-7.65-8.57-2.36h0Z"/>
          <path class="cls-18" d="M1879.46,562.78c6.15,6.11,12.3,12.21,18.46,18.32,4.06,4.03,10.35-2.25,6.29-6.29-6.15-6.11-12.3-12.21-18.46-18.32-4.06-4.04-10.35,2.25-6.29,6.29h0Z"/>
          <path class="cls-18" d="M1936.62,594.14c-2.76,5.21-5.53,10.42-8.29,15.62-2.68,5.05,4.99,9.55,7.68,4.49,2.76-5.21,5.53-10.42,8.29-15.62,2.68-5.05-4.99-9.55-7.68-4.49h0Z"/>
          <path class="cls-18" d="M1891.2,634.78c-2.84,6.85-5.01,13.87-6.52,21.13-1.17,5.58,7.4,7.97,8.57,2.36,1.52-7.26,3.68-14.28,6.52-21.13,2.19-5.28-6.41-7.58-8.57-2.36h0Z"/>
          <path class="cls-18" d="M1875.21,711.65c4.26,5.54,8.53,11.07,12.79,16.61,1.48,1.92,3.81,2.89,6.08,1.59,1.88-1.07,3.06-4.18,1.59-6.08-4.26-5.54-8.53-11.07-12.79-16.61-1.48-1.92-3.81-2.89-6.08-1.59-1.88,1.07-3.06,4.18-1.59,6.08h0Z"/>
          <path class="cls-18" d="M1866.5,767.89c-1.84,1.84-3.67,3.68-5.51,5.52-4.05,4.06,2.24,10.34,6.29,6.29,1.84-1.84,3.67-3.68,5.51-5.52,4.05-4.06-2.24-10.34-6.29-6.29h0Z"/>
          <path class="cls-18" d="M1924.5,736.57c5.9,5.12,11.8,10.24,17.7,15.36,4.3,3.73,10.62-2.53,6.29-6.29-5.9-5.12-11.8-10.24-17.7-15.36-4.3-3.73-10.62,2.53-6.29,6.29h0Z"/>
          <path class="cls-18" d="M2018.21,746.53c2.45-1.53,4.91-3.06,7.36-4.58,4.85-3.02.39-10.71-4.49-7.68-2.45,1.53-4.91,3.06-7.36,4.58-4.85,3.02-.39,10.71,4.49,7.68h0Z"/>
          <path class="cls-18" d="M1969.02,692.8c7.66-.31,15.32-.61,22.99-.92,5.7-.23,5.73-9.12,0-8.89-7.66.31-15.32.61-22.99.92-5.7.23-5.73,9.12,0,8.89h0Z"/>
          <path class="cls-18" d="M1979.68,635.4c6.38,5.07,13.06,9.63,20.2,13.58,5.01,2.77,9.5-4.9,4.49-7.68-6.45-3.57-12.62-7.6-18.4-12.19-4.43-3.53-10.76,2.72-6.29,6.29h0Z"/>
          <path class="cls-18" d="M2070.54,621.92c-2.28,6.26-3.88,12.66-4.82,19.26-.79,5.6,7.77,8.01,8.57,2.36.94-6.6,2.54-13,4.82-19.26,1.96-5.38-6.63-7.71-8.57-2.36h0Z"/>
          <path class="cls-18" d="M2056.01,701.33c5.51,3.99,11.02,7.99,16.53,11.98,4.64,3.36,9.08-4.35,4.49-7.68-5.51-3.99-11.02-7.99-16.53-11.98-4.64-3.36-9.08,4.35-4.49,7.68h0Z"/>
          <path class="cls-18" d="M2117.56,733.93c-5.88,7.02-11.31,14.38-16.25,22.1-3.09,4.83,4.6,9.3,7.68,4.49,4.53-7.08,9.47-13.85,14.86-20.3,3.65-4.36-2.61-10.68-6.29-6.29h0Z"/>
          <path class="cls-18" d="M2028.52,798.41c4.24,1.42,8.14,3.42,11.85,5.92,4.76,3.21,9.21-4.49,4.49-7.68-4.33-2.92-9.03-5.16-13.98-6.81-5.44-1.82-7.77,6.76-2.36,8.57h0Z"/>
          <path class="cls-18" d="M2005.42,582.09c3.06,2.76,6.13,5.52,9.19,8.28,4.24,3.82,10.55-2.45,6.29-6.29-3.06-2.76-6.13-5.52-9.19-8.28-4.24-3.82-10.55,2.45-6.29,6.29h0Z"/>
          <path class="cls-18" d="M2079.23,554.66c-2.76,3.98-5.52,7.97-8.28,11.95-1.37,1.97-.36,4.94,1.59,6.08,2.21,1.29,4.71.38,6.08-1.59,2.76-3.98,5.52-7.97,8.28-11.95,1.37-1.97.36-4.94-1.59-6.08-2.21-1.29-4.71-.38-6.08,1.59h0Z"/>
          <path class="cls-18" d="M2009.84,527.86c5.26,3.29,10.52,6.58,15.78,9.87,4.86,3.04,9.33-4.65,4.49-7.68-5.26-3.29-10.52-6.58-15.78-9.87-4.86-3.04-9.33,4.65-4.49,7.68h0Z"/>
          <path class="cls-18" d="M1989.09,453.5c-2.25,4.9-5.01,9.5-8.27,13.79-1.45,1.91-.3,4.97,1.59,6.08,2.28,1.34,4.62.32,6.08-1.59,3.27-4.29,6.02-8.89,8.28-13.79,1-2.18.62-4.79-1.59-6.08-1.91-1.12-5.07-.6-6.08,1.59h0Z"/>
          <path class="cls-18" d="M1941.96,459.58c2.15,1.23,4.29,2.45,6.44,3.68,4.98,2.84,9.46-4.84,4.49-7.68-2.15-1.23-4.29-2.45-6.44-3.68-4.98-2.84-9.46,4.84-4.49,7.68h0Z"/>
          <path class="cls-18" d="M1953.96,406.19c2.45,1.84,4.91,3.67,7.36,5.51,1.92,1.44,4.97.31,6.08-1.59,1.33-2.27.33-4.64-1.59-6.08-2.45-1.84-4.91-3.67-7.36-5.51-1.92-1.44-4.97-.31-6.08,1.59-1.33,2.27-.33,4.64,1.59,6.08h0Z"/>
          <path class="cls-18" d="M1866.78,401.99c-1.84,2.76-3.68,5.52-5.52,8.27-1.33,2-.39,4.92,1.59,6.08,2.18,1.28,4.75.41,6.08-1.59,1.84-2.76,3.68-5.52,5.52-8.27,1.33-2,.39-4.92-1.59-6.08-2.18-1.28-4.75-.41-6.08,1.59h0Z"/>
          <path class="cls-18" d="M2000.79,358.47c5.26,2.66,10.52,5.32,15.78,7.97,5.09,2.57,9.6-5.09,4.49-7.68-5.26-2.66-10.52-5.32-15.78-7.97-5.09-2.57-9.6,5.09-4.49,7.68h0Z"/>
          <path class="cls-18" d="M2060.5,353.23c1.22,1.23,2.44,2.46,3.66,3.7,4.03,4.07,10.32-2.21,6.29-6.29-1.22-1.23-2.44-2.46-3.66-3.7-4.03-4.07-10.32,2.22-6.29,6.29h0Z"/>
          <path class="cls-18" d="M2058.95,414.79c2.95,4.56,6.55,8.35,10.84,11.66,1.9,1.47,4.98.29,6.08-1.59,1.34-2.3.31-4.61-1.59-6.08-3.02-2.33-5.59-5.27-7.65-8.47-3.09-4.79-10.79-.34-7.68,4.49h0Z"/>
          <path class="cls-18" d="M2119.2,418.7c-.61,1.84-1.23,3.68-1.84,5.52-1.81,5.44,6.77,7.77,8.57,2.36.61-1.84,1.23-3.68,1.84-5.52,1.81-5.44-6.77-7.77-8.57-2.36h0Z"/>
          <path class="cls-18" d="M2095.3,473.47c.31,1.53.61,3.06.92,4.6.47,2.36,3.27,3.71,5.47,3.1,2.45-.67,3.58-3.11,3.1-5.47-.31-1.53-.61-3.06-.92-4.6-.47-2.36-3.27-3.71-5.47-3.1-2.45.67-3.58,3.11-3.1,5.47h0Z"/>
          <path class="cls-18" d="M2159.82,461.69c2.14,2.76,4.29,5.52,6.43,8.28,1.47,1.9,4.74,1.55,6.29,0,1.87-1.87,1.48-4.38,0-6.29-2.14-2.76-4.29-5.52-6.43-8.28-1.47-1.9-4.74-1.55-6.29,0-1.87,1.87-1.48,4.38,0,6.29h0Z"/>
          <path class="cls-18" d="M2144.79,494.36c-.31,6.44-.61,12.87-.92,19.31-.27,5.72,8.62,5.7,8.89,0,.31-6.44.61-12.87.92-19.31.27-5.72-8.62-5.7-8.89,0h0Z"/>
          <path class="cls-18" d="M2200.23,518.04c-1.51,4.61-3.02,9.21-4.52,13.82-1.78,5.45,6.8,7.79,8.57,2.36,1.51-4.61,3.02-9.21,4.52-13.82,1.78-5.45-6.8-7.79-8.57-2.36h0Z"/>
          <path class="cls-18" d="M2153.58,546.42c4.58,1.59,9.15,3.19,13.73,4.78,5.41,1.88,7.74-6.7,2.36-8.57-4.58-1.59-9.15-3.19-13.73-4.78-5.41-1.88-7.74,6.7-2.36,8.57h0Z"/>
          <path class="cls-18" d="M2099.39,375.26c3.69,6.17,8.59,11.28,14.51,15.35,4.73,3.24,9.18-4.46,4.49-7.68-4.65-3.19-8.44-7.33-11.32-12.16-2.93-4.91-10.62-.44-7.68,4.49h0Z"/>
          <path class="cls-18" d="M2012.24,418.81c5.72,0,5.73-8.89,0-8.89s-5.73,8.89,0,8.89h0Z"/>
          <path class="cls-18" d="M1779.38,477.34c2.14,3.37,4.29,6.74,6.43,10.12,3.06,4.81,10.76.36,7.68-4.49-2.14-3.37-4.29-6.74-6.43-10.12-3.06-4.81-10.76-.36-7.68,4.49h0Z"/>
          <path class="cls-18" d="M1816.68,566.74c3.07-.91,6.13-1.83,9.2-2.74,5.47-1.63,3.14-10.21-2.36-8.57-3.07.91-6.13,1.82-9.2,2.74-5.47,1.63-3.14,10.21,2.36,8.57h0Z"/>
          <path class="cls-18" d="M2015.74,489.26c4.69,7.36,10.8,13.46,18.17,18.12,4.85,3.07,9.31-4.62,4.49-7.68-6.07-3.84-11.12-8.87-14.98-14.93-3.07-4.81-10.76-.36-7.68,4.49h0Z"/>
        </g>
      </g>
      <g>
        <path class="cls-29" d="M5078.87,792.26l-28.74,49.5s6.39,25.55-16.77,23.95c-23.15-1.6-51.1-68.66-51.1-68.66,0,0,32.73-44.71,70.26-46.31,37.52-1.6,26.35,41.52,26.35,41.52Z"/>
        <path class="cls-33" d="M4925.06,1217.62l61.4,273.74h126.89s-43.45-320.09-44.9-382.37c-1.45-62.28,11.59-192.64-47.8-267.95,0,0-279.54-4.35-308.51,26.07l53.59,624.25h164.56l-5.24-273.74Z"/>
        <line class="cls-13" x1="4925.06" y1="1217.62" x2="4915.95" y2="1021.44"/>
        <path class="cls-13" d="M4887.35,1023.7s41.39-.75,98.59-19.57"/>
        <line class="cls-13" x1="4729.15" y1="881.19" x2="4787.1" y2="1486.35"/>
        <line class="cls-13" x1="4919.19" y1="1083.36" x2="5004.1" y2="1486.35"/>
        <path class="cls-13" d="M4715.81,880.77s2.01,35.78,18.49,44.23"/>
        <path class="cls-13" d="M4807.01,925.69s50.88,1.25,85.92-4.59"/>
        <path class="cls-13" d="M4960.49,909.84s50.88-10.84,76.32-18.77"/>
        <path class="cls-22" d="M5025.88,368.33s101.82,52.59,183.5,176.79c0,0,60.42,70.49,16.78,123.08-43.64,52.59-146.58,137.63-146.58,137.63,0,0-35.81-31.33-35.81-58.18l99.58-116.37s-89.51-101.82-134.27-158.89c0,0-31.33-85.04,16.78-104.06Z"/>
        <path class="cls-29" d="M4774.47,96.35c-1.87,10.01-3.57,99.02-3.04,173.6.53,74.58,30.02,73.85,99.22,75.38,69.2,1.53,91.29-13.81,104.38-68.91,13.08-55.1,21.44-137.79,11.54-173.22-9.9-35.43-45.17-59.35-102.6-56.66-57.42,2.69-100.07-.63-109.5,49.8Z"/>
        <path class="cls-33" d="M5003.34,48.97c.15-2.28.09-4.86-1.54-6.46-3.09-3.03-8.44.35-10.06,4.36-1.62,4.02-1.64,8.79-4.42,12.11,2.05-8.24-1.14-17.54-7.82-22.78-1.51,4.08-3.01,8.16-4.52,12.24-2.18-13.04-8.36-25.37-17.5-34.93-5.2-5.44-11.88-10.18-19.4-10.35-7.52-.17-15.44,5.97-14.81,13.47-6.04-5.78-13.62-10.8-21.98-10.73-8.36.07-16.96,7.18-15.94,15.49-9.55-8.8-21.09-15.42-33.51-19.21-7.58-2.32-16.13-3.5-23.16.15-7.03,3.65-10.99,13.73-5.97,19.87-15.41-6.03-33.78-5.51-47.7,3.45-4.25,2.74-8.2,6.46-9.57,11.33-1.37,4.87.72,10.93,5.47,12.65-12.5-.22-23.59,12.37-21.81,24.74,1.79,12.37,15.99,21.31,27.92,17.57-5.06,2.15-5.03,10.01-1.2,13.95,3.84,3.93,9.7,4.92,15.16,5.56,13.64,1.59,27.83,2.25,40.73-2.45-.37,10.84,12.2,17.93,23.05,17.58,10.84-.34,21.03-5.31,31.8-6.62-4.34,4.93-.7,13.1,4.82,16.67,5.52,3.56,12.36,4.47,18.17,7.56-7.03,3.89-9.54,14.16-5.08,20.85,4.45,6.69,14.89,8.35,21.2,3.37-.57,7.24-8.91,12.11-9.26,19.36-.32,6.58,5.94,11.35,11.51,14.87-8.53.98-14.68,10.65-12.54,18.96,2.13,8.31,11.5,13.8,19.94,12.23-5.55,4.38-6.98,13.16-3.1,19.07,3.88,5.91,12.5,8.09,18.73,4.73-3.63,4.89-.51,12.43,4.8,15.4,5.31,2.97,11.83,2.56,17.84,1.62,1.8-.28,3.72-.67,4.97-2,1.61-1.71,1.55-4.33,1.91-6.66,2.02-12.92,19.24-21.26,17.13-34.16,7.55.59,15.29-2.85,19.9-8.85,4.61-6,5.95-14.37,3.44-21.51,14.68-8.29,17.55-31.61,5.32-43.2,10.77-6.35,20.35-16.2,22.55-28.51,2.2-12.31-5.4-26.67-17.76-28.6,2.63-9.87,2.04-21.34-4.62-29.09-6.05-7.05-12.21-5.17-20.02-5.96-4.45-.45-3.83,1.58-5.29-2.43-1.04-2.85,1.99-11.39,2.2-14.7Z"/>
        <path class="cls-29" d="M4757.56,184.33c-7.41,6.31-17.22,11.37-19.71,20.78-.97,3.67-.64,7.55-.08,11.31.79,5.3,2.21,10.85,6.07,14.57,5.25,5.06,13.35,5.31,20.65,5.19,5.15-.09,10.45-.24,15.17-2.3,9.94-4.35,14.54-15.77,16.99-26.34,3.03-13.06,4.25-26.54,3.68-39.93-.37-8.67.82-27.52-9.54-30.99-11.31-3.8-11.72,11.14-14.3,18.35-3.97,11.1-9.86,21.64-18.93,29.37Z"/>
        <path class="cls-33" d="M4791.2,237c4.03-2.3,8.6-4.19,13.2-3.56,4.6.64,8.99,4.62,8.59,9.25,7.69-3.68,18.12,3.3,17.65,11.81,5.96-4.52,15.44-3.35,20.13,2.48,3.04-5.09,6.31-10.16,10.79-14.03,4.49-3.87,10.41-6.45,16.29-5.72-2.5-9.09,5.87-19.37,15.27-18.77-1.22-5.36-2.44-10.96-1.07-16.29s6.19-10.2,11.66-9.63c-3.55-4.87-4.41-11.59-2.19-17.2,2.22-5.61,7.44-9.92,13.36-11.05,4.58-.87,10.18.72,11.78,5.09.69,1.89.52,3.99,1.03,5.94.8,3.02,3.14,5.34,4.87,7.95,1.72,2.61,2.81,6.2,1,8.75-1.15,1.63-3.31,2.53-3.93,4.43-.83,2.54,1.55,4.87,3.35,6.85,2.51,2.74,4.32,6.39,3.89,10.09-.43,3.69-3.67,7.15-7.38,6.9,2.33,3.15,4.71,6.39,5.75,10.17,1.04,3.78.46,8.27-2.45,10.89,6.68,4.63,7.27,15.81,1.11,21.11,3.22,2.79,6.25,6.24,6.9,10.45.28,1.79.14,4.84-1.1,6.33-.59.7-6.5,3.3-6.97,2.45,1.61,2.92,3.24,5.91,3.8,9.2.56,3.29-.15,6.98-2.63,9.21-.89.8-2,1.41-2.62,2.44-.54.89-.63,1.97-.96,2.96-1,3.01-4.52,4.92-7.59,4.13.55,3.85,1.09,7.82.18,11.6-.91,3.78-3.64,7.4-7.45,8.17-1.38.28-2.89.2-4.07.96-1.24.79-1.8,2.29-2.47,3.6-3.72,7.22-13.79,10.28-20.9,6.36-3.12,3.95-6.52,7.85-10.93,10.28-4.41,2.43-10.06,3.16-14.44.69-5.07,6.79-15.51,8.83-22.76,4.44-2.73,5.68-10.66,8.09-16.08,4.88-1.47,4.28-5.84,7.39-10.36,7.38-1.69,0-3.4-.4-5.04,0-2.91.7-4.66,3.57-6.91,5.55-4.66,4.12-12.38,4.17-17.09.11-5.32,3.65-13.88.25-15.25-6.06-3.26.05-6.77.03-9.44-1.85-2.67-1.88-3.64-6.39-1.02-8.32-6.69-3.71-7.21-14.84-.9-19.17-2.8-1.04-4.51-4.16-4.38-7.14s1.84-5.74,4.14-7.64c.83-.68,1.81-1.4,1.92-2.46.15-1.39-1.22-2.39-2.26-3.33-4.85-4.38-3.26-13.71,2.76-16.24-3.81-2.46-6.23-6.94-6.19-11.47.04-4.53,2.52-8.97,6.37-11.37-4.72-6.98-2.08-17.78,5.32-21.8-6.69-6.97-2.36-16.89,3.98-22.19,3.06-2.56,7.59-3.83,11.53-3.47,1.29.12,11.41,5.19,10.21,5.87Z"/>
        <path class="cls-16" d="M4806.94,162.51c-.49,4.72-3.55,8.27-6.83,7.93-3.29-.34-5.55-4.44-5.06-9.17.49-4.72,3.55-8.27,6.83-7.93,3.29.34,5.55,4.44,5.06,9.17Z"/>
        <path class="cls-32" d="M4792.76,132.47c-.21,1.63.83,3.22,2.2,4.14,1.36.92,3,1.31,4.6,1.71,3.75.92,7.52,1.95,10.86,3.88,2.19,1.27,4.16,2.9,6.36,4.15,2.88,1.64,6.09,2.58,9.27,3.52.95.28,2.16.49,2.78-.29.26-.33.35-.76.36-1.18.07-1.94-1.13-3.66-2.29-5.22-3.28-4.4-6.72-8.8-11.25-11.9-4.31-2.95-8.95-3.89-14.1-3.7-3.05.11-8.31,1.1-8.8,4.88Z"/>
        <path class="cls-29" d="M4773.01,273.73c-1.35,1.92-2.7,4.04-3.11,6.87-.4,2.83.53,6.53,2.42,7.53-1.83,3.26-1.17,9.27,1.34,12.11.22.25.47.49.73.47.42-.02.65-.65.84-1.19,1.9-5.33,6.41-7.86,10.48-5.86-.04-3.68,1.24-6.93,2.97-9.21,1.72-2.27,3.87-3.71,5.98-5.11-.61-5.33,1.71-10.6,5.06-11.49-4.19,2.29-9.5.31-13.01-4.86-.57-.83-1.15-1.8-1.9-1.99-.52-.14-1.01.13-1.49.34-2.3,1-4.73.49-7.08-.89-1.35-.79-4.11-4.15-5.54-3.56-4.03,1.67.28,13.93,2.31,16.83Z"/>
        <path class="cls-29" d="M4927.14,188.61c4.51-.19,8.92,1.39,13.01,3.29,4.77,2.22,9.45,5.04,12.59,9.26,5.06,6.79,5.25,16.57,1.28,24.05-3.97,7.48-11.62,12.66-19.87,14.58-4.62,1.08-9.57,1.2-14.04-.38-4.48-1.58-8.42-5-9.97-9.49,3.47-.03,7.36-.5,9.54-3.19,1.57-1.94,1.87-4.65,1.59-7.13-.52-4.45-2.77-8.68-6.17-11.6,10.79-3.51-5.3-18.68,12.04-19.4Z"/>
        <path class="cls-30" d="M4972.58,350.55c.41-5.65.91-12.4,1.41-18.83.87-11.43-9.78-20.3-20.86-17.4l-126.87,33.28c-8.41,2.21-13.72,10.5-12.19,19.06l1.13,6.35c1.61,8.99,10.15,15.02,19.16,13.52l124.32-20.72c7.6-1.27,13.34-7.58,13.89-15.26Z"/>
        <path class="cls-8" d="M4828.82,354.7c.15,8.46.29,16.91.44,25.37"/>
        <path class="cls-8" d="M4843.1,353.07c.43,7.9.57,15.82.41,23.73"/>
        <path class="cls-8" d="M4854.97,351.84v21.69"/>
        <path class="cls-8" d="M4867.65,349.38v16.78"/>
        <path class="cls-8" d="M4878.74,345.7c.23,10.78.47,21.55.7,32.33"/>
        <path class="cls-8" d="M4893.49,340.78c1.36,12.09,1.88,24.27,1.55,36.42"/>
        <path class="cls-8" d="M4906.92,339.97c.82,11.85.72,23.77-.32,35.61"/>
        <path class="cls-8" d="M4919.62,333.02v46.24"/>
        <path class="cls-8" d="M4935.33,327.69c.34,15.68.4,31.37.2,47.06"/>
        <path class="cls-8" d="M4950.27,327.29c.31,15.01.07,30.03-.74,45.01"/>
        <path class="cls-8" d="M4961.7,324.83c.64,17.48,0,35-1.87,52.39"/>
        <path class="cls-22" d="M4958.37,355.83s76.76-5.79,89.8,31.86c13.04,37.66,11.59,152.08,5.79,195.53,0,23.9-4.28,48.63-5.66,72.56-1.78,30.75-1.23,59.83-6.74,90.07-2.5,13.74-5,27.84-2.49,41.58,1.42,7.76,4.41,15.2,5.26,23.04,1.56,14.36-4.42,28.91-14.14,39.6-21.15,23.25-53.41,34.24-82.37,43.47-33.78,10.76-67.53,15.84-102.44,6.89-27.61-7.08-55.79-11.04-84.19-13.11-23.24-1.7-45.62,6.26-63.67-14.14-11.8-13.33-14.88-33.72-7.56-49.94,2.18-4.83,5.26-9.61,4.99-14.9-.18-3.5-1.82-6.74-3.02-10.03-8.55-23.57,5.66-48.5,16.01-71.33,7.98-17.6,13.83-36.16,17.46-55.15,10.25-53.72.21-109.67,5.86-164,5.01-48.14,20.33-105.7,70.67-124.48,85.45-31.86,117.32-28.97,156.43-27.52Z"/>
        <path class="cls-10" d="M5058.43,531.22s6-84.68-4-133.35"/>
        <path class="cls-10" d="M5149.11,629.25c12.66-7.98,26.32-14.38,40.56-19"/>
        <path class="cls-10" d="M5152.57,635.04c11.76-3.26,23.75-5.72,35.84-7.37"/>
        <path class="cls-10" d="M5053.09,739.91s16,33.34,38,53.34"/>
        <path class="cls-10" d="M4701.72,814.91c41.95,22.5,91.77,23.11,139.37,23.2"/>
        <path class="cls-10" d="M4778.35,847.13c33.55,2.67,67.4,1.51,100.69-3.44"/>
        <path class="cls-10" d="M5025.78,803.96c-22.74,11.26-46.66,20.13-71.25,26.39"/>
        <path class="cls-10" d="M5021.73,797.21c-10.13,5.29-20.86,9.42-31.92,12.29"/>
        <path class="cls-29" d="M4619.68,282.08c-.3-3.07-.52-6.41,1.18-8.99,1.8-2.74,5.23-3.82,8.39-4.68,24.52-6.64,49.61-11.15,74.9-13.48,6.61-.61,14.12-.77,18.88,3.87,2.19,2.13,3.48,5.65,1.91,8.27-1.61,2.69-5.24,3.15-8.37,3.32-6.07.34-12.14.67-18.22,1.01,9.31,9.44,19.4,21.55,15.98,34.36-2,7.49-8.23,12.98-14.22,17.89-5.94,4.87-14.36,9.81-20.68,5.44,1.06,11.2,1.53,22.45,1.4,33.7-.03,2.76-.17,5.73-1.89,7.9-1.31,1.66-3.35,2.57-5.37,3.21-48.86,15.55-51.19-64.32-53.9-91.82Z"/>
        <line class="cls-8" x1="4698.35" y1="271.4" x2="4654.07" y2="276.49"/>
        <path class="cls-8" d="M4686.22,298.68c-1.92,11.57-7.47,22.51-15.68,30.88"/>
        <path class="cls-8" d="M4708.97,284.04c-15.47.67-30.89,2.55-46.08,5.59"/>
        <path class="cls-8" d="M4685.74,303.92c5.31.34,10.67-.12,15.84-1.37"/>
        <path class="cls-8" d="M4682.87,313.8c.79,3.13,1.9,6.19,3.29,9.1"/>
        <path class="cls-22" d="M4626.69,493.42s139.04-104.28,168.01-92.7c28.97,11.59,70.97,24.62,46.35,81.11-24.62,56.49-156.43,118.77-210.02,134.7-53.59,15.93-136.15,27.52-98.49-68.07,37.66-95.59,95.59-207.12,95.59-207.12,0,0,40.55-1.45,56.49,21.73l-57.94,130.35Z"/>
        <line class="cls-10" x1="4730.49" y1="572.59" x2="4796.96" y2="535.59"/>
        <path class="cls-10" d="M4629.85,492.18c-11.58,12.45-21.69,26.26-30.04,41.07"/>
        <path class="cls-10" d="M4628.28,500.99c-6.27,8.2-10.91,17.65-13.56,27.62"/>
        <path class="cls-10" d="M4620.64,495.1c-13.88,9.66-25.62,22.38-34.13,36.99"/>
        <path class="cls-10" d="M4625.86,350.04s28.9.58,50.87,23.12"/>
        <path class="cls-10" d="M4980.92,462.75c-4.02,77.83-45.09,152.9-34.18,230.06"/>
      </g>
    </g>
  </g>
</svg>