<?xml version="1.0" encoding="UTF-8"?>
<svg xmlns="http://www.w3.org/2000/svg" version="1.1" viewBox="0 0 1055 1000">
  <defs>
    <style>
      .cls-1 {
        fill: #191718;
      }

      .cls-2 {
        stroke: #00262f;
      }

      .cls-2, .cls-3, .cls-4, .cls-5, .cls-6, .cls-7 {
        fill: none;
      }

      .cls-2, .cls-3, .cls-4, .cls-6, .cls-7 {
        stroke-linecap: round;
        stroke-linejoin: round;
      }

      .cls-2, .cls-4, .cls-6 {
        stroke-width: 2.29px;
      }

      .cls-8 {
        fill: #05fdff;
      }

      .cls-9 {
        fill: #fff;
      }

      .cls-10 {
        fill: #f20574;
      }

      .cls-11 {
        fill: #cc7672;
      }

      .cls-12 {
        fill: #b50457;
      }

      .cls-13 {
        fill: #1b1b1b;
      }

      .cls-14 {
        fill: #191919;
      }

      .cls-3 {
        stroke: #191718;
      }

      .cls-3, .cls-7 {
        stroke-width: 2.39px;
      }

      .cls-4 {
        stroke: #191919;
      }

      .cls-15 {
        fill: #fcad9a;
      }

      .cls-16 {
        display: none;
      }

      .cls-5 {
        stroke: #05fdff;
        stroke-miterlimit: 10;
        stroke-width: 20px;
      }

      .cls-6, .cls-7 {
        stroke: #f20574;
      }
    </style>
  </defs>
  <!-- Generator: Adobe Illustrator 28.6.0, SVG Export Plug-In . SVG Version: 1.2.0 Build 709)  -->
  <g>
    <g id="Capa_1" class="cls-16">
      <g>
        <polyline class="cls-5" points="315.67 482.38 443.02 363.86 499.62 420.46 568.6 363.86 605.74 392.16 696.83 285.14 734.86 320.52 861.32 239.15 948.88 339.09 1014.56 275.05"/>
        <polygon class="cls-8" points="1055 235.61 1020.72 314.47 1011.54 278 975.31 267.9 1055 235.61"/>
      </g>
      <g>
        <g>
          <path class="cls-10" d="M160.37,322.76s-52.59,5.84-91.55,95.45c-30.68,70.56-50.48,166.48-57.52,204.08-4.41,23.55,6.59,47.9,28.06,58.53,22.09,10.93,59.97,15.8,124.9.38l15.58-89.61-64.28-1.95,31.17-89.61s79.86-128.57,13.63-177.27Z"/>
          <path class="cls-15" d="M39.38,680.82c22.09,10.93,59.97,15.8,124.89.38l15.58-89.61-64.28-1.95s-38.72,19.56-99.39,7.91c-2.01,9.73-3.64,18.15-4.88,24.74-4.41,23.55,6.59,47.9,28.06,58.52Z"/>
          <path class="cls-12" d="M116.55,573.11c-4.45-1.25-9.19-.61-13.77.06-26.45,3.86-53.35,8.19-79.75,3.99-4.85-.77-10.11-1.77-14.44.56-4.32,2.32-5.87,9.67-1.47,11.86-4.68-.74-7.42,6.2-4.84,10.18,2.57,3.98,7.73,5.28,12.43,5.91,5.14.69,10.33.97,15.51,1.23,23.08,1.16,46.75,1.78,69.35-3.9,6.99-1.76,19.12-3.94,23.64-10.38,4.97-7.07,1.68-17.16-6.64-19.51Z"/>
          <path class="cls-3" d="M16.95,583.44c20.2,2.39,40.71,2.18,60.85-.62"/>
          <path class="cls-3" d="M41.21,593.65c23.47-.58,46.86-4.44,69.28-11.42"/>
        </g>
        <g>
          <path class="cls-14" d="M437.38,996.08h-191.62l-2.96-10.99-.74,10.99H55.27l-.14-5.15c-3.99-76.99,28.86-157.74,49.38-200.01,9.07-18.69,15.73-29.85,15.73-29.85l285.34,1.95,3.61,26.46v.02l28.2,206.58Z"/>
          <path class="cls-7" d="M149.8,949.36s63.37,55.06,192.17,31.17"/>
          <path class="cls-7" d="M284.1,856.48l78.71,3.55s7.69,81.08-40.24,82.86c-47.93,1.78-38.47-86.41-38.47-86.41Z"/>
          <path class="cls-7" d="M111.94,836.7l56.25,9.23s-2.43,77.36-37.08,75.46c-34.64-1.89-19.17-84.7-19.17-84.7Z"/>
          <path class="cls-7" d="M110,844.57s30.83,11.81,57.72,11.15"/>
          <path class="cls-7" d="M282.51,866.22s46.57,7.22,80.68,5.25"/>
          <line class="cls-7" x1="390.74" y1="794.71" x2="419.6" y2="996.08"/>
        </g>
        <g>
          <path class="cls-10" d="M313.04,318.19c-42.85-10.12-90.79-17.17-134.52-8.33-22.15,4.47-43.87,15.19-57.16,33.48-43.03,59.24,2.5,162.19,11.49,225.82,8.84,62.6,7.99,129.73-23.1,184.78-6.26,11.08-13.7,24.99-6.46,35.45,4.77,6.89,13.97,8.79,22.26,10.02,89.25,13.29,180.28,14.55,269.86,3.73,4.23-.51,8.92-1.3,11.5-4.69,2.02-2.64,2.21-6.2,2.29-9.52,2.18-97.5-30.48-194.89-16.21-291.37,3.49-23.61,9.78-46.84,11.44-70.65,1.66-23.81-1.84-49.06-16.02-68.26-17.3-23.44-47.02-33.75-75.37-40.45Z"/>
          <path class="cls-3" d="M127,719.33s30.03-110.91-16.17-263.41"/>
          <path class="cls-3" d="M104.82,468.39c7.49,18.53,12.96,37.88,16.28,57.59"/>
          <path class="cls-3" d="M379.93,769.69c-55.62,12.78-113.22,16.93-170.1,12.26"/>
          <path class="cls-3" d="M284.38,773.88c-31.81,1.29-63.69.83-95.45-1.36"/>
        </g>
        <path class="cls-15" d="M414.12,189.19c-7.88,3.61-16.69,5.15-25.32,4.43,1.2,14.46,2.41,29.01,1.17,43.47-1.06,12.38-4.15,25.07-12.03,34.68-8.01,9.77-20.23,15.34-32.64,17.7-12.41,2.36-25.16,1.8-37.78,1.24-22.82-1.02-46.35-2.2-67-11.98-18.59-8.8-33.83-24.49-42.08-43.34-5.98-13.66-8.31-28.6-10.38-43.36-2.95-21.06-5.48-42.58-1.51-63.47,4.16-21.91,15.34-42.02,29.4-59.33,17.9-22.03,41.41-40.42,68.86-47.69,25.18-6.67,52.85-3.4,75.78,8.96,25.41,13.69,23.94,43.55,29.16,68.46,1.62,7.7,23.94,90.42,24.36,90.23Z"/>
        <path class="cls-13" d="M416.3,68.64c.51,7.33-1.92,14.6-5.47,21.03-14.91,27.04-51.76,39.41-79.97,26.83,2.42,5.76,4.88,11.7,4.99,17.95.11,6.25-2.68,12.97-8.31,15.69-6.51,3.14-14.11.14-21.29-.73-13.91-1.68-28.81,6.27-33.97,19.29-5.16,13.03,1.07,29.85,13.98,35.28,11.31,4.75,26.57,1.72,34.21,11.32,2.39,3,3.54,6.81,4.05,10.61,1.54,11.54-2.95,20.63-10.76,28.42-1.31,1.3-24.38,18.57-25.18,12.28,1.57,12.5,13.38,22.42,13.15,35.01-.15,8.3-5.78,15.73-12.78,20.18-7,4.45-15.26,6.43-23.37,8.18-2.59.56-5.29,1.15-7.4,2.75-3.78,2.86-4.72,8.18-4.46,12.92.26,4.74,1.41,9.5.62,14.18-2.06,12.18-15.56,18.29-27.23,22.34-6.54,2.27-13.58,4.56-20.25,2.7-5.76-1.61-11.59-6.22-17.03-3.73-2.25,1.03-3.81,3.1-5.76,4.63-8.46,6.63-20.7,1.48-30.07-3.79-9.37-5.27-21.64-10.39-30.06-3.71-6.11,4.85-7.1,13.91-12.38,19.65-4.06,4.4-10.23,6.32-16.21,6.64-10.26.55-20.47-3.59-27.98-10.5-8.17-7.5-7.81-14.18-10.98-23.5-5.52-16.23-28.66-25.48-25.44-45.07,2.86-17.42,28.52-27.45,24.94-44.73-1.73-8.36-9.98-13.62-14.07-21.12-3.95-7.24-3.57-16.63.94-23.53,7.19-11,22.75-14.53,29.12-26.02,10.14-18.29-9.18-44.11,3.19-60.98,6.56-8.95,18.95-10.6,29.81-12.85,10.87-2.25,23.26-7.8,24.91-18.77,1.42-9.41-5.94-19.52-1.65-28.01,6.74-13.34,31.33-4.41,39.55-16.89,3.27-4.97,2.45-11.47,3.51-17.32,1.96-10.89,11.54-23.39,19.21-31.11,10.49-10.55,26.01-16.61,40.59-13.67,7.64,1.54,14.79,5.4,22.57,5.84,3.59.21,7.18-.33,10.74-.86,6.64-1,13.39-2.03,19.49-4.84,3.9-1.8,7.43-4.29,11.18-6.38,8.13-4.53,16.31-5.79,25.22-7.69,7.88-1.68,15.8,1.47,22.45,5.88,10.76,7.14,14.31,20.8,24.51,27.61,8.17,5.46,19.26,4.12,28.21,9.36,10.62,6.21,20.01,16.43,20.9,29.26Z"/>
        <path class="cls-1" d="M374.79,154.9c.32,4.94-1.6,9.09-4.28,9.26-2.68.17-5.1-3.7-5.41-8.64-.32-4.94,1.6-9.09,4.27-9.26,2.68-.17,5.1,3.7,5.42,8.64Z"/>
        <g>
          <path class="cls-10" d="M361.04,486.34s-52.45-106.25-4.03-135.83c48.41-29.59,161.37,197.7,161.37,197.7l164.06-134.49s33.62,8.07,37.65,51.11c0,0-138.51,169.46-154.65,185.59-16.14,16.14-69.93,45.73-111.62-8.07-41.69-53.8-92.79-156.01-92.79-156.01Z"/>
          <path class="cls-15" d="M565.45,650.42c16.14-16.14,154.65-185.6,154.65-185.6-4.03-43.04-37.65-51.11-37.65-51.11l-164.06,134.49s-38.03,50.41-87.25,61.82c7.64,11.73,15.32,22.8,22.71,32.33,41.69,53.8,95.48,24.21,111.62,8.07Z"/>
          <path class="cls-12" d="M511.31,530.81c-1.12-3.58-5.78-4.96-9.37-3.85-3.58,1.11-6.32,3.94-8.97,6.6-18.71,18.78-41.11,33.86-65.54,44.14-5.54,2.33-11.45,4.61-15.24,9.28-3.78,4.67-4.26,12.64.71,16.03,1.44.98,3.35,1.68,3.83,3.35.48,1.64-.73,3.31-.74,5.03,0,2.34,2.3,4.15,4.62,4.43,2.32.28,4.61-.56,6.79-1.39,18.43-6.99,36.98-14.05,53.73-24.44,14.96-9.28,27.98-21.62,37.89-36.2,3.34-4.91,6.57-10.01,5.94-16.38-.58-5.86-8.95-15.77-13.67-6.61Z"/>
          <path class="cls-3" d="M388.26,538.12l-72.96-101.64s-22.58-34.75,5.21-59.94"/>
          <path class="cls-3" d="M325.69,465.17c12,14.75,21.47,31.57,27.86,49.48"/>
          <path class="cls-3" d="M429.99,592.04c13.82-7.15,27.41-14.72,40.75-22.71"/>
          <path class="cls-3" d="M448.23,593.78c17.23-8.72,33.54-19.25,48.59-31.37"/>
          <g>
            <path class="cls-15" d="M680.1,375.64c2.1-5.77,7.36-9.7,12.35-13.28,5.57-4,11.13-8,16.7-12,15.74-11.31,31.79-22.77,50.17-28.93,3.33-1.12,7.25-1.98,10.14.02,3.56,2.46,3.38,8.09.86,11.61-2.51,3.52-6.59,5.49-10.39,7.55-3.8,2.06-7.72,4.58-9.39,8.56-2.96,7.03,2.21,14.53,6.02,21.14,5.08,8.82,8.06,18.84,8.62,29,.5,9.19-1.35,19.24-8.16,25.43-6.95,6.32-17.48,7.29-24.63,13.38-5.66,4.82-8.42,12.2-10.27,19.4-.94,3.68-1.87,7.68-4.78,10.11-3.02,2.52-7.54,2.61-11.18,1.11-3.64-1.5-6.55-4.34-9.14-7.31-10.08-11.58-17.61-27.3-18.62-42.78-.36-5.56.51-11.18.52-16.75.02-8.28-1.72-18.34,1.17-26.26Z"/>
            <path class="cls-3" d="M752.41,346.19c-8.97,9.95-18.3,19.58-27.95,28.87"/>
            <path class="cls-3" d="M755.27,370.77c-6.02,5.93-12.8,11.09-20.11,15.32"/>
            <path class="cls-3" d="M761.04,386.48c-4.78,5.17-10.43,9.53-16.63,12.86"/>
            <path class="cls-3" d="M764.02,412.15c-6.28,3.19-12.71,6.09-19.25,8.71"/>
            <path class="cls-3" d="M747.34,412.77c-2.04,8.3-6.44,16.02-12.54,22.01"/>
          </g>
        </g>
        <g>
          <path class="cls-9" d="M52.66,531.29c1.84,3.68,3.68,7.36,5.52,11.03,2.56,5.12,10.23.62,7.68-4.49-1.84-3.68-3.68-7.36-5.52-11.03-2.56-5.12-10.23-.62-7.68,4.49h0Z"/>
          <path class="cls-9" d="M84.25,517.1c-.05,3.73.82,7.17,2.4,10.53,1.03,2.17,4.14,2.73,6.08,1.59,2.22-1.3,2.62-3.9,1.59-6.08-.91-1.91-1.22-3.94-1.19-6.04.08-5.72-8.8-5.72-8.89,0h0Z"/>
          <path class="cls-9" d="M90.96,441.93c2.47-1.5,4.94-3.01,7.41-4.51,4.88-2.97.42-10.66-4.49-7.68-2.47,1.5-4.94,3.01-7.41,4.51-4.88,2.97-.42,10.67,4.49,7.68h0Z"/>
          <path class="cls-9" d="M154.46,435.43c3.98,2.45,7.97,4.9,11.95,7.36,4.89,3.01,9.36-4.68,4.49-7.68-3.98-2.45-7.97-4.9-11.95-7.36-4.89-3.01-9.36,4.68-4.49,7.68h0Z"/>
          <path class="cls-9" d="M150.86,482.5c3.69,4.59,7.38,9.18,11.06,13.77,1.51,1.87,4.72,1.57,6.29,0,1.85-1.85,1.51-4.41,0-6.29-3.69-4.59-7.38-9.18-11.06-13.77-1.5-1.87-4.72-1.57-6.29,0-1.85,1.85-1.51,4.41,0,6.29h0Z"/>
          <path class="cls-9" d="M209.44,504.89c-3.1,7.96-6.19,15.91-9.29,23.87-2.08,5.33,6.52,7.65,8.57,2.36,3.1-7.96,6.19-15.91,9.29-23.87,2.08-5.33-6.52-7.65-8.57-2.36h0Z"/>
          <path class="cls-9" d="M154.49,558.85c6.15,6.11,12.3,12.21,18.45,18.32,4.06,4.03,10.35-2.25,6.29-6.29-6.15-6.11-12.3-12.21-18.45-18.32-4.06-4.04-10.35,2.25-6.29,6.29h0Z"/>
          <path class="cls-9" d="M211.64,590.21c-2.76,5.21-5.52,10.42-8.29,15.62-2.68,5.05,4.99,9.55,7.68,4.49,2.76-5.21,5.53-10.42,8.29-15.62,2.68-5.05-4.99-9.55-7.68-4.49h0Z"/>
          <path class="cls-9" d="M166.23,630.85c-2.84,6.85-5.01,13.87-6.52,21.13-1.17,5.58,7.4,7.97,8.57,2.36,1.52-7.26,3.68-14.28,6.52-21.13,2.19-5.28-6.41-7.58-8.57-2.36h0Z"/>
          <path class="cls-9" d="M150.24,707.73c4.26,5.54,8.53,11.07,12.79,16.61,1.48,1.92,3.81,2.89,6.08,1.59,1.88-1.07,3.06-4.18,1.59-6.08-4.26-5.54-8.53-11.07-12.79-16.61-1.48-1.92-3.81-2.89-6.08-1.59-1.88,1.07-3.06,4.18-1.59,6.08h0Z"/>
          <path class="cls-9" d="M141.53,763.96c-1.84,1.84-3.67,3.68-5.51,5.52-4.05,4.06,2.24,10.34,6.29,6.29,1.84-1.84,3.67-3.68,5.51-5.52,4.05-4.06-2.24-10.34-6.29-6.29h0Z"/>
          <path class="cls-9" d="M199.52,732.64c5.9,5.12,11.8,10.24,17.7,15.36,4.3,3.73,10.62-2.53,6.29-6.29-5.9-5.12-11.8-10.24-17.7-15.36-4.3-3.73-10.62,2.53-6.29,6.29h0Z"/>
          <path class="cls-9" d="M293.23,742.6c2.45-1.53,4.91-3.06,7.36-4.58,4.85-3.02.39-10.71-4.49-7.68-2.45,1.53-4.91,3.06-7.36,4.58-4.85,3.02-.39,10.71,4.49,7.68h0Z"/>
          <path class="cls-9" d="M244.05,688.88c7.66-.31,15.32-.61,22.98-.92,5.7-.23,5.73-9.12,0-8.89-7.66.31-15.32.61-22.98.92-5.7.23-5.73,9.12,0,8.89h0Z"/>
          <path class="cls-9" d="M254.7,631.48c6.38,5.07,13.06,9.63,20.19,13.58,5.01,2.77,9.5-4.9,4.49-7.68-6.45-3.57-12.62-7.6-18.39-12.19-4.43-3.53-10.76,2.72-6.29,6.29h0Z"/>
          <path class="cls-9" d="M345.55,618c-2.28,6.26-3.88,12.66-4.82,19.26-.79,5.6,7.77,8.01,8.57,2.36.94-6.6,2.54-13,4.82-19.26,1.96-5.38-6.63-7.71-8.57-2.36h0Z"/>
          <path class="cls-9" d="M331.03,697.4c5.51,3.99,11.02,7.99,16.53,11.98,4.64,3.36,9.08-4.35,4.49-7.68-5.51-3.99-11.02-7.99-16.53-11.98-4.64-3.36-9.08,4.35-4.49,7.68h0Z"/>
          <path class="cls-9" d="M392.57,730c-5.88,7.02-11.31,14.38-16.25,22.1-3.09,4.83,4.6,9.3,7.68,4.49,4.53-7.08,9.47-13.85,14.86-20.3,3.65-4.36-2.61-10.68-6.29-6.29h0Z"/>
          <path class="cls-9" d="M303.53,794.48c4.24,1.42,8.14,3.42,11.85,5.92,4.76,3.21,9.21-4.49,4.49-7.68-4.33-2.92-9.03-5.16-13.97-6.81-5.44-1.82-7.77,6.76-2.36,8.57h0Z"/>
          <path class="cls-9" d="M280.44,578.17c3.06,2.76,6.13,5.52,9.19,8.28,4.24,3.82,10.55-2.45,6.29-6.29-3.06-2.76-6.13-5.52-9.19-8.28-4.24-3.82-10.55,2.45-6.29,6.29h0Z"/>
          <path class="cls-9" d="M354.24,550.74c-2.76,3.98-5.52,7.97-8.27,11.95-1.37,1.97-.36,4.94,1.59,6.08,2.21,1.29,4.71.38,6.08-1.59,2.76-3.98,5.52-7.97,8.27-11.95,1.37-1.97.36-4.94-1.59-6.08-2.21-1.29-4.71-.38-6.08,1.59h0Z"/>
          <path class="cls-9" d="M284.86,523.93c5.26,3.29,10.52,6.58,15.78,9.87,4.86,3.04,9.33-4.65,4.49-7.68-5.26-3.29-10.52-6.58-15.78-9.87-4.86-3.04-9.33,4.65-4.49,7.68h0Z"/>
          <path class="cls-9" d="M264.11,449.57c-2.25,4.9-5.01,9.5-8.27,13.79-1.45,1.91-.3,4.97,1.59,6.08,2.28,1.34,4.62.32,6.08-1.59,3.27-4.29,6.02-8.89,8.27-13.79,1-2.18.62-4.79-1.59-6.08-1.91-1.12-5.07-.6-6.08,1.59h0Z"/>
          <path class="cls-9" d="M216.98,455.66c2.15,1.23,4.29,2.45,6.44,3.68,4.97,2.84,9.46-4.84,4.49-7.68-2.15-1.23-4.29-2.45-6.44-3.68-4.97-2.84-9.46,4.84-4.49,7.68h0Z"/>
          <path class="cls-9" d="M228.98,402.26c2.45,1.84,4.91,3.67,7.36,5.51,1.92,1.44,4.97.31,6.08-1.59,1.33-2.27.33-4.64-1.59-6.08-2.45-1.84-4.91-3.67-7.36-5.51-1.92-1.44-4.97-.31-6.08,1.59-1.33,2.27-.33,4.64,1.59,6.08h0Z"/>
          <path class="cls-9" d="M141.81,398.07c-1.84,2.76-3.68,5.52-5.52,8.27-1.33,2-.39,4.92,1.59,6.08,2.18,1.28,4.75.41,6.08-1.59,1.84-2.76,3.68-5.52,5.52-8.27,1.33-2,.39-4.92-1.59-6.08-2.18-1.28-4.75-.41-6.08,1.59h0Z"/>
          <path class="cls-9" d="M275.81,354.54c5.26,2.66,10.52,5.32,15.78,7.97,5.09,2.57,9.6-5.09,4.49-7.68-5.26-2.66-10.52-5.32-15.78-7.97-5.09-2.57-9.6,5.09-4.49,7.68h0Z"/>
          <path class="cls-9" d="M335.51,349.31c1.22,1.23,2.44,2.46,3.66,3.7,4.03,4.07,10.32-2.21,6.29-6.29-1.22-1.23-2.44-2.46-3.66-3.7-4.03-4.07-10.32,2.22-6.29,6.29h0Z"/>
          <path class="cls-9" d="M333.96,410.86c2.95,4.56,6.55,8.35,10.84,11.66,1.9,1.47,4.98.29,6.08-1.59,1.34-2.3.31-4.61-1.59-6.08-3.02-2.33-5.59-5.27-7.65-8.47-3.09-4.79-10.79-.34-7.68,4.49h0Z"/>
          <path class="cls-9" d="M394.21,414.78c-.61,1.84-1.23,3.68-1.84,5.52-1.81,5.44,6.77,7.77,8.57,2.36.61-1.84,1.23-3.68,1.84-5.52,1.81-5.44-6.77-7.77-8.57-2.36h0Z"/>
          <path class="cls-9" d="M370.31,469.55c.31,1.53.61,3.06.92,4.6.47,2.36,3.27,3.71,5.47,3.1,2.45-.67,3.58-3.11,3.1-5.47-.31-1.53-.61-3.06-.92-4.6-.47-2.36-3.27-3.71-5.47-3.1-2.45.67-3.58,3.11-3.1,5.47h0Z"/>
          <path class="cls-9" d="M434.82,457.77c2.14,2.76,4.29,5.52,6.43,8.28,1.47,1.9,4.74,1.55,6.29,0,1.87-1.87,1.48-4.38,0-6.29-2.14-2.76-4.29-5.52-6.43-8.28-1.47-1.9-4.74-1.55-6.29,0-1.87,1.87-1.48,4.38,0,6.29h0Z"/>
          <path class="cls-9" d="M419.79,490.43c-.31,6.44-.61,12.87-.92,19.31-.27,5.72,8.62,5.7,8.89,0,.31-6.44.61-12.87.92-19.31.27-5.72-8.62-5.7-8.89,0h0Z"/>
          <path class="cls-9" d="M475.22,514.11c-1.51,4.61-3.02,9.21-4.52,13.82-1.78,5.45,6.8,7.79,8.57,2.36,1.51-4.61,3.01-9.21,4.52-13.82,1.78-5.45-6.8-7.79-8.57-2.36h0Z"/>
          <path class="cls-9" d="M428.58,542.5c4.58,1.59,9.15,3.19,13.73,4.78,5.41,1.88,7.74-6.7,2.36-8.57-4.58-1.59-9.15-3.19-13.73-4.78-5.41-1.88-7.74,6.7-2.36,8.57h0Z"/>
          <path class="cls-9" d="M374.4,371.33c3.69,6.17,8.59,11.28,14.51,15.35,4.73,3.24,9.18-4.46,4.49-7.68-4.65-3.19-8.44-7.33-11.32-12.16-2.93-4.91-10.62-.44-7.68,4.49h0Z"/>
          <path class="cls-9" d="M287.26,414.89c5.72,0,5.73-8.89,0-8.89s-5.73,8.89,0,8.89h0Z"/>
          <path class="cls-9" d="M54.42,473.42c2.14,3.37,4.29,6.74,6.43,10.12,3.06,4.81,10.76.36,7.68-4.49-2.14-3.37-4.29-6.74-6.43-10.12-3.06-4.81-10.76-.36-7.68,4.49h0Z"/>
          <path class="cls-9" d="M91.71,562.81c3.07-.91,6.13-1.83,9.2-2.74,5.47-1.63,3.14-10.21-2.36-8.57-3.07.91-6.13,1.82-9.2,2.74-5.47,1.63-3.14,10.21,2.36,8.57h0Z"/>
          <path class="cls-9" d="M290.76,485.33c4.69,7.36,10.8,13.46,18.17,18.12,4.85,3.07,9.31-4.62,4.49-7.68-6.07-3.84-11.12-8.87-14.98-14.93-3.07-4.81-10.76-.36-7.68,4.49h0Z"/>
        </g>
      </g>
    </g>
    <g id="Capa_2">
      <g>
        <polyline class="cls-5" points="739.33 486.02 611.98 367.51 555.38 424.11 486.4 367.51 449.26 395.81 358.17 288.79 320.14 324.17 193.68 242.8 106.12 342.74 40.44 278.69"/>
        <polygon class="cls-8" points="0 239.26 79.69 271.54 43.46 281.64 34.29 318.11 0 239.26"/>
      </g>
      <g>
        <path class="cls-11" d="M891.89,791.98l-28.74,49.5s6.39,25.55-16.76,23.95c-23.15-1.6-51.09-68.66-51.09-68.66,0,0,32.73-44.71,70.25-46.31,37.52-1.6,26.34,41.52,26.34,41.52Z"/>
        <path class="cls-14" d="M880.68,999.72h-344.07l-9.92-115.53-1.49-17.36c8.73-9.17,40.25-15.19,80-19.1,73.46-7.25,175.09-7.37,213.21-7.13,9.67.07,15.26.16,15.26.16,2.77,3.51,5.37,7.13,7.83,10.87,2.95,4.46,5.68,9.08,8.21,13.83,21.17,39.69,28.57,88.58,30.97,134.26Z"/>
        <line class="cls-6" x1="542.2" y1="880.91" x2="553.58" y2="999.72"/>
        <path class="cls-6" d="M528.87,880.49s2.01,35.78,18.49,44.23"/>
        <path class="cls-6" d="M620.06,925.42s50.88,1.25,85.91-4.59"/>
        <path class="cls-6" d="M773.53,909.57s50.88-10.84,76.32-18.77"/>
        <path class="cls-10" d="M838.91,368.06s101.81,52.59,183.48,176.79c0,0,60.42,70.49,16.78,123.08-43.63,52.59-146.56,137.63-146.56,137.63,0,0-35.8-31.33-35.8-58.18l99.57-116.37s-89.5-101.82-134.26-158.89c0,0-31.33-85.04,16.78-104.06Z"/>
        <path class="cls-11" d="M587.52,96.07c-1.87,10.01-3.57,99.02-3.04,173.6.53,74.58,30.02,73.85,99.21,75.38,69.19,1.53,91.29-13.81,104.37-68.91,13.08-55.1,21.43-137.79,11.54-173.22-9.9-35.43-45.17-59.35-102.59-56.66-57.42,2.69-100.06-.63-109.48,49.8Z"/>
        <path class="cls-14" d="M816.36,48.7c.15-2.28.09-4.86-1.54-6.46-3.09-3.03-8.44.35-10.06,4.36-1.62,4.02-1.64,8.79-4.42,12.11,2.05-8.24-1.14-17.54-7.82-22.78-1.51,4.08-3.01,8.16-4.51,12.24-2.18-13.04-8.36-25.37-17.49-34.93-5.2-5.44-11.88-10.18-19.4-10.35-7.52-.17-15.43,5.97-14.81,13.47-6.04-5.78-13.62-10.8-21.98-10.73-8.36.07-16.95,7.18-15.94,15.49-9.55-8.8-21.09-15.42-33.5-19.21-7.58-2.32-16.13-3.5-23.16.15-7.03,3.65-10.99,13.73-5.97,19.87-15.41-6.03-33.78-5.51-47.69,3.45-4.25,2.74-8.2,6.46-9.57,11.33-1.37,4.87.72,10.93,5.47,12.65-12.5-.22-23.59,12.37-21.81,24.74,1.78,12.37,15.99,21.31,27.91,17.57-5.06,2.15-5.03,10.01-1.2,13.95,3.84,3.93,9.7,4.92,15.16,5.56,13.64,1.59,27.83,2.25,40.73-2.45-.37,10.84,12.2,17.93,23.05,17.58,10.84-.34,21.03-5.31,31.8-6.62-4.34,4.93-.7,13.1,4.82,16.67,5.52,3.56,12.36,4.47,18.17,7.56-7.03,3.89-9.53,14.16-5.08,20.85,4.45,6.69,14.89,8.35,21.19,3.37-.57,7.24-8.91,12.11-9.26,19.36-.32,6.58,5.94,11.35,11.51,14.87-8.52.98-14.67,10.65-12.54,18.96,2.13,8.31,11.5,13.8,19.93,12.23-5.55,4.38-6.98,13.16-3.1,19.07,3.88,5.91,12.5,8.09,18.72,4.73-3.63,4.89-.51,12.43,4.8,15.4,5.31,2.97,11.83,2.56,17.84,1.62,1.8-.28,3.72-.67,4.97-2,1.61-1.71,1.55-4.33,1.91-6.66,2.02-12.92,19.24-21.26,17.13-34.16,7.55.59,15.29-2.85,19.9-8.85,4.61-6,5.95-14.37,3.44-21.51,14.68-8.29,17.55-31.61,5.32-43.2,10.77-6.35,20.35-16.2,22.55-28.51,2.2-12.31-5.4-26.67-17.75-28.6,2.63-9.87,2.04-21.34-4.62-29.09-6.05-7.05-12.21-5.17-20.02-5.96-4.45-.45-3.83,1.58-5.29-2.43-1.04-2.85,1.99-11.39,2.2-14.7Z"/>
        <path class="cls-11" d="M570.61,184.05c-7.4,6.31-17.22,11.37-19.71,20.78-.97,3.67-.64,7.55-.08,11.31.79,5.3,2.21,10.85,6.07,14.57,5.25,5.06,13.35,5.31,20.64,5.19,5.15-.09,10.45-.24,15.17-2.3,9.94-4.35,14.54-15.77,16.99-26.34,3.03-13.06,4.25-26.54,3.68-39.93-.37-8.67.82-27.52-9.54-30.99-11.31-3.8-11.72,11.14-14.29,18.35-3.97,11.1-9.86,21.64-18.93,29.37Z"/>
        <path class="cls-14" d="M604.25,236.72c4.03-2.3,8.6-4.19,13.2-3.56,4.6.64,8.99,4.62,8.59,9.25,7.69-3.68,18.11,3.3,17.65,11.81,5.96-4.52,15.44-3.35,20.13,2.48,3.04-5.09,6.31-10.16,10.79-14.03,4.49-3.87,10.41-6.45,16.29-5.72-2.5-9.09,5.87-19.37,15.27-18.77-1.22-5.36-2.44-10.96-1.07-16.29s6.19-10.2,11.66-9.63c-3.55-4.87-4.41-11.59-2.19-17.2,2.22-5.61,7.44-9.92,13.36-11.05,4.58-.87,10.18.72,11.78,5.09.69,1.89.52,3.99,1.03,5.94.8,3.02,3.14,5.34,4.87,7.95,1.72,2.61,2.81,6.2,1,8.75-1.15,1.63-3.31,2.53-3.93,4.43-.83,2.54,1.55,4.87,3.35,6.85,2.51,2.74,4.32,6.39,3.89,10.09-.43,3.69-3.67,7.15-7.38,6.9,2.33,3.15,4.71,6.39,5.75,10.17,1.04,3.78.46,8.27-2.45,10.89,6.68,4.63,7.27,15.81,1.11,21.11,3.22,2.79,6.25,6.24,6.9,10.45.28,1.79.14,4.84-1.1,6.33-.59.7-6.5,3.3-6.97,2.45,1.61,2.92,3.24,5.91,3.8,9.2.56,3.29-.15,6.98-2.63,9.21-.89.8-2,1.41-2.62,2.44-.54.89-.63,1.97-.96,2.96-1,3.01-4.52,4.92-7.59,4.13.55,3.85,1.09,7.82.18,11.6-.91,3.78-3.64,7.4-7.45,8.17-1.38.28-2.89.2-4.07.96-1.24.79-1.8,2.29-2.47,3.6-3.72,7.22-13.79,10.28-20.89,6.36-3.12,3.95-6.52,7.85-10.93,10.28-4.41,2.43-10.05,3.16-14.44.69-5.07,6.79-15.51,8.83-22.76,4.44-2.73,5.68-10.66,8.09-16.08,4.88-1.47,4.28-5.84,7.39-10.36,7.38-1.69,0-3.4-.4-5.04,0-2.91.7-4.66,3.57-6.91,5.55-4.66,4.12-12.38,4.17-17.09.11-5.32,3.65-13.88.25-15.25-6.06-3.26.05-6.77.03-9.44-1.85-2.67-1.88-3.64-6.39-1.02-8.32-6.69-3.71-7.21-14.84-.9-19.17-2.8-1.04-4.51-4.16-4.38-7.14s1.84-5.74,4.14-7.64c.83-.68,1.81-1.4,1.92-2.46.15-1.39-1.22-2.39-2.26-3.33-4.85-4.38-3.26-13.71,2.76-16.24-3.81-2.46-6.23-6.94-6.19-11.47.04-4.53,2.52-8.97,6.37-11.37-4.72-6.98-2.08-17.78,5.32-21.8-6.69-6.97-2.36-16.89,3.98-22.19,3.06-2.56,7.59-3.83,11.53-3.47,1.29.12,11.4,5.19,10.21,5.87Z"/>
        <path class="cls-1" d="M619.98,162.24c-.49,4.72-3.55,8.27-6.83,7.93-3.29-.34-5.55-4.44-5.06-9.17.49-4.72,3.55-8.27,6.83-7.93,3.29.34,5.55,4.44,5.06,9.17Z"/>
        <path class="cls-13" d="M605.8,132.2c-.21,1.63.83,3.22,2.19,4.14,1.36.92,3,1.31,4.6,1.71,3.75.92,7.52,1.95,10.85,3.88,2.19,1.27,4.16,2.9,6.36,4.15,2.88,1.64,6.09,2.58,9.27,3.52.95.28,2.16.49,2.78-.29.26-.33.35-.76.36-1.18.07-1.94-1.13-3.66-2.29-5.22-3.28-4.4-6.72-8.8-11.25-11.9-4.31-2.95-8.95-3.89-14.1-3.7-3.05.11-8.31,1.1-8.8,4.88Z"/>
        <path class="cls-11" d="M586.06,273.46c-1.35,1.92-2.7,4.04-3.11,6.87-.4,2.83.53,6.53,2.42,7.53-1.83,3.26-1.17,9.27,1.33,12.11.22.25.47.49.73.47.42-.02.65-.65.84-1.19,1.89-5.33,6.41-7.86,10.48-5.86-.04-3.68,1.24-6.93,2.97-9.21,1.72-2.27,3.87-3.71,5.98-5.11-.61-5.33,1.71-10.6,5.06-11.49-4.19,2.29-9.5.31-13-4.86-.57-.83-1.15-1.8-1.9-1.99-.52-.14-1.01.13-1.49.34-2.3,1-4.73.49-7.07-.89-1.35-.79-4.11-4.15-5.54-3.56-4.03,1.67.28,13.93,2.31,16.83Z"/>
        <path class="cls-11" d="M740.18,188.33c4.51-.19,8.92,1.39,13.01,3.29,4.77,2.22,9.45,5.04,12.59,9.26,5.06,6.79,5.25,16.57,1.28,24.05-3.97,7.48-11.62,12.66-19.87,14.58-4.62,1.08-9.56,1.2-14.04-.38-4.48-1.58-8.42-5-9.97-9.49,3.47-.03,7.36-.5,9.54-3.19,1.57-1.94,1.87-4.65,1.59-7.13-.52-4.45-2.77-8.68-6.17-11.6,10.79-3.51-5.3-18.68,12.04-19.4Z"/>
        <path class="cls-12" d="M785.61,350.28c.41-5.65.91-12.4,1.4-18.83.87-11.43-9.78-20.3-20.86-17.4l-126.85,33.28c-8.41,2.21-13.71,10.5-12.19,19.06l1.13,6.35c1.61,8.99,10.15,15.02,19.16,13.52l124.31-20.72c7.6-1.27,13.34-7.58,13.89-15.26Z"/>
        <path class="cls-4" d="M641.86,354.43c.15,8.46.29,16.91.44,25.37"/>
        <path class="cls-4" d="M656.14,352.79c.43,7.9.57,15.82.41,23.73"/>
        <path class="cls-4" d="M668.01,351.56v21.69"/>
        <path class="cls-4" d="M680.69,349.11v16.78"/>
        <path class="cls-4" d="M691.78,345.42c.23,10.78.47,21.55.7,32.33"/>
        <path class="cls-4" d="M706.52,340.51c1.36,12.09,1.88,24.27,1.55,36.42"/>
        <path class="cls-4" d="M719.96,339.7c.82,11.85.72,23.77-.32,35.61"/>
        <path class="cls-4" d="M732.66,332.74v46.24"/>
        <path class="cls-4" d="M748.37,327.42c.34,15.68.4,31.37.2,47.06"/>
        <path class="cls-4" d="M763.3,327.01c.31,15.01.07,30.03-.74,45.01"/>
        <path class="cls-4" d="M774.74,324.56c.64,17.48,0,35-1.87,52.39"/>
        <path class="cls-10" d="M771.4,355.55s76.76-5.79,89.79,31.86c13.03,37.66,11.59,152.08,5.79,195.53,0,23.9-4.28,48.63-5.66,72.56-1.78,30.75-1.23,59.83-6.74,90.07-2.5,13.74-5,27.84-2.49,41.58,1.42,7.76,4.41,15.2,5.26,23.04,1.56,14.36-4.42,28.91-14.13,39.6-21.15,23.25-53.4,34.24-82.36,43.47-33.78,10.76-67.53,15.84-102.43,6.89-27.61-7.08-55.79-11.04-84.18-13.11-23.24-1.7-45.61,6.26-63.67-14.14-11.79-13.33-14.88-33.72-7.56-49.94,2.18-4.83,5.26-9.61,4.99-14.9-.18-3.5-1.82-6.74-3.02-10.03-8.55-23.57,5.66-48.5,16.01-71.33,7.98-17.6,13.83-36.16,17.45-55.15,10.25-53.72.21-109.67,5.86-164,5.01-48.14,20.33-105.7,70.67-124.48,85.45-31.86,117.31-28.97,156.41-27.52Z"/>
        <path class="cls-2" d="M871.45,530.94s6-84.68-4-133.35"/>
        <path class="cls-2" d="M962.13,628.97c12.66-7.98,26.32-14.38,40.55-19"/>
        <path class="cls-2" d="M965.58,634.76c11.76-3.26,23.75-5.72,35.84-7.37"/>
        <path class="cls-2" d="M866.12,739.63s16,33.34,38,53.34"/>
        <path class="cls-2" d="M514.77,814.63c41.95,22.5,91.76,23.11,139.36,23.2"/>
        <path class="cls-2" d="M591.4,846.85c33.54,2.67,67.39,1.51,100.68-3.44"/>
        <path class="cls-2" d="M838.8,803.68c-22.74,11.26-46.66,20.13-71.25,26.39"/>
        <path class="cls-2" d="M834.76,796.93c-10.13,5.29-20.86,9.42-31.91,12.29"/>
        <path class="cls-11" d="M432.74,281.8c-.3-3.07-.52-6.41,1.18-8.99,1.8-2.74,5.23-3.82,8.39-4.68,24.51-6.64,49.6-11.15,74.89-13.48,6.61-.61,14.12-.77,18.88,3.87,2.19,2.13,3.47,5.65,1.91,8.27-1.61,2.69-5.24,3.15-8.37,3.32-6.07.34-12.14.67-18.21,1.01,9.31,9.44,19.4,21.55,15.98,34.36-2,7.49-8.23,12.98-14.22,17.89-5.94,4.87-14.36,9.81-20.68,5.44,1.06,11.2,1.53,22.45,1.4,33.7-.03,2.76-.17,5.73-1.89,7.9-1.31,1.66-3.35,2.57-5.37,3.21-48.85,15.55-51.18-64.32-53.9-91.82Z"/>
        <line class="cls-4" x1="511.41" y1="271.12" x2="467.13" y2="276.21"/>
        <path class="cls-4" d="M499.28,298.4c-1.92,11.57-7.47,22.51-15.68,30.88"/>
        <path class="cls-4" d="M522.03,283.76c-15.47.67-30.89,2.55-46.08,5.59"/>
        <path class="cls-4" d="M498.8,303.64c5.31.34,10.67-.12,15.84-1.37"/>
        <path class="cls-4" d="M495.93,313.52c.79,3.13,1.9,6.19,3.29,9.1"/>
        <path class="cls-10" d="M439.76,493.15s139.03-104.28,168-92.7c28.96,11.59,70.96,24.62,46.34,81.11-24.62,56.49-156.41,118.77-210,134.7-53.59,15.93-136.14,27.52-98.48-68.07,37.65-95.59,95.58-207.12,95.58-207.12,0,0,40.55-1.45,56.48,21.73l-57.93,130.35Z"/>
        <line class="cls-2" x1="543.54" y1="572.31" x2="610.01" y2="535.31"/>
        <path class="cls-2" d="M442.91,491.91c-11.58,12.45-21.69,26.26-30.04,41.07"/>
        <path class="cls-2" d="M441.34,500.71c-6.27,8.2-10.91,17.65-13.56,27.62"/>
        <path class="cls-2" d="M433.7,494.82c-13.88,9.66-25.61,22.38-34.13,36.99"/>
        <path class="cls-2" d="M438.92,349.76s28.9.58,50.86,23.12"/>
        <path class="cls-2" d="M793.95,462.47c-4.02,77.83-45.09,152.9-34.17,230.06"/>
      </g>
    </g>
  </g>
</svg>