<?xml version="1.0" encoding="UTF-8"?>
<svg xmlns="http://www.w3.org/2000/svg" version="1.1" viewBox="0 0 739.6 159.79">
  <defs>
    <style>
      .cls-1 {
        fill: #f6f6f6;
      }
    </style>
  </defs>
  <!-- Generator: Adobe Illustrator 28.6.0, SVG Export Plug-In . SVG Version: 1.2.0 Build 709)  -->
  <g>
    <g id="Capa_1">
      <g>
        <g>
          <path class="cls-1" d="M739.6,69.07c-.14.55-.24,1.12-.42,1.66-1.82,5.44-8.99,7.24-13.17,3.31-1.79-1.68-2.68-3.74-2.68-6.18,0-1.05.02-2.1,0-3.15-.06-2.38-1.21-3.81-3.56-4.22-.98-.17-2.03-.17-3.02-.02-2.17.33-3.47,1.56-3.58,3.73-.15,2.92-.06,5.86.05,8.78.07,1.99,1.14,3.55,2.64,4.8,1.22,1.02,2.47,2.01,3.71,3.01,4.29,3.44,8.57,6.9,12.89,10.31,4.54,3.59,6.74,8.28,6.75,14.04,0,3.44.01,6.88,0,10.31-.02,3.26-.91,6.22-3.24,8.61-1.79,1.83-4.04,2.89-6.47,3.61-2.4.72-4.87,1.12-7.37,1.24-4.05.2-8.11.3-12.14-.36-2.44-.4-4.81-1.03-7.01-2.19-3.99-2.09-6.31-5.4-6.81-9.83-.29-2.54-.32-5.13-.2-7.69.21-4.34,3.99-7.57,8.46-7.44,4.25.12,7.74,3.68,7.78,7.94.02,1.74,0,3.47,0,5.21,0,.33,0,.65.02.98.19,2.29,1.3,3.61,3.57,4,.95.16,1.96.18,2.91.05,2.19-.3,3.41-1.7,3.71-4.04.04-.36.06-.72.06-1.08,0-2.46.06-4.92-.03-7.38-.11-3.22-1.5-5.84-3.99-7.88-4.93-4.03-9.87-8.05-14.8-12.1-.89-.73-1.74-1.53-2.58-2.33-3.01-2.89-4.4-6.48-4.44-10.61-.03-2.93-.08-5.86.02-8.79.05-1.54.26-3.11.65-4.6.94-3.58,3.22-6.08,6.59-7.6,2.5-1.13,5.16-1.64,7.87-1.94,3.18-.36,6.36-.34,9.55-.21,3.45.14,6.85.67,10.05,2.04,4.21,1.8,6.94,4.86,7.88,9.4.15.73.23,1.48.34,2.23v4.34Z"/>
          <path class="cls-1" d="M227.4,82.3c0,14.04,0,28.09,0,42.13,0,.43,0,.87-.06,1.3-.28,1.84-1.51,3.05-3.36,3.33-.39.06-.79.09-1.19.09-3.04,0-6.09,0-9.13,0-.43,0-.87-.03-1.3-.1-1.89-.3-3.23-1.82-3.32-3.73-.01-.33,0-.65,0-.98,0-11.91,0-23.82-.01-35.72,0-.64-.04-1.32-.26-1.91-.57-1.53-1.71-2.4-3.36-2.49-1.01-.05-2.03-.05-3.04,0-1.93.09-3.48,1.62-3.6,3.55-.02.36,0,.72,0,1.09,0,11.91,0,23.82,0,35.72,0,.61-.04,1.24-.21,1.82-.44,1.43-1.44,2.31-2.9,2.63-.46.1-.93.13-1.4.13-3.15.01-6.3.02-9.45,0-.68,0-1.39-.09-2.01-.34-1.52-.59-2.33-1.77-2.45-3.4-.02-.22,0-.43,0-.65,0-23.56,0-47.13,0-70.69,0-.5,0-1.02.13-1.5.47-1.75,1.92-2.84,3.77-2.84,3.51-.01,7.03.05,10.54-.03,1.8-.04,3.98,1.41,3.99,3.99,0,3.08,0,6.15,0,9.23,0,1.45-.01,2.9,0,4.34.03,2.26,1.63,3.89,3.9,3.95.76.02,1.52.01,2.28,0,2.46-.03,4.09-1.63,4.09-4.09.01-5.18,0-10.35,0-15.53,0-4.02-.01-8.04,0-12.05,0-2.05,1.24-3.6,3.14-4.01.38-.08.79-.08,1.19-.08,3.22,0,6.45.07,9.67-.03,2.18-.07,4.39,1.46,4.38,4.43-.04,14.15-.02,28.3-.02,42.46Z"/>
          <path class="cls-1" d="M287.22,95.17c0-9.45,0-18.9,0-28.34,0-2.31.33-4.54,1.28-6.66,1.34-2.97,3.62-5.02,6.49-6.46,2.68-1.34,5.56-2.04,8.52-2.44,4.25-.57,8.52-.61,12.79-.2,2.64.25,5.23.76,7.71,1.73,5.88,2.3,9.05,6.76,9.15,13.07.07,4.74.04,9.48,0,14.23-.02,2.52-.66,4.87-2.31,6.85-.3.36-.65.68-.98,1.01-1.79,1.72-1.74,4.29.13,5.93.11.1.22.19.34.27,2.37,1.76,3.4,4.17,3.41,7.05.02,7.13,0,14.26,0,21.39,0,.8,0,1.59,0,2.39-.03,2.22-1.39,3.77-3.57,4.06-.43.06-.86.08-1.3.08-2.61,0-5.22,0-7.83,0-.33,0-.65,0-.98-.03-2.53-.26-3.9-1.77-3.9-4.31,0-7.2.01-14.41-.02-21.61,0-1.07-.14-2.17-.38-3.22-.89-3.74-4.42-4.71-7.05-4.28-1.81.29-3.03,1.77-3.18,3.63-.03.36-.02.72-.02,1.09,0,8.18-.02,16.36.02,24.54,0,1.44-.82,3.24-2.49,3.84-.57.2-1.2.32-1.8.33-3.26.03-6.52.03-9.78,0-1.19,0-2.28-.34-3.14-1.25-.65-.68-1.04-1.47-1.09-2.42-.02-.4-.02-.8-.02-1.19,0-9.7,0-19.4,0-29.1ZM305.52,74.07c0,2.93.02,5.86,0,8.79-.02,2.26,1.74,4.27,4.21,4.11.47-.03.94-.03,1.41-.08,2.59-.32,4.27-1.82,4.79-4.32.15-.74.24-1.51.24-2.26.02-4.96.02-9.91,0-14.87,0-.5-.07-1.01-.17-1.5-.29-1.62-1.26-2.68-2.83-3.09-.86-.22-1.79-.31-2.68-.3-3.38.06-4.95,1.69-4.96,5.07,0,2.82,0,5.64,0,8.47Z"/>
          <path class="cls-1" d="M616.35,95.35c0-9.56,0-19.11,0-28.67,0-3.32.84-6.37,2.98-8.98,1.75-2.13,4.02-3.51,6.56-4.49,2.9-1.12,5.92-1.64,9-1.91,3.87-.34,7.74-.31,11.59.19,3.22.42,6.34,1.17,9.16,2.85,3.67,2.18,5.75,5.42,6.35,9.61.15,1.03.21,2.09.22,3.13.02,4.27.03,8.54,0,12.81,0,.97-.1,1.95-.28,2.91-.4,2.08-1.36,3.86-2.93,5.32-1.96,1.82-1.88,4.48.25,6.11,2.52,1.92,3.56,4.45,3.55,7.54-.01,7.67-.01,15.35,0,23.02,0,1.33-.3,2.5-1.33,3.42-.7.63-1.51,1-2.46,1-3.33.01-6.67.03-10,0-1.99-.02-3.57-1.55-3.75-3.53-.04-.47-.04-.94-.04-1.41,0-7.09.02-14.19-.03-21.28,0-1.14-.22-2.31-.55-3.4-.54-1.78-1.8-2.95-3.61-3.43-.76-.2-1.56-.35-2.35-.37-2.16-.05-3.88,1.56-4.06,3.72-.03.36-.02.72-.02,1.09,0,8.18-.02,16.36.02,24.54,0,1.69-1.08,3.48-2.94,3.95-.41.1-.86.12-1.29.12-3.26,0-6.52-.08-9.78.03-2.46.08-4.32-1.91-4.3-4.27.07-9.88.03-19.76.03-29.65ZM634.61,74.21c0,2.97,0,5.93,0,8.9,0,2.41,1.91,4.23,4.12,4.07.5-.04,1.02-.03,1.52-.09,2.58-.32,4.27-1.85,4.76-4.35.14-.74.21-1.51.21-2.26.02-3.76,0-7.52,0-11.29,0-1.3.02-2.61,0-3.91-.05-2.45-1.28-3.92-3.69-4.38-.6-.12-1.22-.12-1.84-.12-3.45.03-5.07,1.65-5.08,5.06,0,2.79,0,5.57,0,8.36Z"/>
          <path class="cls-1" d="M280.12,90.05c0,7.78,0,15.56,0,23.34,0,1.6-.14,3.18-.58,4.72-.92,3.21-2.84,5.65-5.66,7.41-2.69,1.68-5.67,2.56-8.77,3-5.55.8-11.11.79-16.65-.19-1.89-.33-3.73-.86-5.5-1.63-5.66-2.46-8.45-6.81-8.49-12.93-.04-6.8,0-13.61,0-20.41,0-9.05,0-18.09,0-27.14,0-2.15.36-4.25,1.24-6.23,1.3-2.91,3.51-4.91,6.31-6.32,2.69-1.35,5.57-2.02,8.52-2.4,3.89-.5,7.79-.56,11.7-.21,3.66.33,7.24,1.02,10.54,2.74,4.61,2.4,7.02,6.22,7.28,11.39.1,1.95.05,3.91.05,5.86,0,6.33,0,12.67,0,19ZM262.56,90.06c0-8.1,0-16.2,0-24.31,0-.61,0-1.23-.07-1.84-.22-1.65-1.1-2.81-2.71-3.32-1.45-.47-2.92-.46-4.39-.1-1.67.41-2.71,1.47-2.99,3.19-.09.53-.13,1.08-.13,1.61,0,16.46,0,32.92,0,49.37,0,.25,0,.51,0,.76.11,2.26,1.24,3.66,3.47,4.07.95.17,1.96.22,2.91.1,2.55-.33,3.74-1.69,3.89-4.26.02-.4.03-.79.03-1.19,0-8.03,0-16.06,0-24.09Z"/>
          <path class="cls-1" d="M358.81,86.99c0,8.98,0,17.95,0,26.93,0,.72.06,1.45.16,2.16.24,1.75,1.23,2.81,2.94,3.19,1.22.28,2.44.27,3.66-.01,1.73-.41,2.77-1.54,2.99-3.29.07-.54.07-1.08.07-1.63,0-17.81,0-35.62.02-53.42,0-1.21.12-2.48.47-3.63,1.38-4.54,6.01-6.77,10.04-6.06,4.15.74,7.33,4.39,7.34,8.72.02,8.25,0,16.5,0,24.76,0,9.59.02,19.18-.02,28.77,0,1.36-.17,2.75-.47,4.08-1.03,4.52-3.92,7.46-8.1,9.25-2.58,1.11-5.31,1.69-8.09,1.96-1.84.18-3.68.34-5.52.33-4.97-.02-9.92-.32-14.59-2.26-3.78-1.57-6.62-4.1-8.03-8.04-.67-1.9-.91-3.87-.91-5.87-.01-17.52-.01-35.04,0-52.55,0-4.42,2.59-7.88,6.64-8.98,5.05-1.37,10.11,1.64,11.22,6.71.15.66.17,1.36.17,2.05.01,8.94,0,17.88,0,26.82Z"/>
          <path class="cls-1" d="M609.22,90.16c0,8.03.01,16.07,0,24.1,0,3.79-1.27,7.09-4.08,9.71-1.81,1.68-3.98,2.74-6.31,3.51-2.63.87-5.34,1.33-8.09,1.47-3.94.2-7.89.24-11.81-.38-2.77-.44-5.46-1.12-7.95-2.43-4.48-2.36-6.83-6.1-7.18-11.12-.03-.5-.04-1.01-.04-1.52,0-15.63,0-31.27,0-46.9,0-2.23.33-4.39,1.26-6.44,1.36-3.02,3.71-5.03,6.64-6.43,2.61-1.24,5.39-1.87,8.24-2.23,3.82-.48,7.65-.55,11.48-.2,3.48.31,6.89.94,10.06,2.48,5.11,2.49,7.75,6.59,7.78,12.28.04,8.03,0,16.07,0,24.1ZM581.49,90.14c0,8.11,0,16.21,0,24.32,0,.51,0,1.01.06,1.52.17,1.79,1.19,3.03,2.93,3.49,1.39.37,2.8.37,4.19.02,1.68-.43,2.69-1.49,2.95-3.22.08-.53.13-1.08.13-1.62,0-16.36,0-32.71,0-49.07,0-.29.01-.58,0-.87-.13-1.79-.82-3.24-2.64-3.86-1.69-.57-3.42-.56-5.11.05-1.17.42-1.97,1.24-2.26,2.45-.17.73-.24,1.5-.24,2.25-.02,8.18-.01,16.36-.01,24.53Z"/>
          <path class="cls-1" d="M510.14,95.67c0-9.63-.01-19.25,0-28.88,0-3.66.94-7.01,3.48-9.78,1.7-1.85,3.82-3.08,6.15-3.97,2.62-1,5.34-1.62,8.14-1.78,3-.17,6-.28,9-.2,3.93.1,7.78.73,11.4,2.38,5.15,2.34,7.92,6.35,8.29,11.99.07,1.12.1,2.24.1,3.36.01,5.64.02,11.29,0,16.93,0,2.47-.36,4.9-1.33,7.2-1.81,4.31-5.03,7.17-9.29,8.93-3.02,1.25-6.18,1.77-9.42,1.85-1.37.04-2.74-.07-4.12-.11-1.86-.06-3.44,1.06-3.9,2.82-.13.48-.13,1-.13,1.5,0,5.68-.01,11.36,0,17.04,0,1.3-.34,2.43-1.33,3.31-.67.59-1.45.95-2.37.95-3.66,0-7.32.03-10.97,0-1.96-.02-3.5-1.56-3.68-3.59-.03-.36-.01-.72-.01-1.08,0-9.63,0-19.25,0-28.88ZM528.5,77.43c0,4.16-.02,8.32,0,12.48.01,2.27,1.87,4.01,4.08,3.86,4.92-.33,6.54-3.78,6.5-6.91-.09-7.05-.03-14.11-.03-21.16,0-.4,0-.8-.03-1.19-.19-1.75-1.07-2.96-2.78-3.51-1.56-.5-3.14-.51-4.71-.07-1.81.5-2.76,1.76-2.99,3.59-.05.39-.04.79-.04,1.19,0,3.91,0,7.81,0,11.72Z"/>
          <path class="cls-1" d="M437.24,110.03c0,1.66.07,3.33-.02,4.99-.07,1.36-.19,2.75-.52,4.07-.88,3.53-3.16,5.95-6.4,7.49-2.68,1.28-5.55,1.85-8.47,2.18-3.32.38-6.65.36-9.98.22-3.34-.14-6.63-.67-9.74-1.96-4.95-2.06-7.84-5.72-8.34-11.08-.22-2.41-.27-4.85-.14-7.26.21-3.98,3.65-7.26,7.6-7.47,4.27-.23,7.89,2.56,8.64,6.65.11.6.16,1.22.17,1.83.02,1.81,0,3.62.01,5.43.03,2.55,1.24,3.98,3.75,4.37.81.13,1.67.17,2.48.07,2.5-.32,3.77-1.69,4.02-4.21.05-.5.07-1.01.07-1.52,0-2.06,0-4.13,0-6.19,0-3.55-1.36-6.46-4.11-8.71-5.05-4.12-10.11-8.23-15.13-12.37-1.03-.85-2-1.78-2.92-2.75-2.09-2.19-3.4-4.81-3.69-7.81-.42-4.47-.47-8.97.01-13.44.62-5.75,4.03-9.25,9.5-10.86,2.62-.77,5.31-1.14,8.02-1.27,3.73-.17,7.46-.2,11.16.38,2.55.4,5.03,1.04,7.33,2.24,3.98,2.09,6.24,5.4,6.89,9.81.31,2.11.46,4.25.04,6.37-.76,3.81-4.25,6.57-8.14,6.5-3.97-.07-7.35-2.96-7.97-6.84-.1-.64-.14-1.29-.16-1.94-.03-1.05.03-2.1-.02-3.15-.09-1.95-1.14-3.25-3.02-3.77-1.39-.39-2.79-.39-4.18-.01-1.79.49-2.94,1.74-3.01,3.67-.1,2.93-.08,5.86.03,8.79.06,1.67.81,3.14,2.08,4.29.78.7,1.57,1.4,2.38,2.05,4.94,3.97,9.88,7.93,14.84,11.88,2.57,2.05,4.62,4.48,5.77,7.6.81,2.19,1.15,4.47,1.17,6.81.01,1.63,0,3.26,0,4.89Z"/>
          <path class="cls-1" d="M503.16,110.46c0,1.66.07,3.33-.02,4.99-.07,1.36-.19,2.75-.52,4.07-.88,3.53-3.16,5.95-6.4,7.49-2.68,1.28-5.55,1.85-8.47,2.18-3.32.38-6.65.36-9.98.22-3.34-.14-6.63-.67-9.74-1.96-4.95-2.06-7.84-5.72-8.34-11.08-.22-2.41-.27-4.85-.14-7.26.21-3.98,3.65-7.26,7.6-7.47,4.27-.23,7.89,2.56,8.64,6.65.11.6.16,1.22.17,1.83.02,1.81,0,3.62.01,5.43.03,2.55,1.24,3.98,3.75,4.37.81.13,1.67.17,2.48.07,2.5-.32,3.77-1.69,4.02-4.21.05-.5.07-1.01.07-1.52,0-2.06,0-4.13,0-6.19,0-3.55-1.36-6.46-4.11-8.71-5.05-4.12-10.11-8.23-15.13-12.37-1.03-.85-2-1.78-2.92-2.75-2.09-2.19-3.4-4.81-3.69-7.81-.42-4.47-.47-8.97.01-13.44.62-5.75,4.03-9.25,9.5-10.86,2.62-.77,5.31-1.14,8.02-1.27,3.73-.17,7.46-.2,11.16.38,2.55.4,5.03,1.04,7.33,2.24,3.98,2.09,6.24,5.4,6.89,9.81.31,2.11.46,4.25.04,6.37-.76,3.81-4.25,6.57-8.14,6.5-3.97-.07-7.35-2.96-7.97-6.84-.1-.64-.14-1.29-.16-1.94-.03-1.05.03-2.1-.02-3.15-.09-1.95-1.14-3.25-3.02-3.77-1.39-.39-2.79-.39-4.18-.01-1.79.49-2.94,1.74-3.01,3.67-.1,2.93-.08,5.86.03,8.79.06,1.67.81,3.14,2.08,4.29.78.7,1.57,1.4,2.38,2.05,4.94,3.97,9.88,7.93,14.84,11.88,2.57,2.05,4.62,4.48,5.77,7.6.81,2.19,1.15,4.47,1.17,6.81.01,1.63,0,3.26,0,4.89Z"/>
          <path class="cls-1" d="M669.91,86.51c0-11.87,0-23.74-.01-35.62,0-.75-.05-1.53-.25-2.25-.73-2.63-3.06-4.37-5.78-4.42-1.19-.02-2.39,0-3.58-.12-3.12-.3-5.46-2.93-5.49-6.11-.03-3.17,2.24-5.85,5.34-6.26.5-.07,1.01-.09,1.52-.09,11.77,0,23.54,0,35.32-.01,2.1,0,3.95.55,5.34,2.19,1.61,1.9,1.99,4.09,1.08,6.39-.91,2.31-2.67,3.65-5.17,3.9-1.04.1-2.1.1-3.14.1-3.53.03-6.17,2.59-6.3,6.13-.01.33,0,.65,0,.98,0,23.71,0,47.41.01,71.12,0,1.7-.39,3.22-1.53,4.51-1.19,1.34-2.66,2.09-4.48,2.1-2.17,0-4.35-.09-6.52.02-2.72.14-6.15-1.95-6.35-6.09-.02-.33,0-.65,0-.98,0-11.84,0-23.67,0-35.51Z"/>
        </g>
        <g>
          <path class="cls-1" d="M130.09,97.54c-8.26-8.73-21.13-12.93-32.99-10.71V27.44c0-.54-.43-.97-.97-.97h-19.27c-.54,0-.97.43-.97.97v104.27c0,.54.43.97.97.97h19.27c.54,0,.97-.43.97-.97l.04-24.41c7.94-2.73,17.68,2.01,20.34,9.9,2.66,7.9-2.24,17.48-10.24,20.03-3.17,1.01-6.57,1.01-9.9,1-18.18-.06-36.37-.11-54.55-.17-3.49-.01-7.06-.03-10.35-1.2-3.23-1.15-6.05-3.4-7.86-6.29-3.06-4.88-3.09-10.99-3.03-16.73.09-8.1.18-16.21.28-24.31,0-.78,0-1.6-.4-2.26-.47-.77-1.38-1.15-2.21-1.51-1.79-.76-3.53-1.64-5.21-2.63-1.69-.99-3.31-2.08-4.86-3.27-1.55-1.19-3.02-2.47-4.41-3.84-1.39-1.37-2.69-2.83-3.89-4.36-.15-.19-.3-.38-.45-.58-.03-.04-.14-.24-.2-.22-.05.02-.02.36-.02.42,0,.59,0,1.18,0,1.77,0,1.18,0,2.37-.01,3.55,0,2.37-.02,4.73-.03,7.1s-.02,4.73-.03,7.1c0,2.37-.02,4.73-.03,7.1,0,2.37-.02,4.73-.03,7.1s-.02,4.73-.03,7.1c0,.73,0,1.47,0,2.2-.02,5.97-.04,12.02,1.5,17.79,3.64,13.73,16.32,24.33,30.45,26.73,4.46.76,9.01.78,13.54.8,14.49.06,28.99.12,43.48.18,9.06.04,18.36.04,26.85-3.12,11.31-4.2,20.28-14.17,23.11-25.8,1.22-5.01,1.28-10.26.3-15.31-1.3-6.69-4.43-13.04-9.14-18.01Z"/>
          <path class="cls-1" d="M140.2,34.5c0-1.12-.18-2.24-.12-3.35.15-2.86-.19-5.65-1.05-8.37-2.26-7.15-6.91-12.44-13.18-16.43C118.77,1.84,110.91,0,102.56,0c-23.15,0-46.3-.02-69.45,0-8.37,0-15.83,2.68-22.2,8.04C3.8,14.05.1,21.7.1,31.02c0,3.72-.04,7.44.02,11.16.03,1.53.18,3.07.45,4.57,1.37,7.71,5.46,13.82,11.73,18.41,8.17,5.98,17.37,9.25,27.62,9.31.99,0,1.98,0,3.11,0v56.29c0,1.05.86,1.91,1.93,1.91h17.42c1.06,0,1.93-.85,1.93-1.91V44.16c0-1.05-.86-1.91-1.93-1.91h-17.42c-1.06,0-1.93.85-1.93,1.91v10.57c-2.23.4-4.27.36-6.34.05-9.76-1.46-16.27-11.07-13.89-20.54,1.91-7.61,9.07-13.15,17.03-13.15,19.87,0,39.74,0,59.6,0,1.07,0,2.14.07,3.21.21,9.19,1.14,15.87,8.64,15.87,17.82,0,10.81,0,21.61,0,32.42v1.97c8.92,3.64,15.99,9.39,21.34,17.24.12-.05.24-.1.37-.15v-1.88c0-18.07,0-36.14,0-54.21Z"/>
        </g>
      </g>
    </g>
  </g>
</svg>