<?xml version="1.0" encoding="UTF-8"?>
<svg xmlns="http://www.w3.org/2000/svg" version="1.1" viewBox="0 0 380.08 400">
  <defs>
    <style>
      .cls-1 {
        fill: #f5f5f5;
      }

      .cls-2 {
        fill: #f20574;
      }
    </style>
  </defs>
  <!-- Generator: Adobe Illustrator 28.6.0, SVG Export Plug-In . SVG Version: 1.2.0 Build 709)  -->
  <g>
    <g id="Capa_1">
      <g>
        <path class="cls-1" d="M380.08,358.92c-.09.38-.17.76-.29,1.13-1.24,3.7-6.11,4.92-8.95,2.25-1.21-1.14-1.82-2.54-1.82-4.2,0-.71.01-1.43,0-2.14-.04-1.62-.82-2.59-2.42-2.86-.67-.11-1.38-.11-2.05-.01-1.47.22-2.36,1.06-2.43,2.54-.1,1.98-.04,3.98.03,5.97.05,1.35.77,2.41,1.8,3.26.83.69,1.68,1.37,2.52,2.05,2.92,2.34,5.83,4.69,8.76,7.01,3.08,2.44,4.58,5.63,4.58,9.54,0,2.34,0,4.67,0,7.01-.01,2.22-.62,4.23-2.2,5.85-1.22,1.25-2.75,1.96-4.4,2.46-1.63.49-3.31.76-5.01.85-2.75.14-5.51.2-8.25-.25-1.66-.27-3.27-.7-4.77-1.48-2.71-1.42-4.29-3.67-4.63-6.68-.19-1.73-.22-3.49-.13-5.22.14-2.95,2.71-5.15,5.75-5.06,2.89.08,5.26,2.5,5.29,5.4.01,1.18,0,2.36,0,3.54,0,.22,0,.44.01.66.13,1.56.88,2.45,2.42,2.72.64.11,1.33.12,1.98.04,1.49-.2,2.32-1.15,2.52-2.75.03-.24.04-.49.04-.74,0-1.67.04-3.34-.02-5.01-.07-2.19-1.02-3.97-2.71-5.35-3.35-2.74-6.71-5.47-10.06-8.22-.61-.5-1.18-1.04-1.75-1.58-2.05-1.96-2.99-4.4-3.02-7.21-.02-1.99-.05-3.99.02-5.98.04-1.05.18-2.11.44-3.13.64-2.43,2.19-4.13,4.48-5.16,1.7-.77,3.51-1.11,5.35-1.32,2.16-.24,4.32-.23,6.49-.14,2.35.09,4.65.45,6.83,1.38,2.86,1.22,4.72,3.3,5.36,6.39.1.5.16,1.01.23,1.51v2.95Z"/>
        <path class="cls-1" d="M32,367.91c0,9.54,0,19.09,0,28.63,0,.29,0,.59-.04.88-.19,1.25-1.03,2.07-2.28,2.26-.27.04-.54.06-.81.06-2.07,0-4.14,0-6.2,0-.29,0-.59-.02-.88-.07-1.29-.21-2.2-1.23-2.26-2.54-.01-.22,0-.44,0-.66,0-8.09,0-16.19,0-24.28,0-.44-.03-.9-.18-1.3-.38-1.04-1.16-1.63-2.28-1.69-.69-.04-1.38-.03-2.07,0-1.31.06-2.36,1.1-2.45,2.41-.02.24,0,.49,0,.74,0,8.09,0,16.19,0,24.28,0,.41-.02.84-.14,1.24-.3.97-.98,1.57-1.97,1.79-.31.07-.63.09-.95.09-2.14,0-4.28.02-6.42,0-.46,0-.95-.06-1.37-.23-1.03-.4-1.58-1.2-1.66-2.31-.01-.15,0-.3,0-.44,0-16.01,0-32.03,0-48.04,0-.34,0-.7.09-1.02.32-1.19,1.31-1.93,2.56-1.93,2.39,0,4.78.03,7.16-.02,1.22-.03,2.71.96,2.71,2.71,0,2.09,0,4.18,0,6.27,0,.98,0,1.97,0,2.95.02,1.54,1.11,2.64,2.65,2.69.52.01,1.03,0,1.55,0,1.67-.02,2.78-1.11,2.78-2.78,0-3.52,0-7.03,0-10.55,0-2.73,0-5.46,0-8.19,0-1.39.84-2.45,2.13-2.72.26-.06.54-.06.81-.06,2.19,0,4.38.05,6.57-.02,1.48-.05,2.98.99,2.97,3.01-.03,9.62-.01,19.24-.01,28.85Z"/>
        <path class="cls-1" d="M72.65,376.66c0-6.42,0-12.84,0-19.26,0-1.57.22-3.09.87-4.52.91-2.02,2.46-3.41,4.41-4.39,1.82-.91,3.78-1.39,5.79-1.66,2.89-.39,5.79-.42,8.69-.14,1.79.17,3.55.52,5.24,1.18,4,1.57,6.15,4.6,6.22,8.88.05,3.22.03,6.45,0,9.67-.01,1.71-.45,3.31-1.57,4.66-.2.24-.44.46-.67.69-1.22,1.17-1.18,2.91.09,4.03.07.06.15.13.23.19,1.61,1.19,2.31,2.83,2.32,4.79.01,4.85,0,9.69,0,14.54,0,.54,0,1.08,0,1.62-.02,1.51-.94,2.56-2.43,2.76-.29.04-.59.06-.88.06-1.77,0-3.55,0-5.32,0-.22,0-.44,0-.66-.02-1.72-.18-2.65-1.2-2.65-2.93,0-4.9,0-9.79-.01-14.69,0-.73-.09-1.48-.26-2.19-.6-2.54-3.01-3.2-4.79-2.91-1.23.2-2.06,1.2-2.16,2.47-.02.24-.01.49-.01.74,0,5.56-.02,11.12.01,16.68,0,.98-.56,2.2-1.69,2.61-.39.14-.81.22-1.22.22-2.22.02-4.43.02-6.65,0-.81,0-1.55-.23-2.13-.85-.44-.46-.71-1-.74-1.64-.01-.27-.01-.54-.01-.81,0-6.59,0-13.19,0-19.78ZM85.09,362.32c0,1.99.01,3.98,0,5.97-.01,1.54,1.18,2.9,2.86,2.79.32-.02.64-.02.96-.06,1.76-.22,2.9-1.24,3.25-2.94.1-.5.16-1.02.16-1.54.01-3.37.01-6.74,0-10.11,0-.34-.05-.69-.11-1.02-.2-1.1-.86-1.82-1.93-2.1-.59-.15-1.21-.21-1.82-.2-2.3.04-3.37,1.15-3.37,3.44,0,1.92,0,3.84,0,5.75Z"/>
        <path class="cls-1" d="M296.33,376.78c0-6.49,0-12.99,0-19.48,0-2.25.57-4.33,2.03-6.1,1.19-1.44,2.73-2.39,4.45-3.05,1.97-.76,4.03-1.11,6.11-1.3,2.63-.23,5.26-.21,7.88.13,2.19.28,4.31.8,6.23,1.94,2.49,1.48,3.91,3.68,4.31,6.53.1.7.14,1.42.15,2.13.02,2.9.02,5.81,0,8.71,0,.66-.07,1.33-.19,1.98-.27,1.41-.92,2.62-1.99,3.62-1.33,1.24-1.28,3.05.17,4.15,1.71,1.31,2.42,3.03,2.41,5.12,0,5.21,0,10.43,0,15.64,0,.9-.21,1.7-.9,2.33-.48.43-1.03.68-1.67.68-2.26,0-4.53.02-6.79,0-1.35-.01-2.43-1.05-2.55-2.4-.03-.32-.03-.64-.03-.96,0-4.82.02-9.64-.02-14.46,0-.77-.15-1.57-.37-2.31-.37-1.21-1.22-2-2.46-2.33-.52-.14-1.06-.24-1.6-.25-1.47-.03-2.64,1.06-2.76,2.53-.02.24-.01.49-.01.74,0,5.56-.02,11.12.01,16.68,0,1.15-.73,2.37-2,2.69-.28.07-.58.08-.88.08-2.22,0-4.43-.05-6.65.02-1.67.06-2.93-1.3-2.92-2.9.05-6.72.02-13.43.02-20.15ZM308.74,362.42c0,2.02,0,4.03,0,6.05,0,1.64,1.3,2.88,2.8,2.77.34-.02.69-.02,1.03-.06,1.75-.22,2.9-1.26,3.23-2.96.1-.5.14-1.02.14-1.54.01-2.56,0-5.11,0-7.67,0-.89.02-1.77,0-2.66-.04-1.67-.87-2.66-2.5-2.98-.41-.08-.83-.08-1.25-.08-2.34.02-3.45,1.12-3.45,3.44,0,1.89,0,3.79,0,5.68Z"/>
        <path class="cls-1" d="M67.83,373.18c0,5.29,0,10.58,0,15.86,0,1.09-.09,2.16-.39,3.21-.62,2.18-1.93,3.84-3.85,5.03-1.83,1.14-3.86,1.74-5.96,2.04-3.77.55-7.55.54-11.31-.13-1.29-.23-2.54-.59-3.74-1.11-3.85-1.67-5.74-4.63-5.77-8.79-.03-4.62,0-9.25,0-13.87,0-6.15,0-12.3,0-18.45,0-1.46.24-2.89.84-4.23.88-1.98,2.39-3.34,4.29-4.29,1.83-.91,3.78-1.38,5.79-1.63,2.64-.34,5.3-.38,7.95-.14,2.49.23,4.92.69,7.16,1.86,3.13,1.63,4.77,4.23,4.94,7.74.07,1.33.03,2.66.03,3.98,0,4.3,0,8.61,0,12.91ZM55.9,373.19c0-5.51,0-11.01,0-16.52,0-.42,0-.84-.05-1.25-.15-1.12-.74-1.91-1.84-2.26-.98-.32-1.99-.31-2.98-.07-1.14.28-1.84,1-2.03,2.17-.06.36-.09.73-.09,1.1,0,11.18,0,22.37,0,33.55,0,.17,0,.34,0,.52.07,1.54.84,2.49,2.36,2.77.64.12,1.33.15,1.98.07,1.73-.22,2.54-1.15,2.64-2.89.02-.27.02-.54.02-.81,0-5.46,0-10.91,0-16.37Z"/>
        <path class="cls-1" d="M121.31,371.1c0,6.1,0,12.2,0,18.3,0,.49.04.98.11,1.47.16,1.19.83,1.91,2,2.17.83.19,1.66.19,2.49,0,1.17-.28,1.88-1.05,2.03-2.24.05-.36.04-.74.05-1.1,0-12.1,0-24.2.02-36.31,0-.83.08-1.69.32-2.47.94-3.09,4.08-4.6,6.82-4.12,2.82.5,4.98,2.98,4.99,5.93.01,5.61,0,11.22,0,16.82,0,6.52.01,13.04-.01,19.55,0,.93-.12,1.87-.32,2.77-.7,3.07-2.67,5.07-5.51,6.29-1.76.75-3.61,1.15-5.5,1.33-1.25.12-2.5.23-3.75.23-3.38-.01-6.74-.22-9.92-1.54-2.57-1.07-4.5-2.79-5.46-5.46-.46-1.29-.62-2.63-.62-3.99,0-11.91,0-23.81,0-35.72,0-3,1.76-5.35,4.51-6.1,3.43-.93,6.87,1.12,7.63,4.56.1.45.12.93.12,1.39,0,6.08,0,12.15,0,18.23Z"/>
        <path class="cls-1" d="M291.48,373.25c0,5.46,0,10.92,0,16.38,0,2.58-.86,4.82-2.78,6.6-1.23,1.14-2.71,1.86-4.29,2.39-1.79.59-3.63.91-5.5,1-2.68.14-5.36.16-8.03-.26-1.88-.3-3.71-.76-5.4-1.65-3.05-1.6-4.64-4.14-4.88-7.56-.02-.34-.02-.69-.02-1.03,0-10.63,0-21.25,0-31.88,0-1.52.23-2.99.85-4.38.93-2.05,2.52-3.42,4.51-4.37,1.77-.84,3.66-1.27,5.6-1.51,2.6-.33,5.2-.37,7.8-.14,2.36.21,4.68.64,6.84,1.68,3.47,1.69,5.27,4.48,5.29,8.34.02,5.46,0,10.92,0,16.38ZM272.64,373.24c0,5.51,0,11.02,0,16.53,0,.34,0,.69.04,1.03.12,1.22.81,2.06,1.99,2.37.94.25,1.9.25,2.85.01,1.14-.29,1.83-1.01,2.01-2.19.06-.36.09-.73.09-1.1,0-11.12,0-22.23,0-33.35,0-.2.01-.39,0-.59-.09-1.22-.56-2.2-1.79-2.62-1.15-.39-2.32-.38-3.47.03-.79.28-1.34.84-1.53,1.67-.12.5-.16,1.02-.16,1.53-.01,5.56,0,11.12,0,16.67Z"/>
        <path class="cls-1" d="M224.15,377c0-6.54,0-13.08,0-19.62,0-2.48.64-4.76,2.37-6.64,1.16-1.26,2.6-2.09,4.18-2.7,1.78-.68,3.63-1.1,5.53-1.21,2.04-.12,4.08-.19,6.12-.14,2.67.07,5.29.5,7.75,1.62,3.5,1.59,5.38,4.31,5.63,8.15.05.76.07,1.52.07,2.28,0,3.84.01,7.67,0,11.51,0,1.68-.25,3.33-.9,4.9-1.23,2.93-3.42,4.87-6.31,6.07-2.05.85-4.2,1.2-6.4,1.26-.93.02-1.87-.05-2.8-.08-1.27-.04-2.34.72-2.65,1.92-.09.33-.09.68-.09,1.02,0,3.86,0,7.72,0,11.58,0,.88-.23,1.65-.91,2.25-.46.4-.99.64-1.61.64-2.49,0-4.97.02-7.46,0-1.33-.01-2.38-1.06-2.5-2.44-.02-.24,0-.49,0-.74,0-6.54,0-13.08,0-19.62ZM236.63,364.61c0,2.83-.01,5.65,0,8.48,0,1.54,1.27,2.72,2.77,2.62,3.35-.22,4.44-2.57,4.42-4.69-.06-4.79-.02-9.59-.02-14.38,0-.27,0-.54-.02-.81-.13-1.19-.73-2.01-1.89-2.39-1.06-.34-2.13-.34-3.2-.05-1.23.34-1.88,1.2-2.03,2.44-.03.27-.03.54-.03.81,0,2.66,0,5.31,0,7.97Z"/>
        <path class="cls-1" d="M174.61,386.76c0,1.13.04,2.27-.01,3.39-.05.93-.13,1.87-.35,2.77-.6,2.4-2.15,4.04-4.35,5.09-1.82.87-3.77,1.26-5.76,1.48-2.26.26-4.52.24-6.78.15-2.27-.09-4.5-.45-6.62-1.33-3.36-1.4-5.33-3.89-5.67-7.53-.15-1.63-.18-3.29-.1-4.93.14-2.71,2.48-4.93,5.16-5.07,2.9-.15,5.36,1.74,5.87,4.52.07.41.11.83.11,1.24.01,1.23,0,2.46,0,3.69.02,1.73.84,2.71,2.55,2.97.55.09,1.13.12,1.68.05,1.7-.22,2.56-1.15,2.73-2.86.03-.34.05-.69.05-1.03,0-1.4,0-2.8,0-4.21,0-2.41-.92-4.39-2.8-5.92-3.43-2.8-6.87-5.59-10.29-8.41-.7-.58-1.36-1.21-1.98-1.87-1.42-1.49-2.31-3.27-2.5-5.31-.29-3.04-.32-6.1,0-9.13.42-3.91,2.74-6.28,6.46-7.38,1.78-.53,3.61-.77,5.45-.86,2.53-.12,5.07-.14,7.58.26,1.73.27,3.42.7,4.98,1.53,2.71,1.42,4.24,3.67,4.68,6.66.21,1.44.31,2.89.02,4.33-.52,2.59-2.89,4.47-5.53,4.42-2.7-.05-5-2.01-5.42-4.65-.07-.43-.1-.88-.11-1.32-.02-.71.02-1.43-.01-2.14-.06-1.32-.77-2.21-2.05-2.56-.94-.26-1.9-.26-2.84,0-1.22.33-2,1.18-2.05,2.5-.07,1.99-.05,3.98.02,5.97.04,1.14.55,2.14,1.42,2.91.53.48,1.06.95,1.62,1.4,3.36,2.7,6.72,5.39,10.08,8.07,1.74,1.39,3.14,3.05,3.92,5.16.55,1.49.78,3.04.8,4.63,0,1.11,0,2.21,0,3.32Z"/>
        <path class="cls-1" d="M219.4,387.05c0,1.13.04,2.27-.01,3.39-.05.93-.13,1.87-.35,2.77-.6,2.4-2.15,4.04-4.35,5.09-1.82.87-3.77,1.26-5.76,1.48-2.26.26-4.52.24-6.78.15-2.27-.09-4.5-.45-6.62-1.33-3.36-1.4-5.33-3.89-5.67-7.53-.15-1.63-.18-3.29-.1-4.93.14-2.71,2.48-4.93,5.16-5.07,2.9-.15,5.36,1.74,5.87,4.52.07.41.11.83.11,1.24.01,1.23,0,2.46,0,3.69.02,1.73.84,2.71,2.55,2.97.55.09,1.13.12,1.68.05,1.7-.22,2.56-1.15,2.73-2.86.03-.34.05-.69.05-1.03,0-1.4,0-2.8,0-4.21,0-2.41-.92-4.39-2.8-5.92-3.43-2.8-6.87-5.59-10.29-8.41-.7-.58-1.36-1.21-1.98-1.87-1.42-1.49-2.31-3.27-2.5-5.31-.29-3.04-.32-6.1,0-9.13.42-3.91,2.74-6.28,6.46-7.38,1.78-.53,3.61-.77,5.45-.86,2.53-.12,5.07-.14,7.58.26,1.73.27,3.42.7,4.98,1.53,2.71,1.42,4.24,3.67,4.68,6.66.21,1.44.31,2.89.02,4.33-.52,2.59-2.89,4.47-5.53,4.42-2.7-.05-5-2.01-5.42-4.65-.07-.43-.1-.88-.11-1.32-.02-.71.02-1.43-.01-2.14-.06-1.32-.77-2.21-2.05-2.56-.94-.26-1.9-.26-2.84,0-1.22.33-2,1.18-2.05,2.5-.07,1.99-.05,3.98.02,5.97.04,1.14.55,2.14,1.42,2.91.53.48,1.06.95,1.62,1.4,3.36,2.7,6.72,5.39,10.08,8.07,1.74,1.39,3.14,3.05,3.92,5.16.55,1.49.78,3.04.8,4.63,0,1.11,0,2.21,0,3.32Z"/>
        <path class="cls-1" d="M332.72,370.77c0-8.07,0-16.14,0-24.2,0-.51-.04-1.04-.17-1.53-.5-1.79-2.08-2.97-3.93-3-.81-.02-1.63,0-2.43-.08-2.12-.2-3.71-1.99-3.73-4.15-.02-2.16,1.52-3.97,3.63-4.26.34-.05.69-.06,1.03-.06,8,0,16,0,24,0,1.43,0,2.68.38,3.63,1.49,1.1,1.29,1.35,2.78.74,4.34-.62,1.57-1.82,2.48-3.51,2.65-.71.07-1.42.06-2.14.07-2.4.02-4.19,1.76-4.28,4.16,0,.22,0,.44,0,.66,0,16.11,0,32.22,0,48.33,0,1.16-.26,2.19-1.04,3.06-.81.91-1.81,1.42-3.04,1.43-1.48,0-2.96-.06-4.43.02-1.85.09-4.18-1.33-4.32-4.14-.01-.22,0-.44,0-.66,0-8.04,0-16.09,0-24.13Z"/>
      </g>
      <path class="cls-1" d="M313.97,207.29c-2.33-12-7.95-23.39-16.39-32.31-14.82-15.66-37.93-23.21-59.22-19.21.03,12.23.07,24.47.1,36.7,14.24-4.9,31.71,3.6,36.49,17.76,4.78,14.16-4.01,31.36-18.37,35.93-5.69,1.81-11.78,1.81-17.76,1.79-32.62-.1-65.24-.2-97.86-.3-6.26-.02-12.67-.06-18.57-2.16-5.79-2.06-10.85-6.1-14.1-11.28-5.49-8.76-5.55-19.71-5.43-30.02.17-14.54.33-29.07.5-43.61.02-1.39,0-2.87-.72-4.06-.85-1.38-2.47-2.06-3.97-2.7-3.21-1.37-6.33-2.95-9.34-4.71-3.03-1.77-5.94-3.73-8.72-5.86-2.78-2.13-5.42-4.43-7.91-6.89-2.49-2.46-4.82-5.07-6.98-7.82-.27-.34-.54-.69-.8-1.04-.06-.08-.26-.43-.36-.39-.08.03-.03.65-.03.75,0,1.06,0,2.12-.01,3.18,0,2.12-.02,4.24-.02,6.37-.02,4.24-.03,8.49-.05,12.73-.02,4.24-.03,8.49-.05,12.73-.02,4.24-.03,8.49-.05,12.73-.02,4.24-.03,8.49-.05,12.73-.02,4.24-.03,8.49-.05,12.73,0,1.32-.01,2.63-.02,3.95-.04,10.71-.07,21.56,2.68,31.92,6.54,24.63,29.28,43.65,54.62,47.95,8,1.36,16.17,1.4,24.29,1.43,26,.11,52,.22,78,.33,16.26.07,32.94.07,48.17-5.59,20.29-7.54,36.38-25.42,41.46-46.29,2.19-8.98,2.3-18.4.54-27.47Z"/>
      <path class="cls-1" d="M315.71,61.88c0-2.01-.32-4.02-.21-6.02.27-5.13-.34-10.13-1.88-15.02-4.05-12.82-12.4-22.32-23.64-29.46C277.26,3.3,263.17.02,248.19.01c-41.53,0-83.05-.03-124.58,0-15.02.01-28.4,4.8-39.82,14.43-12.76,10.75-19.4,24.48-19.4,41.19,0,6.67-.08,13.35.04,20.02.05,2.74.33,5.5.81,8.2,2.45,13.83,9.79,24.8,21.03,33.03,14.66,10.73,31.15,16.59,49.54,16.7,1.78.01,3.58,0,5.63,0v-35.44c-4.01.72-7.7.65-11.43.09-17.51-2.63-29.19-19.85-24.92-36.84,3.42-13.65,16.27-23.58,30.56-23.59,35.64,0,71.28,0,106.92.01,1.92,0,3.85.13,5.75.37,16.49,2.05,28.46,15.49,28.47,31.96.01,19.39,0,38.77,0,58.16v3.53c16.01,6.52,28.69,16.84,38.28,30.92.22-.09.44-.18.66-.27v-3.38c0-32.42,0-64.83-.01-97.25Z"/>
      <rect class="cls-2" x="200.35" y="47.48" width="38.04" height="190.53" rx="3.04" ry="3.04"/>
      <path class="cls-2" d="M141.39,100.22v-21.01c0-1.89,1.55-3.42,3.46-3.42h31.25c1.91,0,3.46,1.53,3.46,3.42v155.37c0,1.89-1.55,3.42-3.46,3.42h-31.25c-1.91,0-3.46-1.53-3.46-3.42V100.22"/>
    </g>
  </g>
</svg>