<?xml version="1.0" encoding="UTF-8"?>
<svg xmlns="http://www.w3.org/2000/svg" version="1.1" xmlns:xlink="http://www.w3.org/1999/xlink" viewBox="0 0 1920 1920">
  <defs>
    <style>
      .cls-1 {
        fill: #f6f6f6;
      }

      .cls-2 {
        fill: none;
      }

      .cls-3 {
        fill: url(#DEPORTES_2);
      }
    </style>
    <pattern id="DEPORTES_2" data-name="DEPORTES 2" x="0" y="0" width="539.08" height="604.89" patternTransform="translate(210 22.5)" patternUnits="userSpaceOnUse" viewBox="0 0 539.08 604.89">
      <g>
        <rect class="cls-2" width="539.08" height="604.89"/>
        <g>
          <path class="cls-1" d="M96.49,642.33c-.4,1.42-.71,2.48-1.01,3.54-1.68,5.92-3.33,11.85-5.06,17.75-.89,3.06-.27,2.67-3.47,2.67-23.28.01-46.56,0-69.84,0-.79,0-1.59,0-2.34,0-.38-.83.15-1.32.41-1.86,1.49-3.1,2.99-6.19,4.53-9.26.52-1.03.76-2.05.76-3.21-.02-31.36-.02-62.72,0-94.08,0-1.16-.26-2.18-.77-3.21-1.78-3.56-3.5-7.16-5.24-10.75.69-.71,1.45-.43,2.11-.44,9.36-.02,18.72-.02,28.08-.01,2.42,0,2.43.01,2.43,2.52,0,31.04,0,62.08,0,93.12,0,3.64-.47,3.19,3.17,3.19,14.4.02,28.8,0,43.2,0,.87,0,1.75,0,3.02,0Z"/>
          <path class="cls-1" d="M255.37,604.68c-.02-32.45-26.33-61.22-61.55-61.18-34.1.04-61.47,27.63-61.3,61.67.17,34.6,28.45,61.33,61.56,61.16,34.01-.1,61.31-27.65,61.29-61.65ZM141.03,622.47c.17.1.34.2.5.31.86.52,1.73,1.02,2.61,1.51s1.76.95,2.66,1.4,1.8.87,2.71,1.28,1.84.79,2.77,1.15,1.88.7,2.83,1.01,1.92.6,2.88.86c5.82,1.55,11.76,2.17,17.73,2.67,5.65.47,11.3.9,16.8,2.41,2.45.67,4.87,1.44,7.22,2.68-.44,1.17-1.32,1.88-2.07,2.67-6.47,6.87-13.98,12.35-22.35,16.69-1,.52-1.84.61-2.92.15-15.34-6.6-25.9-17.74-31.77-33.34-.14-.37-.17-.78-.26-1.16-.01-.07-.08-.1-.12-.16-.05-.06-.07-.14-.07-.22,0-.12.08-.21.2-.23.06,0,.12,0,.17.03.08.04.16.09.24.14s.16.11.24.16ZM181.88,551.08c2.38,3.53,4.2,7.34,5.66,11.33,2.35,6.4,3.53,13.09,4.86,19.75.86,4.31,1.75,8.6,3.17,12.77,2.93,8.57,8.43,14.54,17.19,17.32,1.66.53,1.7.61,1.06,2.12-1.05,2.5-2.21,4.96-3.25,7.46-.45,1.1-.97,1.18-1.98.66-5.78-2.93-11.41-6.12-16.81-9.7-15.78-10.46-29.6-23.07-41.47-37.81-.5-.62-.93-1.31-1.48-1.89-.75-.8-.65-1.41,0-2.27,7.87-10.23,18.04-17.04,30.44-20.55.38-.11.78-.18.89-.2,1.1-.17,1.35.49,1.7,1.01ZM146.49,577.93c13.53,16.78,29.42,30.89,47.81,42.15,3.61,2.21,7.32,4.27,11.1,6.18,2.55,1.28,2.15,1.03.8,3.22-.67,1.09-1.5,2.08-2.15,3.18-.63,1.08-1.32,1.08-2.37.59-6.61-3.08-13.66-4.34-20.87-5-6.92-.63-13.86-1.04-20.65-2.74-7.73-1.94-14.59-5.56-20.93-10.31-.96-.72-1.18-1.61-1.33-2.65-1.44-10.56.02-20.72,4.3-30.47.83-1.89,1.69-3.77,2.88-5.47.74.21,1.02.84,1.41,1.32ZM213.19,551.72c1.8.64,3.94,1,5.16,2.39,1.17,1.33.87,3.48,1.1,5.29,2.01,15.71,1.37,31.26-2.86,46.59-.08.31-.19.61-.24.93-.19,1.09-.78,1.14-1.73.84-4.99-1.55-9.07-4.28-11.88-8.77-2.06-3.3-3.23-6.96-4.07-10.7-1.29-5.77-2.37-11.58-3.64-17.35-1.63-7.37-4.08-14.45-8.07-20.92-.17-.27-.36-.54-.15-1.18,9.03-1.21,17.82-.17,26.38,2.89ZM231.11,562.32c6.02,5.28,10.72,11.55,14.18,18.79.93,1.94,1.02,3.83.76,5.81-1.05,8.02-5.19,13.92-12.34,17.7-3.87,2.04-8.96,3.48-12.61,3.52,4.51-16.69,5.29-33.58,2.99-50.88,2.8,1.44,4.94,3.23,7.02,5.06ZM219.02,614.28c.33-.91,1.04-.85,1.74-.94,3.72-.52,7.38-1.28,10.92-2.61,7.82-2.93,13.9-7.74,17.23-15.6.09-.2.28-.36.48-.6.79,1.72.78,3.52.92,5.23.95,11.6-1.25,22.56-6.99,32.75-1,1.78-1.01,1.75-2.96,1.31-8.27-1.87-16.3-4.48-24.09-7.84-.58-.25-1.21-.4-1.82-1.03,1.76-3.41,3.24-7.01,4.57-10.67ZM182.78,658.49c7.66-4.59,14.49-10.16,20.37-16.89,1.36-1.56,1.38-1.56,3.07-.49,2.38,1.51,4.49,3.33,5.99,5.76,2.19,3.55,2,7.92-.44,11.26-.35.48-.76.76-1.32.93-9.68,2.89-19.44,3.26-29.49.94.48-.96,1.22-1.14,1.82-1.5ZM218.69,655.78c-.69-.56-.36-1.13-.28-1.62.7-4.21-.53-7.89-3.03-11.22-1.74-2.33-3.91-4.19-6.35-5.77-1.48-.96-1.46-.99-.45-2.52.88-1.33,1.8-2.64,2.6-4.02.56-.96,1.16-1.09,2.16-.65,2.19.97,4.41,1.85,6.65,2.71,5.59,2.15,11.29,3.96,17.13,5.32.61.14,1.21.36,2.2.66-5.7,7.54-12.49,13.14-20.63,17.1Z"/>
          <path class="cls-1" d="M52.28,602.09c0-11.03,0-22.06,0-33.09,0-1.97.02-2,1.78-2.47,24.24-6.54,48.11,7.76,53.97,30.26,3.77,14.48.53,27.5-9.13,38.94-.96,1.14-1.99,1.59-3.49,1.58-13.59-.06-27.17-.03-40.76-.03-.4,0-.8-.02-1.2,0-.78.02-1.19-.32-1.16-1.14.02-.56,0-1.12,0-1.68,0-10.79,0-21.58,0-32.37Z"/>
          <path class="cls-1" d="M52.28,561.45c0-2.55.02-5.1,0-7.65,0-.86.54-1.1,1.2-1.22,1.89-.34,3.77-.73,5.68-.94,30.06-3.29,55.43,15.84,62.42,41.73,6.03,22.34-2.62,46.67-21.52,60.07-.32.23-.65.43-.99.66-.56-.58-.21-1.1-.08-1.58,1.08-3.85,2.21-7.68,3.26-11.53.39-1.42,1.06-2.61,1.98-3.76,7.76-9.76,11.42-20.92,10.24-33.31-1.7-17.79-10.89-30.79-26.75-38.88-10.58-5.4-21.83-6.34-33.39-3.75-.54.12-1.05.4-2.03.17Z"/>
          <path class="cls-1" d="M15.15,634.17c-9.28-15.3-8.93-38.22,0-52.41v52.41Z"/>
        </g>
        <g>
          <path class="cls-1" d="M457.26,607.35c.15-.93.62-1.28.98-1.7.38-.45.79-.46,1.23-.07.24.21.48.43.74.61,1.86,1.21,3.87,1.02,5.2-.5,1.35-1.54,1.31-3.53-.18-5.2-.36-.41-.92-.64-1.17-.81.22-1.04.7-1.37,1.08-1.77.38-.4.8-.49,1.22-.05.17.17.33.35.52.49,1.93,1.49,3.9,1.49,5.39,0,1.44-1.45,1.44-3.57,0-5.41-.94-1.19-.88-1.61.21-2.41.49-.36.85-.3,1.24.1.33.34.64.73,1.02,1.01,1.45,1.11,3.52,1.03,4.87-.15,1.38-1.21,1.71-3.17.75-4.79-.36-.61-.85-1.15-1.32-1.78.22-.26.42-.5.63-.73.79-.87,1.44-1.04,2.23.11.88,1.26,2.19,1.84,3.77,1.54,2.79-.54,3.95-3.4,2.44-5.97-.93-1.59-.94-1.6.56-2.68,11.12-8.04,23.04-14.66,35.68-20,1.87-.79,2.01-.75,2.92,1.07,1.9,3.78,2.65,7.89,2.97,12.03,1.35,17.56-1.51,34.39-9.04,50.37-7.16,15.19-19,25.21-34.48,31.2-13.7,5.3-27.9,7.43-42.54,6.61-4.07-.23-8.11-.86-11.96-2.3-.52-.2-1.04-.42-1.54-.66-1.72-.86-1.74-.88-1-2.7,3.95-9.73,8.76-19,14.4-27.86,2.28-3.57,4.69-7.06,7.19-10.48.64-.88,1.07-1.35,2.25-.51,2.11,1.51,4.2,1.18,5.52-.55,1.29-1.7.96-3.72-.93-5.51-.29-.27-.66-.45-.83-.55Z"/>
          <path class="cls-1" d="M345.28,543.45c-33.93-.03-61.58,27.6-61.56,61.51.02,33.85,27.51,61.33,61.39,61.36,34.06.03,61.5-27.38,61.48-61.43-.02-33.9-27.47-61.41-61.31-61.44ZM395.55,579.91c-3.01-1.84-6.14-3.44-9.43-4.71-.94-.36-1.66-.89-2.31-1.63-5.3-6-10.6-11.98-15.93-17.95-.79-.88-1.4-1.73-1.02-2.99.18-.58.49-.78,1.05-.54.29.12.59.25.88.38,12.45,5.73,21.78,14.68,27.9,26.95.13.27.14.6.21.91.21.01.29.12.22.3-.01.02-.16.03-.22,0-.19-.14-.16-.26.07-.33-.65.51-1.01-.14-1.42-.39ZM349.94,639.46c-3.45-6.22-7.05-12.36-10.66-18.49-.68-1.15-.76-2.04-.1-3.26,2.91-5.33,5.74-10.71,8.49-16.12.63-1.24,1.44-1.72,2.75-1.84,5.33-.51,10.66-1.08,15.99-1.63,2.62-.27,5.25-.5,7.87-.85,1.18-.16,1.89.14,2.56,1.17,3.27,5.03,6.48,10.09,9.22,15.44.53,1.04.57,1.82,0,2.86-3.97,7.3-7.88,14.64-11.79,21.98-.48.9-1.01,1.46-2.13,1.65-5.77.97-11.57,1.54-17.92,1.86-2,.67-3.16-.73-4.29-2.76ZM366.42,559.73c4.46,5.44,9.25,10.61,13.98,15.82.98,1.08,1.17,2,.7,3.4-1.46,4.4-3.3,8.66-4.93,13-.35.93-.86,1.34-1.9,1.44-7.96.76-15.91,1.58-23.86,2.45-1.1.12-1.75-.2-2.46-1-4.09-4.6-8.03-9.34-12.35-13.73-.64-.65-.82-1.28-.53-2.14,2.24-6.67,4.47-13.33,6.65-20.02.34-1.05,1.05-1.34,1.95-1.45,1.67-.21,3.33-.44,5.01-.54,3.19-.19,6.36-.7,10.02-.63,3.08-.77,5.48.65,7.74,3.41ZM327.04,652.76c-4.24-.76-8.48-1.57-12.73-2.27-1.03-.17-1.74-.57-2.38-1.37-3.34-4.2-6.24-8.69-8.86-13.36-.54-.96-.5-1.69.1-2.6,3.04-4.69,6.05-9.4,9.01-14.14.64-1.03,1.27-1.41,2.52-1.07,6.25,1.68,12.59,2.91,19.01,3.77,1.21.16,1.98.7,2.59,1.79,3.67,6.46,7.39,12.88,11.15,19.29.61,1.03.66,1.8-.1,2.79-2.04,2.66-3.96,5.41-5.96,8.11-.5.68-.94,1.57-1.95,1.26-4.22-.74-8.31-1.45-12.39-2.18ZM337.78,558.51c-1.93,5.84-3.89,11.66-5.79,17.51-.38,1.16-1.01,1.85-2.16,2.3-6.26,2.47-12.23,5.53-17.89,9.16-1.18.76-2.06.72-3.22,0-3.54-2.18-7.11-4.3-10.73-6.35-1.15-.65-1.37-1.35-.93-2.51,1.45-3.81,2.87-7.63,4.84-11.21.39-.71.85-1.34,1.41-1.93,6.09-6.43,13.28-11.21,21.55-14.4,1.11-.43,2.06-.45,3.19.02,3.19,1.32,6.23,2.89,9.09,4.82.45.3,1.01.54,1.06,1.21-.14.46-.27.92-.42,1.37ZM307.37,591.17c.99.57.91,1.4.94,2.26.15,4.96.39,9.91,1.19,14.82.21,1.26.28,2.56.64,3.78.48,1.6.12,2.87-.78,4.24-2.91,4.4-5.69,8.89-8.54,13.33-1.03,1.61-1.06,1.6-2.71.53-6.69-4.32-7.99-6.31-9.5-15.05-1.23-7.08-1.18-14.15.17-21.23.31-1.63.98-3.03,1.79-4.4,1.17-1.99,2.36-3.97,3.98-5.84,4.3,2.55,8.54,5.09,12.83,7.56ZM377.15,643.08c-.23-.76-.07-1.39.28-2.05,4.24-7.88,8.47-15.76,12.68-23.65.36-.68.86-1.12,1.54-1.43,3.42-1.58,6.68-3.43,9.77-5.57.18-.12.42-.15.65-.23.14,13.31-9.49,32.2-23.14,41.1-.49-2.92-1-5.58-1.78-8.17ZM318.18,655.48c1.81-.18,3.52.31,5.25.62,4.39.78,8.76,1.73,13.17,2.29,3.59.46,6.45,2.51,9.7,3.77-10.02.41-19.38-1.84-28.13-6.67Z"/>
          <path class="cls-1" d="M449.2,610.78c-4.6,6.21-8.85,12.58-12.67,19.23-3.78,6.59-7.09,13.41-10.05,20.45-.99-.4-.98-1.31-1.22-2.01-1.1-3.36-1.65-6.85-1.85-10.36-.97-17.24,1.9-33.75,9.41-49.38,7-14.56,18.36-24.33,33.2-30.3,9.87-3.97,20.13-6.19,30.73-6.97,6.9-.5,13.74-.35,20.53,1.02,1.45.29,2.91.6,4.24,1.29-.25.81-.9.84-1.37,1.05-12.02,5.33-23.41,11.78-34.07,19.5-1.37.99-1.39.97-2.61-.38-1.73-1.91-3.76-2.25-5.5-.94-1.72,1.3-1.96,3.5-.6,5.55q1.1,1.67-.95,3.21c-.8-.21-1.13-1.01-1.71-1.52-1.63-1.44-3.68-1.54-5.22-.21-1.5,1.29-1.73,3.45-.53,5.2.18.26.42.48.6.75.29.43,1.03.76.58,1.39-.41.57-.96,1.1-1.57,1.43-.47.25-.82-.35-1.15-.67-.8-.8-1.61-1.54-2.84-1.62-1.57-.11-2.83.39-3.7,1.74-.85,1.33-.77,2.93.18,4.28.09.13.2.25.3.37q1.56,1.91-.37,3.56c-.71-.23-1.14-.84-1.71-1.26-1.87-1.35-4.01-1.18-5.38.43-1.29,1.51-1.19,3.64.25,5.22.21.24.45.46.7.65.74.57,1.06,1.11.24,1.94-.66.67-1.15,1.39-2.12.45-.34-.33-.75-.61-1.17-.84-1.74-.95-3.77-.52-4.93,1.02-1.06,1.41-.98,3.5.26,4.86.58.64,1.29,1.17,2.05,1.86Z"/>
          <path class="cls-1" d="M396.9,580.34c.21.01.29.12.22.3-.01.02-.16.03-.22,0-.19-.14-.16-.26.07-.33,0,0-.07.03-.07.03Z"/>
        </g>
        <g>
          <path class="cls-1" d="M52.95,456.13c.15-.93.62-1.28.98-1.7.38-.45.79-.46,1.23-.07.24.21.48.43.74.61,1.86,1.21,3.87,1.02,5.2-.5,1.35-1.54,1.31-3.53-.18-5.2-.36-.41-.92-.64-1.17-.81.22-1.04.7-1.37,1.08-1.77.38-.4.8-.49,1.22-.05.17.17.33.35.52.49,1.93,1.49,3.9,1.49,5.39,0,1.44-1.45,1.44-3.57,0-5.41-.94-1.19-.88-1.61.21-2.41.49-.36.85-.3,1.24.1.33.34.64.73,1.02,1.01,1.45,1.11,3.52,1.03,4.87-.15,1.38-1.21,1.71-3.17.75-4.79-.36-.61-.85-1.15-1.32-1.78.22-.26.42-.5.63-.73.79-.87,1.44-1.04,2.23.11.88,1.26,2.19,1.84,3.77,1.54,2.79-.54,3.95-3.4,2.44-5.97-.93-1.59-.94-1.6.56-2.68,11.12-8.04,23.04-14.66,35.68-20,1.87-.79,2.01-.75,2.92,1.07,1.9,3.78,2.65,7.89,2.97,12.03,1.35,17.56-1.51,34.39-9.04,50.37-7.16,15.19-19,25.21-34.48,31.2-13.7,5.3-27.9,7.43-42.54,6.61-4.07-.23-8.11-.86-11.96-2.3-.52-.2-1.04-.42-1.54-.66-1.72-.86-1.74-.88-1-2.7,3.95-9.73,8.76-19,14.4-27.86,2.28-3.57,4.69-7.06,7.19-10.48.64-.88,1.07-1.35,2.25-.51,2.11,1.51,4.2,1.18,5.52-.55,1.29-1.7.96-3.72-.93-5.51-.29-.27-.66-.45-.83-.55Z"/>
          <path class="cls-1" d="M-59.04,392.23c-33.93-.03-61.58,27.6-61.56,61.51.02,33.85,27.51,61.33,61.39,61.36,34.06.03,61.5-27.38,61.48-61.43-.02-33.9-27.47-61.41-61.31-61.44ZM-8.76,428.69c-3.01-1.84-6.14-3.44-9.43-4.71-.94-.36-1.66-.89-2.31-1.63-5.3-6-10.6-11.98-15.93-17.95-.79-.88-1.4-1.73-1.02-2.99.18-.58.49-.78,1.05-.54.29.12.59.25.88.38,12.45,5.73,21.78,14.68,27.9,26.95.13.27.14.6.21.91.21.01.29.12.22.3-.01.02-.16.03-.22,0-.19-.14-.16-.26.07-.33-.65.51-1.01-.14-1.42-.39ZM-54.37,488.24c-3.45-6.22-7.05-12.36-10.66-18.49-.68-1.15-.76-2.04-.1-3.26,2.91-5.33,5.74-10.71,8.49-16.12.63-1.24,1.44-1.72,2.75-1.84,5.33-.51,10.66-1.08,15.99-1.63,2.62-.27,5.25-.5,7.87-.85,1.18-.16,1.89.14,2.56,1.17,3.27,5.03,6.48,10.09,9.22,15.44.53,1.04.57,1.82,0,2.86-3.97,7.3-7.88,14.64-11.79,21.98-.48.9-1.01,1.46-2.13,1.65-5.77.97-11.57,1.54-17.92,1.86-2,.67-3.16-.73-4.29-2.76ZM-37.89,408.5c4.46,5.44,9.25,10.61,13.98,15.82.98,1.08,1.17,2,.7,3.4-1.46,4.4-3.3,8.66-4.93,13-.35.93-.86,1.34-1.9,1.44-7.96.76-15.91,1.58-23.86,2.45-1.1.12-1.75-.2-2.46-1-4.09-4.6-8.03-9.34-12.35-13.73-.64-.65-.82-1.28-.53-2.14,2.24-6.67,4.47-13.33,6.65-20.02.34-1.05,1.05-1.34,1.95-1.45,1.67-.21,3.33-.44,5.01-.54,3.19-.19,6.36-.7,10.02-.63,3.08-.77,5.48.65,7.74,3.41ZM-77.28,501.53c-4.24-.76-8.48-1.57-12.73-2.27-1.03-.17-1.74-.57-2.38-1.37-3.34-4.2-6.24-8.69-8.86-13.36-.54-.96-.5-1.69.1-2.6,3.04-4.69,6.05-9.4,9.01-14.14.64-1.03,1.27-1.41,2.52-1.07,6.25,1.68,12.59,2.91,19.01,3.77,1.21.16,1.98.7,2.59,1.79,3.67,6.46,7.39,12.88,11.15,19.29.61,1.03.66,1.8-.1,2.79-2.04,2.66-3.96,5.41-5.96,8.11-.5.68-.94,1.57-1.95,1.26-4.22-.74-8.31-1.45-12.39-2.18ZM-66.53,407.29c-1.93,5.84-3.89,11.66-5.79,17.51-.38,1.16-1.01,1.85-2.16,2.3-6.26,2.47-12.23,5.53-17.89,9.16-1.18.76-2.06.72-3.22,0-3.54-2.18-7.11-4.3-10.73-6.35-1.15-.65-1.37-1.35-.93-2.51,1.45-3.81,2.87-7.63,4.84-11.21.39-.71.85-1.34,1.41-1.93,6.09-6.43,13.28-11.21,21.55-14.4,1.11-.43,2.06-.45,3.19.02,3.19,1.32,6.23,2.89,9.09,4.82.45.3,1.01.54,1.06,1.21-.14.46-.27.92-.42,1.37ZM-96.94,439.95c.99.57.91,1.4.94,2.26.15,4.96.39,9.91,1.19,14.82.21,1.26.28,2.56.64,3.78.48,1.6.12,2.87-.78,4.24-2.91,4.4-5.69,8.89-8.54,13.33-1.03,1.61-1.06,1.6-2.71.53-6.69-4.32-7.99-6.31-9.5-15.05-1.23-7.08-1.18-14.15.17-21.23.31-1.63.98-3.03,1.79-4.4,1.17-1.99,2.36-3.97,3.98-5.84,4.3,2.55,8.54,5.09,12.83,7.56ZM-27.16,491.86c-.23-.76-.07-1.39.28-2.05,4.24-7.88,8.47-15.76,12.68-23.65.36-.68.86-1.12,1.54-1.43,3.42-1.58,6.68-3.43,9.77-5.57.18-.12.42-.15.65-.23.14,13.31-9.49,32.2-23.14,41.1-.49-2.92-1-5.58-1.78-8.17ZM-86.13,504.26c1.81-.18,3.52.31,5.25.62,4.39.78,8.76,1.73,13.17,2.29,3.59.46,6.45,2.51,9.7,3.77-10.02.41-19.38-1.84-28.13-6.67Z"/>
          <path class="cls-1" d="M231.26,491.11c-.4,1.42-.71,2.48-1.01,3.54-1.68,5.92-3.33,11.85-5.06,17.75-.89,3.06-.27,2.67-3.47,2.67-23.28.01-46.56,0-69.84,0-.79,0-1.59,0-2.34,0-.38-.83.15-1.32.41-1.86,1.49-3.1,2.99-6.19,4.53-9.26.52-1.03.76-2.05.76-3.21-.02-31.36-.02-62.72,0-94.08,0-1.16-.26-2.18-.77-3.21-1.78-3.56-3.5-7.16-5.24-10.75.69-.71,1.45-.43,2.11-.44,9.36-.02,18.72-.02,28.08-.01,2.42,0,2.43.01,2.43,2.52,0,31.04,0,62.08,0,93.12,0,3.64-.47,3.19,3.17,3.19,14.4.02,28.8,0,43.2,0,.87,0,1.75,0,3.02,0Z"/>
          <path class="cls-1" d="M390.14,453.46c-.02-32.45-26.33-61.22-61.55-61.18-34.1.04-61.47,27.63-61.3,61.67.17,34.6,28.45,61.33,61.56,61.16,34.01-.1,61.31-27.65,61.29-61.65ZM275.8,471.25c.17.1.34.2.5.31.86.52,1.73,1.02,2.61,1.51s1.76.95,2.66,1.4,1.8.87,2.71,1.28,1.84.79,2.77,1.15,1.88.7,2.83,1.01,1.92.6,2.88.86c5.82,1.55,11.76,2.17,17.73,2.67,5.65.47,11.3.9,16.8,2.41,2.45.67,4.87,1.44,7.22,2.68-.44,1.17-1.32,1.88-2.07,2.67-6.47,6.87-13.98,12.35-22.35,16.69-1,.52-1.84.61-2.92.15-15.34-6.6-25.9-17.74-31.77-33.34-.14-.37-.17-.78-.26-1.16-.01-.07-.08-.1-.12-.16-.05-.06-.07-.14-.07-.22,0-.12.08-.21.2-.23.06,0,.12,0,.17.03.08.04.16.09.24.14s.16.11.24.16ZM316.65,399.85c2.38,3.53,4.2,7.34,5.66,11.33,2.35,6.4,3.53,13.09,4.86,19.75.86,4.31,1.75,8.6,3.17,12.77,2.93,8.57,8.43,14.54,17.19,17.32,1.66.53,1.7.61,1.06,2.12-1.05,2.5-2.21,4.96-3.25,7.46-.45,1.1-.97,1.18-1.98.66-5.78-2.93-11.41-6.12-16.81-9.7-15.78-10.46-29.6-23.07-41.47-37.81-.5-.62-.93-1.31-1.48-1.89-.75-.8-.65-1.41,0-2.27,7.87-10.23,18.04-17.04,30.44-20.55.38-.11.78-.18.89-.2,1.1-.17,1.35.49,1.7,1.01ZM281.26,426.71c13.53,16.78,29.42,30.89,47.81,42.15,3.61,2.21,7.32,4.27,11.1,6.18,2.55,1.28,2.15,1.03.8,3.22-.67,1.09-1.5,2.08-2.15,3.18-.63,1.08-1.32,1.08-2.37.59-6.61-3.08-13.66-4.34-20.87-5-6.92-.63-13.86-1.04-20.65-2.74-7.73-1.94-14.59-5.56-20.93-10.31-.96-.72-1.18-1.61-1.33-2.65-1.44-10.56.02-20.72,4.3-30.47.83-1.89,1.69-3.77,2.88-5.47.74.21,1.02.84,1.41,1.32ZM347.96,400.5c1.8.64,3.94,1,5.16,2.39,1.17,1.33.87,3.48,1.1,5.29,2.01,15.71,1.37,31.26-2.86,46.59-.08.31-.19.61-.24.93-.19,1.09-.78,1.14-1.73.84-4.99-1.55-9.07-4.28-11.88-8.77-2.06-3.3-3.23-6.96-4.07-10.7-1.29-5.77-2.37-11.58-3.64-17.35-1.63-7.37-4.08-14.45-8.07-20.92-.17-.27-.36-.54-.15-1.18,9.03-1.21,17.82-.17,26.38,2.89ZM365.88,411.1c6.02,5.28,10.72,11.55,14.18,18.79.93,1.94,1.02,3.83.76,5.81-1.05,8.02-5.19,13.92-12.34,17.7-3.87,2.04-8.96,3.48-12.61,3.52,4.51-16.69,5.29-33.58,2.99-50.88,2.8,1.44,4.94,3.23,7.02,5.06ZM353.79,463.06c.33-.91,1.04-.85,1.74-.94,3.72-.52,7.38-1.28,10.92-2.61,7.82-2.93,13.9-7.74,17.23-15.6.09-.2.28-.36.48-.6.79,1.72.78,3.52.92,5.23.95,11.6-1.25,22.56-6.99,32.75-1,1.78-1.01,1.75-2.96,1.31-8.27-1.87-16.3-4.48-24.09-7.84-.58-.25-1.21-.4-1.82-1.03,1.76-3.41,3.24-7.01,4.57-10.67ZM317.55,507.27c7.66-4.59,14.49-10.16,20.37-16.89,1.36-1.56,1.38-1.56,3.07-.49,2.38,1.51,4.49,3.33,5.99,5.76,2.19,3.55,2,7.92-.44,11.26-.35.48-.76.76-1.32.93-9.68,2.89-19.44,3.26-29.49.94.48-.96,1.22-1.14,1.82-1.5ZM353.46,504.56c-.69-.56-.36-1.13-.28-1.62.7-4.21-.53-7.89-3.03-11.22-1.74-2.33-3.91-4.19-6.35-5.77-1.48-.96-1.46-.99-.45-2.52.88-1.33,1.8-2.64,2.6-4.02.56-.96,1.16-1.09,2.16-.65,2.19.97,4.41,1.85,6.65,2.71,5.59,2.15,11.29,3.96,17.13,5.32.61.14,1.21.36,2.2.66-5.7,7.54-12.49,13.14-20.63,17.1Z"/>
          <path class="cls-1" d="M187.05,450.87c0-11.03,0-22.06,0-33.09,0-1.97.02-2,1.78-2.47,24.24-6.54,48.11,7.76,53.97,30.26,3.77,14.48.53,27.5-9.13,38.94-.96,1.14-1.99,1.59-3.49,1.58-13.59-.06-27.17-.03-40.76-.03-.4,0-.8-.02-1.2,0-.78.02-1.19-.32-1.16-1.14.02-.56,0-1.12,0-1.68,0-10.79,0-21.58,0-32.37Z"/>
          <path class="cls-1" d="M44.89,459.56c-4.6,6.21-8.85,12.58-12.67,19.23-3.78,6.59-7.09,13.41-10.05,20.45-.99-.4-.98-1.31-1.22-2.01-1.1-3.36-1.65-6.85-1.85-10.36-.97-17.24,1.9-33.75,9.41-49.38,7-14.56,18.36-24.33,33.2-30.3,9.87-3.97,20.13-6.19,30.73-6.97,6.9-.5,13.74-.35,20.53,1.02,1.45.29,2.91.6,4.24,1.29-.25.81-.9.84-1.37,1.05-12.02,5.33-23.41,11.78-34.07,19.5-1.37.99-1.39.97-2.61-.38-1.73-1.91-3.76-2.25-5.5-.94-1.72,1.3-1.96,3.5-.6,5.55q1.1,1.67-.95,3.21c-.8-.21-1.13-1.01-1.71-1.52-1.63-1.44-3.68-1.54-5.22-.21-1.5,1.29-1.73,3.45-.53,5.2.18.26.42.48.6.75.29.43,1.03.76.58,1.39-.41.57-.96,1.1-1.57,1.43-.47.25-.82-.35-1.15-.67-.8-.8-1.61-1.54-2.84-1.62-1.57-.11-2.83.39-3.7,1.74-.85,1.33-.77,2.93.18,4.28.09.13.2.25.3.37q1.56,1.91-.37,3.56c-.71-.23-1.14-.84-1.71-1.26-1.87-1.35-4.01-1.18-5.38.43-1.29,1.51-1.19,3.64.25,5.22.21.24.45.46.7.65.74.57,1.06,1.11.24,1.94-.66.67-1.15,1.39-2.12.45-.34-.33-.75-.61-1.17-.84-1.74-.95-3.77-.52-4.93,1.02-1.06,1.41-.98,3.5.26,4.86.58.64,1.29,1.17,2.05,1.86Z"/>
          <path class="cls-1" d="M187.05,410.23c0-2.55.02-5.1,0-7.65,0-.86.54-1.1,1.2-1.22,1.89-.34,3.77-.73,5.68-.94,30.06-3.29,55.43,15.84,62.42,41.73,6.03,22.34-2.62,46.67-21.52,60.07-.32.23-.65.43-.99.66-.56-.58-.21-1.1-.08-1.58,1.08-3.85,2.21-7.68,3.26-11.53.39-1.42,1.06-2.61,1.98-3.76,7.76-9.76,11.42-20.92,10.24-33.31-1.7-17.79-10.89-30.79-26.75-38.88-10.58-5.4-21.83-6.34-33.39-3.75-.54.12-1.05.4-2.03.17Z"/>
          <path class="cls-1" d="M149.92,482.95c-9.28-15.3-8.93-38.22,0-52.41v52.41Z"/>
        </g>
        <g>
          <path class="cls-1" d="M480.05,392.23c-33.93-.03-61.58,27.6-61.56,61.51.02,33.85,27.51,61.33,61.39,61.36,34.06.03,61.5-27.38,61.48-61.43-.02-33.9-27.47-61.41-61.31-61.44ZM530.32,428.69c-3.01-1.84-6.14-3.44-9.43-4.71-.94-.36-1.66-.89-2.31-1.63-5.3-6-10.6-11.98-15.93-17.95-.79-.88-1.4-1.73-1.02-2.99.18-.58.49-.78,1.05-.54.29.12.59.25.88.38,12.45,5.73,21.78,14.68,27.9,26.95.13.27.14.6.21.91.21.01.29.12.22.3-.01.02-.16.03-.22,0-.19-.14-.16-.26.07-.33-.65.51-1.01-.14-1.42-.39ZM484.71,488.24c-3.45-6.22-7.05-12.36-10.66-18.49-.68-1.15-.76-2.04-.1-3.26,2.91-5.33,5.74-10.71,8.49-16.12.63-1.24,1.44-1.72,2.75-1.84,5.33-.51,10.66-1.08,15.99-1.63,2.62-.27,5.25-.5,7.87-.85,1.18-.16,1.89.14,2.56,1.17,3.27,5.03,6.48,10.09,9.22,15.44.53,1.04.57,1.82,0,2.86-3.97,7.3-7.88,14.64-11.79,21.98-.48.9-1.01,1.46-2.13,1.65-5.77.97-11.57,1.54-17.92,1.86-2,.67-3.16-.73-4.29-2.76ZM501.2,408.5c4.46,5.44,9.25,10.61,13.98,15.82.98,1.08,1.17,2,.7,3.4-1.46,4.4-3.3,8.66-4.93,13-.35.93-.86,1.34-1.9,1.44-7.96.76-15.91,1.58-23.86,2.45-1.1.12-1.75-.2-2.46-1-4.09-4.6-8.03-9.34-12.35-13.73-.64-.65-.82-1.28-.53-2.14,2.24-6.67,4.47-13.33,6.65-20.02.34-1.05,1.05-1.34,1.95-1.45,1.67-.21,3.33-.44,5.01-.54,3.19-.19,6.36-.7,10.02-.63,3.08-.77,5.48.65,7.74,3.41ZM461.81,501.53c-4.24-.76-8.48-1.57-12.73-2.27-1.03-.17-1.74-.57-2.38-1.37-3.34-4.2-6.24-8.69-8.86-13.36-.54-.96-.5-1.69.1-2.6,3.04-4.69,6.05-9.4,9.01-14.14.64-1.03,1.27-1.41,2.52-1.07,6.25,1.68,12.59,2.91,19.01,3.77,1.21.16,1.98.7,2.59,1.79,3.67,6.46,7.39,12.88,11.15,19.29.61,1.03.66,1.8-.1,2.79-2.04,2.66-3.96,5.41-5.96,8.11-.5.68-.94,1.57-1.95,1.26-4.22-.74-8.31-1.45-12.39-2.18ZM472.55,407.29c-1.93,5.84-3.89,11.66-5.79,17.51-.38,1.16-1.01,1.85-2.16,2.3-6.26,2.47-12.23,5.53-17.89,9.16-1.18.76-2.06.72-3.22,0-3.54-2.18-7.11-4.3-10.73-6.35-1.15-.65-1.37-1.35-.93-2.51,1.45-3.81,2.87-7.63,4.84-11.21.39-.71.85-1.34,1.41-1.93,6.09-6.43,13.28-11.21,21.55-14.4,1.11-.43,2.06-.45,3.19.02,3.19,1.32,6.23,2.89,9.09,4.82.45.3,1.01.54,1.06,1.21-.14.46-.27.92-.42,1.37ZM442.14,439.95c.99.57.91,1.4.94,2.26.15,4.96.39,9.91,1.19,14.82.21,1.26.28,2.56.64,3.78.48,1.6.12,2.87-.78,4.24-2.91,4.4-5.69,8.89-8.54,13.33-1.03,1.61-1.06,1.6-2.71.53-6.69-4.32-7.99-6.31-9.5-15.05-1.23-7.08-1.18-14.15.17-21.23.31-1.63.98-3.03,1.79-4.4,1.17-1.99,2.36-3.97,3.98-5.84,4.3,2.55,8.54,5.09,12.83,7.56ZM511.92,491.86c-.23-.76-.07-1.39.28-2.05,4.24-7.88,8.47-15.76,12.68-23.65.36-.68.86-1.12,1.54-1.43,3.42-1.58,6.68-3.43,9.77-5.57.18-.12.42-.15.65-.23.14,13.31-9.49,32.2-23.14,41.1-.49-2.92-1-5.58-1.78-8.17ZM452.95,504.26c1.81-.18,3.52.31,5.25.62,4.39.78,8.76,1.73,13.17,2.29,3.59.46,6.45,2.51,9.7,3.77-10.02.41-19.38-1.84-28.13-6.67Z"/>
          <path class="cls-1" d="M531.67,429.11c.21.01.29.12.22.3-.01.02-.16.03-.22,0-.19-.14-.16-.26.07-.33,0,0-.07.03-.07.03Z"/>
        </g>
        <g>
          <path class="cls-1" d="M187.72,304.91c.15-.93.62-1.28.98-1.7.38-.45.79-.46,1.23-.07.24.21.48.43.74.61,1.86,1.21,3.87,1.02,5.2-.5,1.35-1.54,1.31-3.53-.18-5.2-.36-.41-.92-.64-1.17-.81.22-1.04.7-1.37,1.08-1.77.38-.4.8-.49,1.22-.05.17.17.33.35.52.49,1.93,1.49,3.9,1.49,5.39,0,1.44-1.45,1.44-3.57,0-5.41-.94-1.19-.88-1.61.21-2.41.49-.36.85-.3,1.24.1.33.34.64.73,1.02,1.01,1.45,1.11,3.52,1.03,4.87-.15,1.38-1.21,1.71-3.17.75-4.79-.36-.61-.85-1.15-1.32-1.78.22-.26.42-.5.63-.73.79-.87,1.44-1.04,2.23.11.88,1.26,2.19,1.84,3.77,1.54,2.79-.54,3.95-3.4,2.44-5.97-.93-1.59-.94-1.6.56-2.68,11.12-8.04,23.04-14.66,35.68-20,1.87-.79,2.01-.75,2.92,1.07,1.9,3.78,2.65,7.89,2.97,12.03,1.35,17.56-1.51,34.39-9.04,50.37-7.16,15.19-19,25.21-34.48,31.2-13.7,5.3-27.9,7.43-42.54,6.61-4.07-.23-8.11-.86-11.96-2.3-.52-.2-1.04-.42-1.54-.66-1.72-.86-1.74-.88-1-2.7,3.95-9.73,8.76-19,14.4-27.86,2.28-3.57,4.69-7.06,7.19-10.48.64-.88,1.07-1.35,2.25-.51,2.11,1.51,4.2,1.18,5.52-.55,1.29-1.7.96-3.72-.93-5.51-.29-.27-.66-.45-.83-.55Z"/>
          <path class="cls-1" d="M75.73,241.01c-33.93-.03-61.58,27.6-61.56,61.51.02,33.85,27.51,61.33,61.39,61.36,34.06.03,61.5-27.38,61.48-61.43-.02-33.9-27.47-61.41-61.31-61.44ZM126.01,277.46c-3.01-1.84-6.14-3.44-9.43-4.71-.94-.36-1.66-.89-2.31-1.63-5.3-6-10.6-11.98-15.93-17.95-.79-.88-1.4-1.73-1.02-2.99.18-.58.49-.78,1.05-.54.29.12.59.25.88.38,12.45,5.73,21.78,14.68,27.9,26.95.13.27.14.6.21.91.21.01.29.12.22.3-.01.02-.16.03-.22,0-.19-.14-.16-.26.07-.33-.65.51-1.01-.14-1.42-.39ZM80.4,337.01c-3.45-6.22-7.05-12.36-10.66-18.49-.68-1.15-.76-2.04-.1-3.26,2.91-5.33,5.74-10.71,8.49-16.12.63-1.24,1.44-1.72,2.75-1.84,5.33-.51,10.66-1.08,15.99-1.63,2.62-.27,5.25-.5,7.87-.85,1.18-.16,1.89.14,2.56,1.17,3.27,5.03,6.48,10.09,9.22,15.44.53,1.04.57,1.82,0,2.86-3.97,7.3-7.88,14.64-11.79,21.98-.48.9-1.01,1.46-2.13,1.65-5.77.97-11.57,1.54-17.92,1.86-2,.67-3.16-.73-4.29-2.76ZM96.88,257.28c4.46,5.44,9.25,10.61,13.98,15.82.98,1.08,1.17,2,.7,3.4-1.46,4.4-3.3,8.66-4.93,13-.35.93-.86,1.34-1.9,1.44-7.96.76-15.91,1.58-23.86,2.45-1.1.12-1.75-.2-2.46-1-4.09-4.6-8.03-9.34-12.35-13.73-.64-.65-.82-1.28-.53-2.14,2.24-6.67,4.47-13.33,6.65-20.02.34-1.05,1.05-1.34,1.95-1.45,1.67-.21,3.33-.44,5.01-.54,3.19-.19,6.36-.7,10.02-.63,3.08-.77,5.48.65,7.74,3.41ZM57.49,350.31c-4.24-.76-8.48-1.57-12.73-2.27-1.03-.17-1.74-.57-2.38-1.37-3.34-4.2-6.24-8.69-8.86-13.36-.54-.96-.5-1.69.1-2.6,3.04-4.69,6.05-9.4,9.01-14.14.64-1.03,1.27-1.41,2.52-1.07,6.25,1.68,12.59,2.91,19.01,3.77,1.21.16,1.98.7,2.59,1.79,3.67,6.46,7.39,12.88,11.15,19.29.61,1.03.66,1.8-.1,2.79-2.04,2.66-3.96,5.41-5.96,8.11-.5.68-.94,1.57-1.95,1.26-4.22-.74-8.31-1.45-12.39-2.18ZM68.24,256.06c-1.93,5.84-3.89,11.66-5.79,17.51-.38,1.16-1.01,1.85-2.16,2.3-6.26,2.47-12.23,5.53-17.89,9.16-1.18.76-2.06.72-3.22,0-3.54-2.18-7.11-4.3-10.73-6.35-1.15-.65-1.37-1.35-.93-2.51,1.45-3.81,2.87-7.63,4.84-11.21.39-.71.85-1.34,1.41-1.93,6.09-6.43,13.28-11.21,21.55-14.4,1.11-.43,2.06-.45,3.19.02,3.19,1.32,6.23,2.89,9.09,4.82.45.3,1.01.54,1.06,1.21-.14.46-.27.92-.42,1.37ZM37.83,288.73c.99.57.91,1.4.94,2.26.15,4.96.39,9.91,1.19,14.82.21,1.26.28,2.56.64,3.78.48,1.6.12,2.87-.78,4.24-2.91,4.4-5.69,8.89-8.54,13.33-1.03,1.61-1.06,1.6-2.71.53-6.69-4.32-7.99-6.31-9.5-15.05-1.23-7.08-1.18-14.15.17-21.23.31-1.63.98-3.03,1.79-4.4,1.17-1.99,2.36-3.97,3.98-5.84,4.3,2.55,8.54,5.09,12.83,7.56ZM107.61,340.64c-.23-.76-.07-1.39.28-2.05,4.24-7.88,8.47-15.76,12.68-23.65.36-.68.86-1.12,1.54-1.43,3.42-1.58,6.68-3.43,9.77-5.57.18-.12.42-.15.65-.23.14,13.31-9.49,32.2-23.14,41.1-.49-2.92-1-5.58-1.78-8.17ZM48.64,353.04c1.81-.18,3.52.31,5.25.62,4.39.78,8.76,1.73,13.17,2.29,3.59.46,6.45,2.51,9.7,3.77-10.02.41-19.38-1.84-28.13-6.67Z"/>
          <path class="cls-1" d="M366.03,339.89c-.4,1.42-.71,2.48-1.01,3.54-1.68,5.92-3.33,11.85-5.06,17.75-.89,3.06-.27,2.67-3.47,2.67-23.28.01-46.56,0-69.84,0-.79,0-1.59,0-2.34,0-.38-.83.15-1.32.41-1.86,1.49-3.1,2.99-6.19,4.53-9.26.52-1.03.76-2.05.76-3.21-.02-31.36-.02-62.72,0-94.08,0-1.16-.26-2.18-.77-3.21-1.78-3.56-3.5-7.16-5.24-10.75.69-.71,1.45-.43,2.11-.44,9.36-.02,18.72-.02,28.08-.01,2.42,0,2.43.01,2.43,2.52,0,31.04,0,62.08,0,93.12,0,3.64-.47,3.19,3.17,3.19,14.4.02,28.8,0,43.2,0,.87,0,1.75,0,3.02,0Z"/>
          <path class="cls-1" d="M524.91,302.24c-.02-32.45-26.33-61.22-61.55-61.18-34.1.04-61.47,27.63-61.3,61.67.17,34.6,28.45,61.33,61.56,61.16,34.01-.1,61.31-27.65,61.29-61.65ZM410.57,320.03c.17.1.34.2.5.31.86.52,1.73,1.02,2.61,1.51s1.76.95,2.66,1.4,1.8.87,2.71,1.28,1.84.79,2.77,1.15,1.88.7,2.83,1.01,1.92.6,2.88.86c5.82,1.55,11.76,2.17,17.73,2.67,5.65.47,11.3.9,16.8,2.41,2.45.67,4.87,1.44,7.22,2.68-.44,1.17-1.32,1.88-2.07,2.67-6.47,6.87-13.98,12.35-22.35,16.69-1,.52-1.84.61-2.92.15-15.34-6.6-25.9-17.74-31.77-33.34-.14-.37-.17-.78-.26-1.16-.01-.07-.08-.1-.12-.16-.05-.06-.07-.14-.07-.22,0-.12.08-.21.2-.23.06,0,.12,0,.17.03.08.04.16.09.24.14s.16.11.24.16ZM451.42,248.63c2.38,3.53,4.2,7.34,5.66,11.33,2.35,6.4,3.53,13.09,4.86,19.75.86,4.31,1.75,8.6,3.17,12.77,2.93,8.57,8.43,14.54,17.19,17.32,1.66.53,1.7.61,1.06,2.12-1.05,2.5-2.21,4.96-3.25,7.46-.45,1.1-.97,1.18-1.98.66-5.78-2.93-11.41-6.12-16.81-9.7-15.78-10.46-29.6-23.07-41.47-37.81-.5-.62-.93-1.31-1.48-1.89-.75-.8-.65-1.41,0-2.27,7.87-10.23,18.04-17.04,30.44-20.55.38-.11.78-.18.89-.2,1.1-.17,1.35.49,1.7,1.01ZM416.03,275.49c13.53,16.78,29.42,30.89,47.81,42.15,3.61,2.21,7.32,4.27,11.1,6.18,2.55,1.28,2.15,1.03.8,3.22-.67,1.09-1.5,2.08-2.15,3.18-.63,1.08-1.32,1.08-2.37.59-6.61-3.08-13.66-4.34-20.87-5-6.92-.63-13.86-1.04-20.65-2.74-7.73-1.94-14.59-5.56-20.93-10.31-.96-.72-1.18-1.61-1.33-2.65-1.44-10.56.02-20.72,4.3-30.47.83-1.89,1.69-3.77,2.88-5.47.74.21,1.02.84,1.41,1.32ZM482.73,249.28c1.8.64,3.94,1,5.16,2.39,1.17,1.33.87,3.48,1.1,5.29,2.01,15.71,1.37,31.26-2.86,46.59-.08.31-.19.61-.24.93-.19,1.09-.78,1.14-1.73.84-4.99-1.55-9.07-4.28-11.88-8.77-2.06-3.3-3.23-6.96-4.07-10.7-1.29-5.77-2.37-11.58-3.64-17.35-1.63-7.37-4.08-14.45-8.07-20.92-.17-.27-.36-.54-.15-1.18,9.03-1.21,17.82-.17,26.38,2.89ZM500.65,259.87c6.02,5.28,10.72,11.55,14.18,18.79.93,1.94,1.02,3.83.76,5.81-1.05,8.02-5.19,13.92-12.34,17.7-3.87,2.04-8.96,3.48-12.61,3.52,4.51-16.69,5.29-33.58,2.99-50.88,2.8,1.44,4.94,3.23,7.02,5.06ZM488.56,311.84c.33-.91,1.04-.85,1.74-.94,3.72-.52,7.38-1.28,10.92-2.61,7.82-2.93,13.9-7.74,17.23-15.6.09-.2.28-.36.48-.6.79,1.72.78,3.52.92,5.23.95,11.6-1.25,22.56-6.99,32.75-1,1.78-1.01,1.75-2.96,1.31-8.27-1.87-16.3-4.48-24.09-7.84-.58-.25-1.21-.4-1.82-1.03,1.76-3.41,3.24-7.01,4.57-10.67ZM452.32,356.04c7.66-4.59,14.49-10.16,20.37-16.89,1.36-1.56,1.38-1.56,3.07-.49,2.38,1.51,4.49,3.33,5.99,5.76,2.19,3.55,2,7.92-.44,11.26-.35.48-.76.76-1.32.93-9.68,2.89-19.44,3.26-29.49.94.48-.96,1.22-1.14,1.82-1.5ZM488.23,353.34c-.69-.56-.36-1.13-.28-1.62.7-4.21-.53-7.89-3.03-11.22-1.74-2.33-3.91-4.19-6.35-5.77-1.48-.96-1.46-.99-.45-2.52.88-1.33,1.8-2.64,2.6-4.02.56-.96,1.16-1.09,2.16-.65,2.19.97,4.41,1.85,6.65,2.71,5.59,2.15,11.29,3.96,17.13,5.32.61.14,1.21.36,2.2.66-5.7,7.54-12.49,13.14-20.63,17.1Z"/>
          <path class="cls-1" d="M321.82,299.65c0-11.03,0-22.06,0-33.09,0-1.97.02-2,1.78-2.47,24.24-6.54,48.11,7.76,53.97,30.26,3.77,14.48.53,27.5-9.13,38.94-.96,1.14-1.99,1.59-3.49,1.58-13.59-.06-27.17-.03-40.76-.03-.4,0-.8-.02-1.2,0-.78.02-1.19-.32-1.16-1.14.02-.56,0-1.12,0-1.68,0-10.79,0-21.58,0-32.37Z"/>
          <path class="cls-1" d="M179.66,308.33c-4.6,6.21-8.85,12.58-12.67,19.23-3.78,6.59-7.09,13.41-10.05,20.45-.99-.4-.98-1.31-1.22-2.01-1.1-3.36-1.65-6.85-1.85-10.36-.97-17.24,1.9-33.75,9.41-49.38,7-14.56,18.36-24.33,33.2-30.3,9.87-3.97,20.13-6.19,30.73-6.97,6.9-.5,13.74-.35,20.53,1.02,1.45.29,2.91.6,4.24,1.29-.25.81-.9.84-1.37,1.05-12.02,5.33-23.41,11.78-34.07,19.5-1.37.99-1.39.97-2.61-.38-1.73-1.91-3.76-2.25-5.5-.94-1.72,1.3-1.96,3.5-.6,5.55q1.1,1.67-.95,3.21c-.8-.21-1.13-1.01-1.71-1.52-1.63-1.44-3.68-1.54-5.22-.21-1.5,1.29-1.73,3.45-.53,5.2.18.26.42.48.6.75.29.43,1.03.76.58,1.39-.41.57-.96,1.1-1.57,1.43-.47.25-.82-.35-1.15-.67-.8-.8-1.61-1.54-2.84-1.62-1.57-.11-2.83.39-3.7,1.74-.85,1.33-.77,2.93.18,4.28.09.13.2.25.3.37q1.56,1.91-.37,3.56c-.71-.23-1.14-.84-1.71-1.26-1.87-1.35-4.01-1.18-5.38.43-1.29,1.51-1.19,3.64.25,5.22.21.24.45.46.7.65.74.57,1.06,1.11.24,1.94-.66.67-1.15,1.39-2.12.45-.34-.33-.75-.61-1.17-.84-1.74-.95-3.77-.52-4.93,1.02-1.06,1.41-.98,3.5.26,4.86.58.64,1.29,1.17,2.05,1.86Z"/>
          <path class="cls-1" d="M321.82,259.01c0-2.55.02-5.1,0-7.65,0-.86.54-1.1,1.2-1.22,1.89-.34,3.77-.73,5.68-.94,30.06-3.29,55.43,15.84,62.42,41.73,6.03,22.34-2.62,46.67-21.52,60.07-.32.23-.65.43-.99.66-.56-.58-.21-1.1-.08-1.58,1.08-3.85,2.21-7.68,3.26-11.53.39-1.42,1.06-2.61,1.98-3.76,7.76-9.76,11.42-20.92,10.24-33.31-1.7-17.79-10.89-30.79-26.75-38.88-10.58-5.4-21.83-6.34-33.39-3.75-.54.12-1.05.4-2.03.17Z"/>
          <path class="cls-1" d="M284.69,331.72c-9.28-15.3-8.93-38.22,0-52.41v52.41Z"/>
          <path class="cls-1" d="M127.36,277.89c.21.01.29.12.22.3-.01.02-.16.03-.22,0-.19-.14-.16-.26.07-.33,0,0-.07.03-.07.03Z"/>
        </g>
        <path class="cls-1" d="M120.6,151.01c-.02-32.45-26.33-61.22-61.55-61.18-34.1.04-61.47,27.63-61.3,61.67.17,34.6,28.45,61.33,61.56,61.16,34.01-.1,61.31-27.65,61.29-61.65ZM6.26,168.8c.17.1.34.2.5.31.86.52,1.73,1.02,2.61,1.51s1.76.95,2.66,1.4,1.8.87,2.71,1.28,1.84.79,2.77,1.15,1.88.7,2.83,1.01,1.92.6,2.88.86c5.82,1.55,11.76,2.17,17.73,2.67,5.65.47,11.3.9,16.8,2.41,2.45.67,4.87,1.44,7.22,2.68-.44,1.17-1.32,1.88-2.07,2.67-6.47,6.87-13.98,12.35-22.35,16.69-1,.52-1.84.61-2.92.15-15.34-6.6-25.9-17.74-31.77-33.34-.14-.37-.17-.78-.26-1.16-.01-.07-.08-.1-.12-.16-.05-.06-.07-.14-.07-.22,0-.12.08-.21.2-.23.06,0,.12,0,.17.03.08.04.16.09.24.14s.16.11.24.16ZM47.11,97.41c2.38,3.53,4.2,7.34,5.66,11.33,2.35,6.4,3.53,13.09,4.86,19.75.86,4.31,1.75,8.6,3.17,12.77,2.93,8.57,8.43,14.54,17.19,17.32,1.66.53,1.7.61,1.06,2.12-1.05,2.5-2.21,4.96-3.25,7.46-.45,1.1-.97,1.18-1.98.66-5.78-2.93-11.41-6.12-16.81-9.7-15.78-10.46-29.6-23.07-41.47-37.81-.5-.62-.93-1.31-1.48-1.89-.75-.8-.65-1.41,0-2.27,7.87-10.23,18.04-17.04,30.44-20.55.38-.11.78-.18.89-.2,1.1-.17,1.35.49,1.7,1.01ZM11.72,124.27c13.53,16.78,29.42,30.89,47.81,42.15,3.61,2.21,7.32,4.27,11.1,6.18,2.55,1.28,2.15,1.03.8,3.22-.67,1.09-1.5,2.08-2.15,3.18-.63,1.08-1.32,1.08-2.37.59-6.61-3.08-13.66-4.34-20.87-5-6.92-.63-13.86-1.04-20.65-2.74-7.73-1.94-14.59-5.56-20.93-10.31-.96-.72-1.18-1.61-1.33-2.65-1.44-10.56.02-20.72,4.3-30.47.83-1.89,1.69-3.77,2.88-5.47.74.21,1.02.84,1.41,1.32ZM78.42,98.05c1.8.64,3.94,1,5.16,2.39,1.17,1.33.87,3.48,1.1,5.29,2.01,15.71,1.37,31.26-2.86,46.59-.08.31-.19.61-.24.93-.19,1.09-.78,1.14-1.73.84-4.99-1.55-9.07-4.28-11.88-8.77-2.06-3.3-3.23-6.96-4.07-10.7-1.29-5.77-2.37-11.58-3.64-17.35-1.63-7.37-4.08-14.45-8.07-20.92-.17-.27-.36-.54-.15-1.18,9.03-1.21,17.82-.17,26.38,2.89ZM96.34,108.65c6.02,5.28,10.72,11.55,14.18,18.79.93,1.94,1.02,3.83.76,5.81-1.05,8.02-5.19,13.92-12.34,17.7-3.87,2.04-8.96,3.48-12.61,3.52,4.51-16.69,5.29-33.58,2.99-50.88,2.8,1.44,4.94,3.23,7.02,5.06ZM84.25,160.61c.33-.91,1.04-.85,1.74-.94,3.72-.52,7.38-1.28,10.92-2.61,7.82-2.93,13.9-7.74,17.23-15.6.09-.2.28-.36.48-.6.79,1.72.78,3.52.92,5.23.95,11.6-1.25,22.56-6.99,32.75-1,1.78-1.01,1.75-2.96,1.31-8.27-1.87-16.3-4.48-24.09-7.84-.58-.25-1.21-.4-1.82-1.03,1.76-3.41,3.24-7.01,4.57-10.67ZM48.01,204.82c7.66-4.59,14.49-10.16,20.37-16.89,1.36-1.56,1.38-1.56,3.07-.49,2.38,1.51,4.49,3.33,5.99,5.76,2.19,3.55,2,7.92-.44,11.26-.35.48-.76.76-1.32.93-9.68,2.89-19.44,3.26-29.49.94.48-.96,1.22-1.14,1.82-1.5ZM83.91,202.12c-.69-.56-.36-1.13-.28-1.62.7-4.21-.53-7.89-3.03-11.22-1.74-2.33-3.91-4.19-6.35-5.77-1.48-.96-1.46-.99-.45-2.52.88-1.33,1.8-2.64,2.6-4.02.56-.96,1.16-1.09,2.16-.65,2.19.97,4.41,1.85,6.65,2.71,5.59,2.15,11.29,3.96,17.13,5.32.61.14,1.21.36,2.2.66-5.7,7.54-12.49,13.14-20.63,17.1Z"/>
        <g>
          <path class="cls-1" d="M322.49,153.69c.15-.93.62-1.28.98-1.7.38-.45.79-.46,1.23-.07.24.21.48.43.74.61,1.86,1.21,3.87,1.02,5.2-.5,1.35-1.54,1.31-3.53-.18-5.2-.36-.41-.92-.64-1.17-.81.22-1.04.7-1.37,1.08-1.77.38-.4.8-.49,1.22-.05.17.17.33.35.52.49,1.93,1.49,3.9,1.49,5.39,0,1.44-1.45,1.44-3.57,0-5.41-.94-1.19-.88-1.61.21-2.41.49-.36.85-.3,1.24.1.33.34.64.73,1.02,1.01,1.45,1.11,3.52,1.03,4.87-.15,1.38-1.21,1.71-3.17.75-4.79-.36-.61-.85-1.15-1.32-1.78.22-.26.42-.5.63-.73.79-.87,1.44-1.04,2.23.11.88,1.26,2.19,1.84,3.77,1.54,2.79-.54,3.95-3.4,2.44-5.97-.93-1.59-.94-1.6.56-2.68,11.12-8.04,23.04-14.66,35.68-20,1.87-.79,2.01-.75,2.92,1.07,1.9,3.78,2.65,7.89,2.97,12.03,1.35,17.56-1.51,34.39-9.04,50.37-7.16,15.19-19,25.21-34.48,31.2-13.7,5.3-27.9,7.43-42.54,6.61-4.07-.23-8.11-.86-11.96-2.3-.52-.2-1.04-.42-1.54-.66-1.72-.86-1.74-.88-1-2.7,3.95-9.73,8.76-19,14.4-27.86,2.28-3.57,4.69-7.06,7.19-10.48.64-.88,1.07-1.35,2.25-.51,2.11,1.51,4.2,1.18,5.52-.55,1.29-1.7.96-3.72-.93-5.51-.29-.27-.66-.45-.83-.55Z"/>
          <path class="cls-1" d="M210.5,89.79c-33.93-.03-61.58,27.6-61.56,61.51.02,33.85,27.51,61.33,61.39,61.36,34.06.03,61.5-27.38,61.48-61.43-.02-33.9-27.47-61.41-61.31-61.44ZM260.78,126.24c-3.01-1.84-6.14-3.44-9.43-4.71-.94-.36-1.66-.89-2.31-1.63-5.3-6-10.6-11.98-15.93-17.95-.79-.88-1.4-1.73-1.02-2.99.18-.58.49-.78,1.05-.54.29.12.59.25.88.38,12.45,5.73,21.78,14.68,27.9,26.95.13.27.14.6.21.91.21.01.29.12.22.3-.01.02-.16.03-.22,0-.19-.14-.16-.26.07-.33-.65.51-1.01-.14-1.42-.39ZM215.17,185.79c-3.45-6.22-7.05-12.36-10.66-18.49-.68-1.15-.76-2.04-.1-3.26,2.91-5.33,5.74-10.71,8.49-16.12.63-1.24,1.44-1.72,2.75-1.84,5.33-.51,10.66-1.08,15.99-1.63,2.62-.27,5.25-.5,7.87-.85,1.18-.16,1.89.14,2.56,1.17,3.27,5.03,6.48,10.09,9.22,15.44.53,1.04.57,1.82,0,2.86-3.97,7.3-7.88,14.64-11.79,21.98-.48.9-1.01,1.46-2.13,1.65-5.77.97-11.57,1.54-17.92,1.86-2,.67-3.16-.73-4.29-2.76ZM231.65,106.06c4.46,5.44,9.25,10.61,13.98,15.82.98,1.08,1.17,2,.7,3.4-1.46,4.4-3.3,8.66-4.93,13-.35.93-.86,1.34-1.9,1.44-7.96.76-15.91,1.58-23.86,2.45-1.1.12-1.75-.2-2.46-1-4.09-4.6-8.03-9.34-12.35-13.73-.64-.65-.82-1.28-.53-2.14,2.24-6.67,4.47-13.33,6.65-20.02.34-1.05,1.05-1.34,1.95-1.45,1.67-.21,3.33-.44,5.01-.54,3.19-.19,6.36-.7,10.02-.63,3.08-.77,5.48.65,7.74,3.41ZM192.27,199.09c-4.24-.76-8.48-1.57-12.73-2.27-1.03-.17-1.74-.57-2.38-1.37-3.34-4.2-6.24-8.69-8.86-13.36-.54-.96-.5-1.69.1-2.6,3.04-4.69,6.05-9.4,9.01-14.14.64-1.03,1.27-1.41,2.52-1.07,6.25,1.68,12.59,2.91,19.01,3.77,1.21.16,1.98.7,2.59,1.79,3.67,6.46,7.39,12.88,11.15,19.29.61,1.03.66,1.8-.1,2.79-2.04,2.66-3.96,5.41-5.96,8.11-.5.68-.94,1.57-1.95,1.26-4.22-.74-8.31-1.45-12.39-2.18ZM203.01,104.84c-1.93,5.84-3.89,11.66-5.79,17.51-.38,1.16-1.01,1.85-2.16,2.3-6.26,2.47-12.23,5.53-17.89,9.16-1.18.76-2.06.72-3.22,0-3.54-2.18-7.11-4.3-10.73-6.35-1.15-.65-1.37-1.35-.93-2.51,1.45-3.81,2.87-7.63,4.84-11.21.39-.71.85-1.34,1.41-1.93,6.09-6.43,13.28-11.21,21.55-14.4,1.11-.43,2.06-.45,3.19.02,3.19,1.32,6.23,2.89,9.09,4.82.45.3,1.01.54,1.06,1.21-.14.46-.27.92-.42,1.37ZM172.6,137.5c.99.57.91,1.4.94,2.26.15,4.96.39,9.91,1.19,14.82.21,1.26.28,2.56.64,3.78.48,1.6.12,2.87-.78,4.24-2.91,4.4-5.69,8.89-8.54,13.33-1.03,1.61-1.06,1.6-2.71.53-6.69-4.32-7.99-6.31-9.5-15.05-1.23-7.08-1.18-14.15.17-21.23.31-1.63.98-3.03,1.79-4.4,1.17-1.99,2.36-3.97,3.98-5.84,4.3,2.55,8.54,5.09,12.83,7.56ZM242.38,189.41c-.23-.76-.07-1.39.28-2.05,4.24-7.88,8.47-15.76,12.68-23.65.36-.68.86-1.12,1.54-1.43,3.42-1.58,6.68-3.43,9.77-5.57.18-.12.42-.15.65-.23.14,13.31-9.49,32.2-23.14,41.1-.49-2.92-1-5.58-1.78-8.17ZM183.41,201.81c1.81-.18,3.52.31,5.25.62,4.39.78,8.76,1.73,13.17,2.29,3.59.46,6.45,2.51,9.7,3.77-10.02.41-19.38-1.84-28.13-6.67Z"/>
          <path class="cls-1" d="M500.8,188.66c-.4,1.42-.71,2.48-1.01,3.54-1.68,5.92-3.33,11.85-5.06,17.75-.89,3.06-.27,2.67-3.47,2.67-23.28.01-46.56,0-69.84,0-.79,0-1.59,0-2.34,0-.38-.83.15-1.32.41-1.86,1.49-3.1,2.99-6.19,4.53-9.26.52-1.03.76-2.05.76-3.21-.02-31.36-.02-62.72,0-94.08,0-1.16-.26-2.18-.77-3.21-1.78-3.56-3.5-7.16-5.24-10.75.69-.71,1.45-.43,2.11-.44,9.36-.02,18.72-.02,28.08-.01,2.42,0,2.43.01,2.43,2.52,0,31.04,0,62.08,0,93.12,0,3.64-.47,3.19,3.17,3.19,14.4.02,28.8,0,43.2,0,.87,0,1.75,0,3.02,0Z"/>
          <path class="cls-1" d="M659.68,151.01c-.02-32.45-26.33-61.22-61.55-61.18-34.1.04-61.47,27.63-61.3,61.67.17,34.6,28.45,61.33,61.56,61.16,34.01-.1,61.31-27.65,61.29-61.65ZM545.34,168.8c.17.1.34.2.5.31.86.52,1.73,1.02,2.61,1.51s1.76.95,2.66,1.4,1.8.87,2.71,1.28,1.84.79,2.77,1.15,1.88.7,2.83,1.01,1.92.6,2.88.86c5.82,1.55,11.76,2.17,17.73,2.67,5.65.47,11.3.9,16.8,2.41,2.45.67,4.87,1.44,7.22,2.68-.44,1.17-1.32,1.88-2.07,2.67-6.47,6.87-13.98,12.35-22.35,16.69-1,.52-1.84.61-2.92.15-15.34-6.6-25.9-17.74-31.77-33.34-.14-.37-.17-.78-.26-1.16-.01-.07-.08-.1-.12-.16-.05-.06-.07-.14-.07-.22,0-.12.08-.21.2-.23.06,0,.12,0,.17.03.08.04.16.09.24.14s.16.11.24.16ZM586.19,97.41c2.38,3.53,4.2,7.34,5.66,11.33,2.35,6.4,3.53,13.09,4.86,19.75.86,4.31,1.75,8.6,3.17,12.77,2.93,8.57,8.43,14.54,17.19,17.32,1.66.53,1.7.61,1.06,2.12-1.05,2.5-2.21,4.96-3.25,7.46-.45,1.1-.97,1.18-1.98.66-5.78-2.93-11.41-6.12-16.81-9.7-15.78-10.46-29.6-23.07-41.47-37.81-.5-.62-.93-1.31-1.48-1.89-.75-.8-.65-1.41,0-2.27,7.87-10.23,18.04-17.04,30.44-20.55.38-.11.78-.18.89-.2,1.1-.17,1.35.49,1.7,1.01ZM550.8,124.27c13.53,16.78,29.42,30.89,47.81,42.15,3.61,2.21,7.32,4.27,11.1,6.18,2.55,1.28,2.15,1.03.8,3.22-.67,1.09-1.5,2.08-2.15,3.18-.63,1.08-1.32,1.08-2.37.59-6.61-3.08-13.66-4.34-20.87-5-6.92-.63-13.86-1.04-20.65-2.74-7.73-1.94-14.59-5.56-20.93-10.31-.96-.72-1.18-1.61-1.33-2.65-1.44-10.56.02-20.72,4.3-30.47.83-1.89,1.69-3.77,2.88-5.47.74.21,1.02.84,1.41,1.32ZM617.5,98.05c1.8.64,3.94,1,5.16,2.39,1.17,1.33.87,3.48,1.1,5.29,2.01,15.71,1.37,31.26-2.86,46.59-.08.31-.19.61-.24.93-.19,1.09-.78,1.14-1.73.84-4.99-1.55-9.07-4.28-11.88-8.77-2.06-3.3-3.23-6.96-4.07-10.7-1.29-5.77-2.37-11.58-3.64-17.35-1.63-7.37-4.08-14.45-8.07-20.92-.17-.27-.36-.54-.15-1.18,9.03-1.21,17.82-.17,26.38,2.89ZM635.42,108.65c6.02,5.28,10.72,11.55,14.18,18.79.93,1.94,1.02,3.83.76,5.81-1.05,8.02-5.19,13.92-12.34,17.7-3.87,2.04-8.96,3.48-12.61,3.52,4.51-16.69,5.29-33.58,2.99-50.88,2.8,1.44,4.94,3.23,7.02,5.06ZM623.33,160.61c.33-.91,1.04-.85,1.74-.94,3.72-.52,7.38-1.28,10.92-2.61,7.82-2.93,13.9-7.74,17.23-15.6.09-.2.28-.36.48-.6.79,1.72.78,3.52.92,5.23.95,11.6-1.25,22.56-6.99,32.75-1,1.78-1.01,1.75-2.96,1.31-8.27-1.87-16.3-4.48-24.09-7.84-.58-.25-1.21-.4-1.82-1.03,1.76-3.41,3.24-7.01,4.57-10.67ZM587.09,204.82c7.66-4.59,14.49-10.16,20.37-16.89,1.36-1.56,1.38-1.56,3.07-.49,2.38,1.51,4.49,3.33,5.99,5.76,2.19,3.55,2,7.92-.44,11.26-.35.48-.76.76-1.32.93-9.68,2.89-19.44,3.26-29.49.94.48-.96,1.22-1.14,1.82-1.5ZM623,202.12c-.69-.56-.36-1.13-.28-1.62.7-4.21-.53-7.89-3.03-11.22-1.74-2.33-3.91-4.19-6.35-5.77-1.48-.96-1.46-.99-.45-2.52.88-1.33,1.8-2.64,2.6-4.02.56-.96,1.16-1.09,2.16-.65,2.19.97,4.41,1.85,6.65,2.71,5.59,2.15,11.29,3.96,17.13,5.32.61.14,1.21.36,2.2.66-5.7,7.54-12.49,13.14-20.63,17.1Z"/>
          <path class="cls-1" d="M456.59,148.43c0-11.03,0-22.06,0-33.09,0-1.97.02-2,1.78-2.47,24.24-6.54,48.11,7.76,53.97,30.26,3.77,14.48.53,27.5-9.13,38.94-.96,1.14-1.99,1.59-3.49,1.58-13.59-.06-27.17-.03-40.76-.03-.4,0-.8-.02-1.2,0-.78.02-1.19-.32-1.16-1.14.02-.56,0-1.12,0-1.68,0-10.79,0-21.58,0-32.37Z"/>
          <path class="cls-1" d="M314.43,157.11c-4.6,6.21-8.85,12.58-12.67,19.23-3.78,6.59-7.09,13.41-10.05,20.45-.99-.4-.98-1.31-1.22-2.01-1.1-3.36-1.65-6.85-1.85-10.36-.97-17.24,1.9-33.75,9.41-49.38,7-14.56,18.36-24.33,33.2-30.3,9.87-3.97,20.13-6.19,30.73-6.97,6.9-.5,13.74-.35,20.53,1.02,1.45.29,2.91.6,4.24,1.29-.25.81-.9.84-1.37,1.05-12.02,5.33-23.41,11.78-34.07,19.5-1.37.99-1.39.97-2.61-.38-1.73-1.91-3.76-2.25-5.5-.94-1.72,1.3-1.96,3.5-.6,5.55q1.1,1.67-.95,3.21c-.8-.21-1.13-1.01-1.71-1.52-1.63-1.44-3.68-1.54-5.22-.21-1.5,1.29-1.73,3.45-.53,5.2.18.26.42.48.6.75.29.43,1.03.76.58,1.39-.41.57-.96,1.1-1.57,1.43-.47.25-.82-.35-1.15-.67-.8-.8-1.61-1.54-2.84-1.62-1.57-.11-2.83.39-3.7,1.74-.85,1.33-.77,2.93.18,4.28.09.13.2.25.3.37q1.56,1.91-.37,3.56c-.71-.23-1.14-.84-1.71-1.26-1.87-1.35-4.01-1.18-5.38.43-1.29,1.51-1.19,3.64.25,5.22.21.24.45.46.7.65.74.57,1.06,1.11.24,1.94-.66.67-1.15,1.39-2.12.45-.34-.33-.75-.61-1.17-.84-1.74-.95-3.77-.52-4.93,1.02-1.06,1.41-.98,3.5.26,4.86.58.64,1.29,1.17,2.05,1.86Z"/>
          <path class="cls-1" d="M456.59,107.79c0-2.55.02-5.1,0-7.65,0-.86.54-1.1,1.2-1.22,1.89-.34,3.77-.73,5.68-.94,30.06-3.29,55.43,15.84,62.42,41.73,6.03,22.34-2.62,46.67-21.52,60.07-.32.23-.65.43-.99.66-.56-.58-.21-1.1-.08-1.58,1.08-3.85,2.21-7.68,3.26-11.53.39-1.42,1.06-2.61,1.98-3.76,7.76-9.76,11.42-20.92,10.24-33.31-1.7-17.79-10.89-30.79-26.75-38.88-10.58-5.4-21.83-6.34-33.39-3.75-.54.12-1.05.4-2.03.17Z"/>
          <path class="cls-1" d="M419.46,180.5c-9.28-15.3-8.93-38.22,0-52.41v52.41Z"/>
          <path class="cls-1" d="M262.13,126.67c.21.01.29.12.22.3-.01.02-.16.03-.22,0-.19-.14-.16-.26.07-.33,0,0-.07.03-.07.03Z"/>
        </g>
        <g>
          <path class="cls-1" d="M96.49,37.44c-.4,1.42-.71,2.48-1.01,3.54-1.68,5.92-3.33,11.85-5.06,17.75-.89,3.06-.27,2.67-3.47,2.67-23.28.01-46.56,0-69.84,0-.79,0-1.59,0-2.34,0-.38-.83.15-1.32.41-1.86,1.49-3.1,2.99-6.19,4.53-9.26.52-1.03.76-2.05.76-3.21-.02-31.36-.02-62.72,0-94.08,0-1.16-.26-2.18-.77-3.21-1.78-3.56-3.5-7.16-5.24-10.75.69-.71,1.45-.43,2.11-.44,9.36-.02,18.72-.02,28.08-.01,2.42,0,2.43.01,2.43,2.52,0,31.04,0,62.08,0,93.12,0,3.64-.47,3.19,3.17,3.19,14.4.02,28.8,0,43.2,0,.87,0,1.75,0,3.02,0Z"/>
          <path class="cls-1" d="M255.37-.21c-.02-32.45-26.33-61.22-61.55-61.18-34.1.04-61.47,27.63-61.3,61.67.17,34.6,28.45,61.33,61.56,61.16,34.01-.1,61.31-27.65,61.29-61.65ZM141.03,17.58c.17.1.34.2.5.31.86.52,1.73,1.02,2.61,1.51s1.76.95,2.66,1.4,1.8.87,2.71,1.28,1.84.79,2.77,1.15,1.88.7,2.83,1.01,1.92.6,2.88.86c5.82,1.55,11.76,2.17,17.73,2.67,5.65.47,11.3.9,16.8,2.41,2.45.67,4.87,1.44,7.22,2.68-.44,1.17-1.32,1.88-2.07,2.67-6.47,6.87-13.98,12.35-22.35,16.69-1,.52-1.84.61-2.92.15-15.34-6.6-25.9-17.74-31.77-33.34-.14-.37-.17-.78-.26-1.16-.01-.07-.08-.1-.12-.16-.05-.06-.07-.14-.07-.22,0-.12.08-.21.2-.23.06,0,.12,0,.17.03.08.04.16.09.24.14s.16.11.24.16ZM181.88-53.81c2.38,3.53,4.2,7.34,5.66,11.33,2.35,6.4,3.53,13.09,4.86,19.75.86,4.31,1.75,8.6,3.17,12.77,2.93,8.57,8.43,14.54,17.19,17.32,1.66.53,1.7.61,1.06,2.12-1.05,2.5-2.21,4.96-3.25,7.46-.45,1.1-.97,1.18-1.98.66-5.78-2.93-11.41-6.12-16.81-9.7-15.78-10.46-29.6-23.07-41.47-37.81-.5-.62-.93-1.31-1.48-1.89-.75-.8-.65-1.41,0-2.27,7.87-10.23,18.04-17.04,30.44-20.55.38-.11.78-.18.89-.2,1.1-.17,1.35.49,1.7,1.01ZM146.49-26.95c13.53,16.78,29.42,30.89,47.81,42.15,3.61,2.21,7.32,4.27,11.1,6.18,2.55,1.28,2.15,1.03.8,3.22-.67,1.09-1.5,2.08-2.15,3.18-.63,1.08-1.32,1.08-2.37.59-6.61-3.08-13.66-4.34-20.87-5-6.92-.63-13.86-1.04-20.65-2.74-7.73-1.94-14.59-5.56-20.93-10.31-.96-.72-1.18-1.61-1.33-2.65-1.44-10.56.02-20.72,4.3-30.47.83-1.89,1.69-3.77,2.88-5.47.74.21,1.02.84,1.41,1.32ZM213.19-53.17c1.8.64,3.94,1,5.16,2.39,1.17,1.33.87,3.48,1.1,5.29,2.01,15.71,1.37,31.26-2.86,46.59-.08.31-.19.61-.24.93-.19,1.09-.78,1.14-1.73.84-4.99-1.55-9.07-4.28-11.88-8.77-2.06-3.3-3.23-6.96-4.07-10.7-1.29-5.77-2.37-11.58-3.64-17.35-1.63-7.37-4.08-14.45-8.07-20.92-.17-.27-.36-.54-.15-1.18,9.03-1.21,17.82-.17,26.38,2.89ZM231.11-42.57c6.02,5.28,10.72,11.55,14.18,18.79.93,1.94,1.02,3.83.76,5.81-1.05,8.02-5.19,13.92-12.34,17.7-3.87,2.04-8.96,3.48-12.61,3.52,4.51-16.69,5.29-33.58,2.99-50.88,2.8,1.44,4.94,3.23,7.02,5.06ZM219.02,9.39c.33-.91,1.04-.85,1.74-.94,3.72-.52,7.38-1.28,10.92-2.61,7.82-2.93,13.9-7.74,17.23-15.6.09-.2.28-.36.48-.6.79,1.72.78,3.52.92,5.23.95,11.6-1.25,22.56-6.99,32.75-1,1.78-1.01,1.75-2.96,1.31-8.27-1.87-16.3-4.48-24.09-7.84-.58-.25-1.21-.4-1.82-1.03,1.76-3.41,3.24-7.01,4.57-10.67ZM182.78,53.6c7.66-4.59,14.49-10.16,20.37-16.89,1.36-1.56,1.38-1.56,3.07-.49,2.38,1.51,4.49,3.33,5.99,5.76,2.19,3.55,2,7.92-.44,11.26-.35.48-.76.76-1.32.93-9.68,2.89-19.44,3.26-29.49.94.48-.96,1.22-1.14,1.82-1.5ZM218.69,50.89c-.69-.56-.36-1.13-.28-1.62.7-4.21-.53-7.89-3.03-11.22-1.74-2.33-3.91-4.19-6.35-5.77-1.48-.96-1.46-.99-.45-2.52.88-1.33,1.8-2.64,2.6-4.02.56-.96,1.16-1.09,2.16-.65,2.19.97,4.41,1.85,6.65,2.71,5.59,2.15,11.29,3.96,17.13,5.32.61.14,1.21.36,2.2.66-5.7,7.54-12.49,13.14-20.63,17.1Z"/>
          <path class="cls-1" d="M52.28-2.79c0-11.03,0-22.06,0-33.09,0-1.97.02-2,1.78-2.47,24.24-6.54,48.11,7.76,53.97,30.26,3.77,14.48.53,27.5-9.13,38.94-.96,1.14-1.99,1.59-3.49,1.58-13.59-.06-27.17-.03-40.76-.03-.4,0-.8-.02-1.2,0-.78.02-1.19-.32-1.16-1.14.02-.56,0-1.12,0-1.68,0-10.79,0-21.58,0-32.37Z"/>
          <path class="cls-1" d="M52.28-43.43c0-2.55.02-5.1,0-7.65,0-.86.54-1.1,1.2-1.22,1.89-.34,3.77-.73,5.68-.94,30.06-3.29,55.43,15.84,62.42,41.73,6.03,22.34-2.62,46.67-21.52,60.07-.32.23-.65.43-.99.66-.56-.58-.21-1.1-.08-1.58,1.08-3.85,2.21-7.68,3.26-11.53.39-1.42,1.06-2.61,1.98-3.76,7.76-9.76,11.42-20.92,10.24-33.31-1.7-17.79-10.89-30.79-26.75-38.88-10.58-5.4-21.83-6.34-33.39-3.75-.54.12-1.05.4-2.03.17Z"/>
          <path class="cls-1" d="M15.15,29.28C5.87,13.98,6.21-8.94,15.15-23.13V29.28Z"/>
        </g>
        <g>
          <path class="cls-1" d="M457.26,2.46c.15-.93.62-1.28.98-1.7.38-.45.79-.46,1.23-.07.24.21.48.43.74.61,1.86,1.21,3.87,1.02,5.2-.5,1.35-1.54,1.31-3.53-.18-5.2-.36-.41-.92-.64-1.17-.81.22-1.04.7-1.37,1.08-1.77.38-.4.8-.49,1.22-.05.17.17.33.35.52.49,1.93,1.49,3.9,1.49,5.39,0,1.44-1.45,1.44-3.57,0-5.41-.94-1.19-.88-1.61.21-2.41.49-.36.85-.3,1.24.1.33.34.64.73,1.02,1.01,1.45,1.11,3.52,1.03,4.87-.15,1.38-1.21,1.71-3.17.75-4.79-.36-.61-.85-1.15-1.32-1.78.22-.26.42-.5.63-.73.79-.87,1.44-1.04,2.23.11.88,1.26,2.19,1.84,3.77,1.54,2.79-.54,3.95-3.4,2.44-5.97-.93-1.59-.94-1.6.56-2.68,11.12-8.04,23.04-14.66,35.68-20,1.87-.79,2.01-.75,2.92,1.07,1.9,3.78,2.65,7.89,2.97,12.03,1.35,17.56-1.51,34.39-9.04,50.37-7.16,15.19-19,25.21-34.48,31.2-13.7,5.3-27.9,7.43-42.54,6.61-4.07-.23-8.11-.86-11.96-2.3-.52-.2-1.04-.42-1.54-.66-1.72-.86-1.74-.88-1-2.7,3.95-9.73,8.76-19,14.4-27.86,2.28-3.57,4.69-7.06,7.19-10.48.64-.88,1.07-1.35,2.25-.51,2.11,1.51,4.2,1.18,5.52-.55,1.29-1.7.96-3.72-.93-5.51-.29-.27-.66-.45-.83-.55Z"/>
          <path class="cls-1" d="M345.28-61.44c-33.93-.03-61.58,27.6-61.56,61.51.02,33.85,27.51,61.33,61.39,61.36,34.06.03,61.5-27.38,61.48-61.43-.02-33.9-27.47-61.41-61.31-61.44ZM395.55-24.98c-3.01-1.84-6.14-3.44-9.43-4.71-.94-.36-1.66-.89-2.31-1.63-5.3-6-10.6-11.98-15.93-17.95-.79-.88-1.4-1.73-1.02-2.99.18-.58.49-.78,1.05-.54.29.12.59.25.88.38,12.45,5.73,21.78,14.68,27.9,26.95.13.27.14.6.21.91.21.01.29.12.22.3-.01.02-.16.03-.22,0-.19-.14-.16-.26.07-.33-.65.51-1.01-.14-1.42-.39ZM349.94,34.57c-3.45-6.22-7.05-12.36-10.66-18.49-.68-1.15-.76-2.04-.1-3.26,2.91-5.33,5.74-10.71,8.49-16.12.63-1.24,1.44-1.72,2.75-1.84,5.33-.51,10.66-1.08,15.99-1.63,2.62-.27,5.25-.5,7.87-.85,1.18-.16,1.89.14,2.56,1.17,3.27,5.03,6.48,10.09,9.22,15.44.53,1.04.57,1.82,0,2.86-3.97,7.3-7.88,14.64-11.79,21.98-.48.9-1.01,1.46-2.13,1.65-5.77.97-11.57,1.54-17.92,1.86-2,.67-3.16-.73-4.29-2.76ZM366.42-45.16c4.46,5.44,9.25,10.61,13.98,15.82.98,1.08,1.17,2,.7,3.4-1.46,4.4-3.3,8.66-4.93,13-.35.93-.86,1.34-1.9,1.44-7.96.76-15.91,1.58-23.86,2.45-1.1.12-1.75-.2-2.46-1-4.09-4.6-8.03-9.34-12.35-13.73-.64-.65-.82-1.28-.53-2.14,2.24-6.67,4.47-13.33,6.65-20.02.34-1.05,1.05-1.34,1.95-1.45,1.67-.21,3.33-.44,5.01-.54,3.19-.19,6.36-.7,10.02-.63,3.08-.77,5.48.65,7.74,3.41ZM327.04,47.87c-4.24-.76-8.48-1.57-12.73-2.27-1.03-.17-1.74-.57-2.38-1.37-3.34-4.2-6.24-8.69-8.86-13.36-.54-.96-.5-1.69.1-2.6,3.04-4.69,6.05-9.4,9.01-14.14.64-1.03,1.27-1.41,2.52-1.07,6.25,1.68,12.59,2.91,19.01,3.77,1.21.16,1.98.7,2.59,1.79,3.67,6.46,7.39,12.88,11.15,19.29.61,1.03.66,1.8-.1,2.79-2.04,2.66-3.96,5.41-5.96,8.11-.5.68-.94,1.57-1.95,1.26-4.22-.74-8.31-1.45-12.39-2.18ZM337.78-46.38c-1.93,5.84-3.89,11.66-5.79,17.51-.38,1.16-1.01,1.85-2.16,2.3-6.26,2.47-12.23,5.53-17.89,9.16-1.18.76-2.06.72-3.22,0-3.54-2.18-7.11-4.3-10.73-6.35-1.15-.65-1.37-1.35-.93-2.51,1.45-3.81,2.87-7.63,4.84-11.21.39-.71.85-1.34,1.41-1.93,6.09-6.43,13.28-11.21,21.55-14.4,1.11-.43,2.06-.45,3.19.02,3.19,1.32,6.23,2.89,9.09,4.82.45.3,1.01.54,1.06,1.21-.14.46-.27.92-.42,1.37ZM307.37-13.72c.99.57.91,1.4.94,2.26.15,4.96.39,9.91,1.19,14.82.21,1.26.28,2.56.64,3.78.48,1.6.12,2.87-.78,4.24-2.91,4.4-5.69,8.89-8.54,13.33-1.03,1.61-1.06,1.6-2.71.53-6.69-4.32-7.99-6.31-9.5-15.05-1.23-7.08-1.18-14.15.17-21.23.31-1.63.98-3.03,1.79-4.4,1.17-1.99,2.36-3.97,3.98-5.84,4.3,2.55,8.54,5.09,12.83,7.56ZM377.15,38.19c-.23-.76-.07-1.39.28-2.05,4.24-7.88,8.47-15.76,12.68-23.65.36-.68.86-1.12,1.54-1.43,3.42-1.58,6.68-3.43,9.77-5.57.18-.12.42-.15.65-.23.14,13.31-9.49,32.2-23.14,41.1-.49-2.92-1-5.58-1.78-8.17ZM318.18,50.59c1.81-.18,3.52.31,5.25.62,4.39.78,8.76,1.73,13.17,2.29,3.59.46,6.45,2.51,9.7,3.77-10.02.41-19.38-1.84-28.13-6.67Z"/>
          <path class="cls-1" d="M449.2,5.89c-4.6,6.21-8.85,12.58-12.67,19.23-3.78,6.59-7.09,13.41-10.05,20.45-.99-.4-.98-1.31-1.22-2.01-1.1-3.36-1.65-6.85-1.85-10.36-.97-17.24,1.9-33.75,9.41-49.38,7-14.56,18.36-24.33,33.2-30.3,9.87-3.97,20.13-6.19,30.73-6.97,6.9-.5,13.74-.35,20.53,1.02,1.45.29,2.91.6,4.24,1.29-.25.81-.9.84-1.37,1.05-12.02,5.33-23.41,11.78-34.07,19.5-1.37.99-1.39.97-2.61-.38-1.73-1.91-3.76-2.25-5.5-.94-1.72,1.3-1.96,3.5-.6,5.55q1.1,1.67-.95,3.21c-.8-.21-1.13-1.01-1.71-1.52-1.63-1.44-3.68-1.54-5.22-.21-1.5,1.29-1.73,3.45-.53,5.2.18.26.42.48.6.75.29.43,1.03.76.58,1.39-.41.57-.96,1.1-1.57,1.43-.47.25-.82-.35-1.15-.67-.8-.8-1.61-1.54-2.84-1.62-1.57-.11-2.83.39-3.7,1.74-.85,1.33-.77,2.93.18,4.28.09.13.2.25.3.37q1.56,1.91-.37,3.56c-.71-.23-1.14-.84-1.71-1.26-1.87-1.35-4.01-1.18-5.38.43-1.29,1.51-1.19,3.64.25,5.22.21.24.45.46.7.65.74.57,1.06,1.11.24,1.94-.66.67-1.15,1.39-2.12.45-.34-.33-.75-.61-1.17-.84-1.74-.95-3.77-.52-4.93,1.02-1.06,1.41-.98,3.5.26,4.86.58.64,1.29,1.17,2.05,1.86Z"/>
        </g>
      </g>
    </pattern>
  </defs>
  <!-- Generator: Adobe Illustrator 28.6.0, SVG Export Plug-In . SVG Version: 1.2.0 Build 709)  -->
  <g>
    <g id="Capa_1">
      <rect class="cls-3" width="1920" height="1920"/>
    </g>
  </g>
</svg>