<?xml version="1.0" encoding="UTF-8"?>
<svg xmlns="http://www.w3.org/2000/svg" version="1.1" viewBox="0 0 500 120">
  <defs>
    <style>
      .cls-1 {
        fill: #f6f6f6;
      }
    </style>
  </defs>
  <!-- Generator: Adobe Illustrator 28.6.0, SVG Export Plug-In . SVG Version: 1.2.0 Build 709)  -->
  <g>
    <g id="Capa_1">
      <g>
        <path class="cls-1" d="M169.9,62.41c.15-.91.61-1.25.96-1.66.37-.44.77-.45,1.2-.06.23.21.47.42.73.59,1.82,1.19,3.79.99,5.09-.48,1.32-1.5,1.28-3.45-.18-5.08-.35-.4-.9-.62-1.15-.79.21-1.02.68-1.34,1.06-1.73.37-.39.78-.48,1.2-.05.16.17.33.34.51.48,1.89,1.46,3.82,1.45,5.28,0,1.41-1.41,1.41-3.49,0-5.28-.92-1.16-.86-1.57.21-2.36.48-.35.83-.29,1.21.1.33.34.63.71,1,.99,1.42,1.08,3.45,1,4.77-.15,1.35-1.18,1.68-3.09.73-4.68-.36-.6-.83-1.13-1.29-1.74.22-.25.41-.49.62-.71.77-.85,1.41-1.01,2.19.11.86,1.23,2.15,1.8,3.69,1.5,2.73-.53,3.86-3.32,2.39-5.83-.91-1.55-.92-1.56.55-2.62,10.89-7.85,22.56-14.32,34.93-19.53,1.83-.77,1.97-.73,2.86,1.04,1.86,3.69,2.59,7.71,2.9,11.75,1.32,17.15-1.48,33.59-8.85,49.2-7.01,14.84-18.6,24.62-33.76,30.47-13.41,5.17-27.32,7.26-41.65,6.46-3.98-.22-7.94-.84-11.71-2.25-.51-.19-1.02-.41-1.51-.65-1.69-.84-1.71-.86-.98-2.64,3.86-9.5,8.58-18.56,14.09-27.2,2.23-3.49,4.59-6.89,7.04-10.23.63-.85,1.05-1.32,2.2-.5,2.07,1.47,4.12,1.15,5.4-.54,1.26-1.67.94-3.64-.91-5.38-.28-.26-.65-.44-.81-.54Z"/>
        <path class="cls-1" d="M60.27,0C27.06-.03-.02,26.95,0,60.07c.01,33.05,26.93,59.9,60.1,59.93,33.35.03,60.2-26.74,60.19-60C120.27,26.9,93.4.03,60.27,0ZM109.48,35.6c-2.95-1.8-6.01-3.36-9.23-4.6-.92-.35-1.62-.87-2.26-1.59-5.18-5.86-10.38-11.7-15.59-17.53-.77-.86-1.37-1.69-.99-2.92.17-.57.48-.76,1.03-.53.29.12.58.24.86.37,12.18,5.59,21.32,14.33,27.31,26.32.13.26.14.59.2.89.21.01.29.11.21.3-.01.02-.16.03-.21,0-.18-.13-.16-.25.07-.32-.63.5-.99-.14-1.39-.38ZM64.83,93.76c-3.37-6.08-6.9-12.07-10.44-18.06-.66-1.12-.75-1.99-.1-3.18,2.85-5.21,5.62-10.46,8.32-15.75.62-1.21,1.41-1.68,2.69-1.8,5.22-.49,10.43-1.05,15.65-1.59,2.57-.26,5.14-.49,7.7-.83,1.15-.15,1.85.13,2.51,1.14,3.2,4.91,6.34,9.85,9.02,15.08.52,1.01.56,1.77,0,2.79-3.89,7.13-7.72,14.3-11.54,21.46-.47.88-.99,1.42-2.08,1.61-5.64.94-11.32,1.5-17.54,1.82-1.96.65-3.1-.71-4.2-2.69ZM80.97,15.89c4.36,5.32,9.06,10.36,13.69,15.45.96,1.06,1.14,1.95.69,3.32-1.43,4.3-3.23,8.46-4.83,12.69-.34.91-.84,1.31-1.86,1.41-7.79.75-15.58,1.54-23.36,2.39-1.07.12-1.71-.2-2.41-.98-4.01-4.49-7.86-9.12-12.09-13.41-.63-.64-.8-1.25-.52-2.09,2.19-6.51,4.38-13.02,6.51-19.55.33-1.03,1.03-1.31,1.91-1.42,1.63-.21,3.26-.43,4.9-.53,3.13-.18,6.23-.68,9.81-.61,3.01-.75,5.36.63,7.58,3.33ZM42.41,106.75c-4.15-.74-8.3-1.53-12.46-2.22-1.01-.17-1.71-.56-2.33-1.34-3.27-4.1-6.11-8.48-8.68-13.05-.53-.94-.49-1.65.09-2.54,2.98-4.58,5.93-9.18,8.82-13.81.63-1.01,1.25-1.37,2.46-1.05,6.12,1.64,12.33,2.85,18.61,3.68,1.19.16,1.93.69,2.54,1.75,3.59,6.3,7.24,12.58,10.91,18.84.59,1.01.65,1.76-.1,2.72-2,2.6-3.88,5.29-5.84,7.92-.49.66-.92,1.54-1.91,1.23-4.13-.72-8.13-1.42-12.13-2.13ZM52.93,14.7c-1.89,5.7-3.81,11.39-5.67,17.1-.37,1.14-.99,1.8-2.11,2.25-6.13,2.41-11.97,5.4-17.51,8.95-1.16.74-2.02.7-3.15,0-3.46-2.13-6.96-4.2-10.5-6.2-1.12-.63-1.34-1.32-.91-2.45,1.42-3.72,2.81-7.45,4.74-10.95.38-.69.83-1.31,1.38-1.88,5.96-6.28,13-10.95,21.09-14.06,1.09-.42,2.02-.44,3.12.02,3.12,1.29,6.1,2.82,8.9,4.71.44.29.99.52,1.04,1.18-.14.45-.26.9-.41,1.34ZM23.16,46.6c.97.56.89,1.37.92,2.21.14,4.84.38,9.68,1.16,14.47.2,1.23.27,2.5.63,3.69.47,1.57.12,2.81-.77,4.14-2.85,4.3-5.57,8.68-8.36,13.02-1.01,1.58-1.03,1.56-2.65.52-6.55-4.22-7.82-6.16-9.3-14.7-1.2-6.91-1.15-13.82.17-20.73.3-1.59.96-2.96,1.75-4.3,1.15-1.94,2.31-3.88,3.89-5.71,4.21,2.49,8.36,4.97,12.56,7.39ZM91.47,97.3c-.22-.74-.07-1.35.28-2,4.15-7.69,8.29-15.39,12.41-23.1.36-.66.85-1.09,1.5-1.39,3.35-1.54,6.54-3.35,9.57-5.44.17-.12.41-.15.64-.22.13,13-9.29,31.45-22.65,40.14-.48-2.85-.98-5.45-1.74-7.98ZM33.75,109.41c1.77-.18,3.45.3,5.14.6,4.3.76,8.57,1.69,12.89,2.24,3.51.44,6.32,2.45,9.5,3.68-9.81.4-18.97-1.8-27.54-6.52Z"/>
        <path class="cls-1" d="M344.46,96.56c-.4,1.38-.69,2.42-.99,3.46-1.65,5.78-3.26,11.57-4.95,17.34-.87,2.99-.27,2.61-3.4,2.61-22.79.01-45.58,0-68.37,0-.78,0-1.56,0-2.29,0-.37-.81.15-1.29.4-1.82,1.46-3.02,2.92-6.05,4.43-9.05.5-1,.75-2,.75-3.13-.02-30.63-.02-61.25,0-91.88,0-1.13-.25-2.12-.76-3.13-1.75-3.48-3.43-6.99-5.13-10.49.68-.69,1.42-.42,2.07-.43,9.16-.02,18.33-.02,27.49-.01,2.37,0,2.38.01,2.38,2.46,0,30.31,0,60.63,0,90.94,0,3.56-.46,3.12,3.11,3.12,14.1.02,28.19,0,42.29,0,.86,0,1.71,0,2.96,0Z"/>
        <path class="cls-1" d="M500,59.8C499.98,28.1,474.22,0,439.75.05c-33.38.04-60.18,26.98-60.01,60.22.17,33.79,27.85,59.89,60.26,59.73,33.3-.1,60.02-27.01,60-60.2ZM388.06,77.17c.16.1.33.2.49.3.84.51,1.69,1,2.56,1.47s1.72.93,2.6,1.37,1.76.85,2.65,1.25,1.8.77,2.71,1.13,1.84.68,2.77.99,1.88.59,2.82.84c5.69,1.52,11.51,2.11,17.36,2.6,5.53.46,11.07.88,16.45,2.36,2.4.66,4.76,1.4,7.07,2.61-.43,1.14-1.3,1.84-2.02,2.61-6.33,6.71-13.69,12.06-21.88,16.3-.98.51-1.81.6-2.86.14-15.02-6.45-25.36-17.32-31.11-32.56-.14-.36-.17-.76-.25-1.14-.01-.07-.08-.1-.12-.15-.04-.06-.07-.14-.07-.21,0-.11.08-.21.19-.22.06,0,.11,0,.16.03.08.04.16.09.23.14s.15.11.23.16ZM428.05,7.45c2.33,3.45,4.11,7.17,5.54,11.07,2.3,6.25,3.46,12.79,4.76,19.29.84,4.21,1.71,8.4,3.1,12.48,2.87,8.37,8.26,14.2,16.83,16.91,1.62.51,1.66.59,1.04,2.07-1.03,2.44-2.17,4.84-3.18,7.29-.44,1.07-.95,1.15-1.94.64-5.65-2.87-11.17-5.98-16.45-9.47-15.45-10.21-28.98-22.53-40.6-36.93-.49-.61-.91-1.28-1.45-1.84-.73-.78-.64-1.38,0-2.22,7.71-9.99,17.66-16.64,29.8-20.07.38-.11.76-.17.88-.2,1.08-.17,1.32.48,1.66.98ZM393.41,33.68c13.24,16.39,28.8,30.16,46.81,41.16,3.54,2.16,7.16,4.17,10.87,6.03,2.5,1.25,2.11,1,.78,3.15-.66,1.06-1.47,2.03-2.1,3.1-.62,1.05-1.29,1.05-2.32.57-6.47-3-13.37-4.24-20.43-4.88-6.77-.62-13.57-1.01-20.22-2.68-7.57-1.9-14.29-5.43-20.49-10.07-.94-.7-1.16-1.57-1.3-2.59-1.41-10.31.02-20.23,4.21-29.75.81-1.84,1.65-3.68,2.82-5.34.73.21,1,.82,1.38,1.29ZM458.71,8.07c1.76.63,3.86.98,5.05,2.34,1.14,1.3.85,3.4,1.08,5.17,1.96,15.34,1.34,30.53-2.8,45.5-.08.3-.18.6-.24.91-.19,1.06-.77,1.11-1.69.82-4.88-1.51-8.88-4.18-11.63-8.57-2.02-3.23-3.16-6.8-3.98-10.45-1.27-5.63-2.32-11.31-3.57-16.95-1.6-7.2-3.99-14.11-7.9-20.43-.16-.26-.35-.52-.15-1.16,8.84-1.18,17.44-.17,25.82,2.82ZM476.25,18.42c5.89,5.16,10.49,11.28,13.88,18.35.91,1.89,1,3.74.74,5.67-1.03,7.83-5.08,13.6-12.08,17.28-3.79,1.99-8.77,3.4-12.34,3.44,4.41-16.3,5.18-32.79,2.93-49.69,2.74,1.41,4.84,3.16,6.88,4.94ZM464.41,69.17c.32-.88,1.02-.83,1.7-.92,3.64-.51,7.22-1.25,10.69-2.55,7.66-2.86,13.61-7.55,16.87-15.24.08-.2.27-.35.47-.58.78,1.68.77,3.43.9,5.11.93,11.33-1.23,22.03-6.84,31.98-.98,1.73-.99,1.71-2.9,1.28-8.1-1.82-15.96-4.38-23.59-7.66-.57-.24-1.18-.39-1.78-1.01,1.72-3.33,3.17-6.85,4.48-10.42ZM428.94,112.34c7.49-4.48,14.19-9.92,19.94-16.5,1.33-1.52,1.35-1.53,3-.48,2.33,1.48,4.39,3.25,5.86,5.62,2.14,3.46,1.96,7.74-.43,11-.35.47-.74.74-1.3.9-9.48,2.83-19.03,3.19-28.87.92.47-.93,1.2-1.12,1.78-1.46ZM464.09,109.7c-.68-.54-.35-1.11-.27-1.58.69-4.11-.52-7.71-2.97-10.96-1.71-2.27-3.83-4.1-6.22-5.63-1.45-.94-1.43-.97-.44-2.46.86-1.3,1.76-2.58,2.55-3.92.55-.94,1.13-1.06,2.11-.63,2.14.94,4.32,1.81,6.51,2.65,5.47,2.1,11.05,3.86,16.77,5.19.6.14,1.19.35,2.15.64-5.58,7.37-12.23,12.83-20.19,16.7Z"/>
        <path class="cls-1" d="M301.18,57.27c0-10.77,0-21.54,0-32.31,0-1.92.02-1.95,1.74-2.42,23.73-6.38,47.1,7.58,52.83,29.55,3.69,14.14.52,26.86-8.94,38.03-.94,1.11-1.94,1.55-3.42,1.55-13.3-.06-26.6-.03-39.9-.03-.39,0-.78-.02-1.17,0-.77.02-1.16-.32-1.14-1.11.02-.55,0-1.09,0-1.64,0-10.54,0-21.07,0-31.61Z"/>
        <path class="cls-1" d="M162.01,65.75c-4.51,6.07-8.67,12.28-12.4,18.78-3.7,6.44-6.94,13.1-9.84,19.97-.97-.39-.96-1.28-1.19-1.96-1.08-3.28-1.62-6.69-1.81-10.12-.95-16.83,1.86-32.96,9.22-48.23,6.85-14.22,17.98-23.76,32.5-29.59,9.66-3.88,19.7-6.05,30.09-6.8,6.75-.49,13.45-.34,20.1.99,1.42.28,2.84.59,4.15,1.26-.25.8-.88.82-1.34,1.02-11.77,5.21-22.92,11.51-33.35,19.05-1.34.97-1.36.95-2.56-.37-1.7-1.86-3.68-2.2-5.38-.92-1.68,1.27-1.91,3.42-.59,5.42q1.08,1.63-.93,3.13c-.79-.2-1.11-.99-1.67-1.48-1.6-1.41-3.61-1.5-5.11-.21-1.47,1.26-1.69,3.37-.52,5.08.18.26.41.47.59.73.28.42,1.01.75.56,1.36-.4.55-.94,1.08-1.54,1.4-.46.25-.8-.34-1.12-.66-.79-.78-1.58-1.5-2.78-1.58-1.54-.1-2.77.38-3.62,1.7-.83,1.3-.76,2.86.17,4.17.09.13.19.24.29.37q1.53,1.86-.36,3.48c-.69-.23-1.11-.82-1.68-1.23-1.83-1.32-3.92-1.15-5.26.42-1.26,1.47-1.17,3.55.24,5.1.21.23.44.45.69.64.72.56,1.04,1.08.24,1.89-.64.65-1.13,1.35-2.07.44-.33-.32-.73-.59-1.14-.82-1.71-.93-3.69-.5-4.82,1-1.04,1.38-.96,3.41.26,4.75.57.63,1.26,1.15,2,1.81Z"/>
        <path class="cls-1" d="M301.18,17.58c0-2.49.02-4.98,0-7.47,0-.84.53-1.07,1.17-1.19,1.85-.33,3.69-.72,5.56-.92,29.43-3.21,54.26,15.47,61.11,40.76,5.9,21.82-2.57,45.57-21.06,58.67-.31.22-.64.42-.97.64-.55-.57-.21-1.07-.08-1.55,1.06-3.76,2.16-7.5,3.19-11.26.38-1.39,1.04-2.55,1.94-3.68,7.59-9.53,11.18-20.43,10.03-32.53-1.66-17.37-10.66-30.06-26.18-37.97-10.36-5.28-21.37-6.19-32.69-3.66-.53.12-1.03.39-1.99.17Z"/>
        <path class="cls-1" d="M264.83,88.59c-9.08-14.94-8.75-37.32,0-51.19v51.19Z"/>
        <path class="cls-1" d="M110.81,36.02c.21.01.29.11.21.3-.01.02-.16.03-.21,0-.18-.13-.16-.25.07-.32,0,0-.07.03-.07.03Z"/>
      </g>
    </g>
  </g>
</svg>